<?xml version="1.0" encoding="UTF-8" standalone="no"?><!DOCTYPE svg PUBLIC "-//W3C//DTD SVG 1.1//EN" "http://www.w3.org/Graphics/SVG/1.1/DTD/svg11.dtd"><svg width="100%" height="100%" viewBox="0 0 4496 5112" version="1.1" xmlns="http://www.w3.org/2000/svg" xmlns:xlink="http://www.w3.org/1999/xlink" xml:space="preserve" xmlns:serif="http://www.serif.com/" style="fill-rule:evenodd;clip-rule:evenodd;stroke-linejoin:round;stroke-miterlimit:2;"><path d="M2334.44,5066.72l-86.615,44.312l-86.613,-44.312c-485.031,-255.75 -885.315,-748.032 -1169.71,-1204.78c-363.237,-583.343 -633.828,-1254.22 -803.528,-1919.22c-86.941,-340.691 -149.584,-689.054 -181.7,-1039.28l-6.275,-68.419l50.297,-46.806c898.812,-836.506 3497.73,-839.271 4395.3,0.235l50.031,46.787l-6.25,68.203c-32.125,350.228 -94.75,698.591 -181.719,1039.28c-169.687,664.997 -440.281,1335.88 -803.531,1919.22c-284.375,456.75 -684.656,949.032 -1169.69,1204.78Z"/><path d="M2247.79,4962.22l0.025,-0.031l0.022,0.031c1017.6,-517.875 1945.16,-2351.34 2102.16,-4063.33c-843.562,-788.966 -3360.83,-785.069 -4204.37,-0c157.003,1711.99 1084.56,3545.45 2102.16,4063.33Z"/><path d="M653.419,2902.81c197.215,-439.076 467.853,-879.96 792.772,-1001.81c703.165,-263.687 1884.87,-195.325 2168.09,253.922c112.625,178.634 195.875,436.006 255.344,681.266c247.438,-609.95 420.312,-1282.47 480.375,-1937.31c-843.562,-788.963 -3360.83,-785.066 -4204.37,-0c62.247,678.762 245.703,1376.53 507.788,2003.92Z" style="fill:#ed1c24;"/><path d="M2280.57,308.844l9.497,518.953l42.678,-518.509c13.05,0.196 26.075,0.543 39.119,0.837l-31.538,522.966l84.525,-521.544c13.044,0.422 26.078,0.894 39.103,1.416l-73.931,529.35l128.494,-526.863c13.034,0.65 26.084,1.244 39.109,1.991l-118.787,537.965l175.725,-534.274c13.031,0.89 26.062,1.79 39.062,2.78l-167.147,548.376l227.397,-543.482c13.031,1.144 25.969,2.457 38.937,3.7l-220.174,560.347l284.675,-553.762c12.968,1.415 25.937,2.853 38.843,4.365l-279.093,573.526l348.906,-564.801c12.906,1.7 25.781,3.441 38.625,5.244l-345.156,587.094l421.437,-575.728c12.781,2.016 25.531,4.078 38.219,6.19l-419.563,600.313l503.719,-585.522c12.562,2.347 25,4.825 37.5,7.272l-503.687,612.081l596.968,-592.694c12.25,2.697 24.469,5.425 36.625,8.225l-598.812,621.135l702.531,-595.653c11.781,3.065 23.5,6.159 35.187,9.325l-705.906,625.612l821.219,-592.153c11.094,3.447 22,7.031 33,10.572l-825.594,623.244l952.625,-579.091c10.188,3.806 20.406,7.594 30.469,11.491l-957.844,611.371l1095.53,-553.262c9,4.119 17.812,8.35 26.656,12.55l-1100.44,586.338l1245.16,-510.538c7.532,4.35 14.969,8.763 22.344,13.187l-1249.41,544.541l1393.75,-447.334c5.875,4.468 11.844,8.89 17.625,13.415l-1397.03,482.378l1471.94,-347.799c-0.625,6.146 -1.281,12.299 -1.937,18.449l-1459.5,378.791l1440.94,-222.925c-0.844,6.432 -1.719,12.869 -2.593,19.31l-1431.75,253.725l1409.97,-105.878c-1.062,6.643 -2.125,13.287 -3.187,19.928l-1404.16,136.421l1379.56,4.95c-1.25,6.781 -2.5,13.569 -3.781,20.353l-1377.12,25.222l1349.97,111.116c-1.438,6.872 -2.876,13.744 -4.344,20.606l-1350.91,-81.459l1321.28,214.131c-1.625,6.907 -3.219,13.81 -4.844,20.706l-1325.69,-185.147l1293.5,315.45c-1.781,6.891 -3.531,13.782 -5.343,20.672l-1301.22,-287.306l1266.28,416.478c-1.906,6.835 -3.812,13.675 -5.75,20.51l-1277.44,-389.353l1239.44,518.606c-2.062,6.744 -4.094,13.484 -6.156,20.215l-600.469,-235.928c-135.344,-102.24 -329.937,-174.25 -552.437,-217.072l-100.938,-39.653l63.875,32.838c-378.3,-66.46 -829.922,-51.01 -1205.88,41.028l20.338,-15.353l-28.672,17.428c-58.675,14.584 -115.444,31.053 -169.8,49.353l173.209,-110.553l-1217.73,614.972c-2.178,-6.625 -4.35,-13.257 -6.513,-19.891l1202.5,-640.706l-1243.76,509.962c-2.063,-6.756 -4.097,-13.528 -6.141,-20.29l1231.8,-536.863l-1269.54,407.475c-1.929,-6.847 -3.841,-13.693 -5.747,-20.547l1260.94,-435.387l-1295.6,306.134c-1.781,-6.884 -3.553,-13.775 -5.309,-20.669l1290.41,-334.906l-1322.31,204.575c-1.613,-6.891 -3.228,-13.771 -4.822,-20.662l1320.55,-234.022l-1349.88,101.366c-1.44,-6.844 -2.862,-13.682 -4.287,-20.528l1351.53,-131.31l-1378.36,-4.944c-1.25,-6.747 -2.481,-13.497 -3.718,-20.244l1383.41,-25.337l-1407.66,-115.866c-1.057,-6.596 -2.091,-13.187 -3.125,-19.784l1416.09,85.391l-1437.52,-232.969c-0.846,-6.378 -1.696,-12.76 -2.528,-19.138l1449.27,202.413l-1467.44,-357.875c-0.634,-6.084 -1.253,-12.166 -1.865,-18.244l1482.4,327.303l-1394.18,-458.534c5.994,-4.585 12.128,-9.1 18.244,-13.625l1392.83,424.522l-1245.48,-521.135c7.681,-4.478 15.253,-9.021 23.065,-13.418l1242.98,488.387l-1095.84,-563.322c9.187,-4.253 18.394,-8.493 27.716,-12.653l1092.25,531.562l-952.985,-588.699c10.397,-3.929 20.688,-7.932 31.216,-11.766l949.303,558.084l-821.444,-601.328c11.332,-3.556 22.86,-6.959 34.316,-10.415l817.906,571.656l-702.522,-604.381c12,-3.172 24.104,-6.241 36.213,-9.31l700.134,576.138l-596.603,-600.9c12.456,-2.791 25.019,-5.472 37.569,-8.159l595.706,574.277l-502.916,-593.134c12.76,-2.428 25.65,-4.687 38.494,-7.012l503.71,568.353l-420.132,-582.644c12.944,-2.087 25.866,-4.2 38.885,-6.184l422.903,560.212l-347.166,-571.109c13.057,-1.772 26.181,-3.422 39.291,-5.085l351.653,550.932l-282.422,-559.222c13.103,-1.478 26.178,-3.016 39.331,-4.391l288.713,541.866l-224.738,-548.116c13.122,-1.2 26.294,-2.278 39.457,-3.378l232.468,533.397l-172.712,-538.119c13.116,-0.947 26.262,-1.797 39.409,-2.644l181.769,526.416l-125.175,-529.747c13.1,-0.706 26.197,-1.45 39.319,-2.053l135.293,521.303l-80.984,-523.45c13.081,-0.462 26.163,-0.984 39.259,-1.356l91.832,518.222l-39.003,-519.416c13.068,-0.237 26.14,-0.444 39.209,-0.587l50.266,517.375l1.859,-517.788c13.05,-0.016 26.109,0.097 39.169,0.169Zm1338.93,1854.46l417.875,214.804c-2.156,6.596 -4.312,13.2 -6.5,19.79l-383.406,-186.584c-9.125,-16.528 -18.438,-32.556 -27.969,-48.01Zm102.906,205.253l262.907,162.413c-2.282,6.406 -4.532,12.813 -6.813,19.206l-239.656,-140.897c-5.375,-13.731 -10.875,-27.309 -16.438,-40.722Zm81.406,227.45l124.344,91.025c-2.344,6.16 -4.687,12.304 -7.031,18.454l-106.688,-74.572c-3.5,-11.669 -7.031,-23.303 -10.625,-34.907Zm-3099.18,196.404l-71.69,60.772c-2.407,-5.876 -4.807,-11.782 -7.21,-17.688l101.816,-90.238c-7.735,15.672 -15.372,31.394 -22.916,47.154Zm171.478,-320.185l-306.34,220.885c-2.363,-6.197 -4.703,-12.413 -7.047,-18.629l353.693,-266.996c-13.634,21.228 -27.065,42.834 -40.306,64.74Zm189.691,-271.25l-553.263,336.316c-2.281,-6.444 -4.553,-12.891 -6.818,-19.344l645.346,-411.912c-29.04,29.574 -57.475,61.306 -85.265,94.94Z" style="fill:#f26522;"/><path d="M2258.94,106.344l-155.072,344.256c-0,0 -14.038,3.659 -24.416,14.038c-10.378,10.378 -15.872,24.418 -15.872,24.418c0,0 -104.975,61.65 -162.962,159.313c-57.991,97.662 -73.247,161.753 -73.247,161.753l-117.794,115.359c0,0 -2.559,19.332 -5.272,52.288c-91.956,-28.137 -176.19,-82.369 -204.406,-180.594c-20.213,-70.387 -28.131,-140.378 -14.034,-212.694c26.35,-135.171 114.284,-225.45 114.778,-371.3c0.265,-79.862 -25.203,-159.487 -85.535,-213.181c27.953,112.534 1.35,216.206 -64.243,308.784c-120.4,169.932 -193.222,185.01 -211.532,426.5c-8.997,118.657 10.675,243.501 76.088,344.828c83.997,130.119 245.475,202.254 393.122,234.416c0.64,5.035 1.034,7.71 1.034,7.71l3.672,18.312l94.609,76.906l-17.087,92.169l12.815,23.806l-33.571,10.379c-0,-0 -75.072,-135.507 -112.922,-184.95c-37.841,-49.441 -65.916,-62.869 -65.916,-62.869c0,-0 -58.603,14.647 -96.447,36.622c-37.843,21.975 -45.778,29.906 -45.778,29.906l-83.622,-48.825c0,0 -67.143,24.413 -109.872,55.544c-42.725,31.131 -50.662,40.284 -50.662,40.284c-0,-0 -94.619,-6.094 -155.653,-6.094c-61.038,0 -93.388,4.272 -93.388,4.272l-73.247,161.75l-121.465,-7.318c-0,-0 -52.491,40.284 -72.028,84.234c-19.532,43.947 -23.191,65.922 -84.229,113.534c-61.043,47.606 -67.146,57.372 -67.146,57.372c-0,-0 6.103,72.025 25.64,120.856c19.532,48.835 63.478,107.428 63.478,107.428c0,0 -47.612,74.475 -91.559,155.044c-43.947,80.575 -50.05,104.988 -50.05,104.988l92.778,144.053l31.744,6.103l-75.691,280.772l-133.065,59.825c-0,-0 -24.413,114.75 -19.532,224.625c4.885,109.875 21.975,170.906 21.975,170.906l-65.922,273.438l302.754,19.531l124.515,41.531l195.325,-29.313l1.097,-0.249l50.375,62.5c0,-0 124.519,-3.688 247.816,-25.657c123.3,-21.969 336.937,-81.781 336.937,-81.781l76.907,170.906c-0,0 59.821,83 242.937,95.219c36.559,2.438 72.178,4.188 105.787,5.437l4.11,8c-0,0 0.966,18.375 13.234,39.626l-22.769,0.812l-3.821,1.063c-53.179,14.531 -106.3,29.718 -159.063,45.687c-36.703,11.094 -73.803,22.563 -109.809,35.75c-31.044,11.375 -68.335,24.75 -97.325,40.906l-6.235,3.469c-13.478,-7.813 -29.134,-12.281 -45.831,-12.281c-50.55,-0 -91.556,41 -91.556,91.562c-0,50.563 41.006,91.563 91.556,91.563c45.078,-0 82.563,-32.625 90.156,-75.5l2.75,-0.688c48.828,-11.906 98.569,-21.906 148.038,-30.625c84.272,-14.875 170.175,-26.093 255.656,-30.406c6.172,-0.344 14.313,-0.625 23.994,-0.844l-63.634,88.813l-0,857.468l415.206,0l-0,-857.468l-63.638,-88.813c9.681,0.219 17.828,0.5 23.994,0.844c85.488,4.313 171.381,15.531 255.663,30.406c49.468,8.719 99.218,18.719 148.031,30.625l2.75,0.688c7.593,42.875 45.062,75.5 90.156,75.5c50.563,-0 91.563,-41 91.563,-91.563c-0,-50.562 -41,-91.562 -91.563,-91.562c-16.687,-0 -32.344,4.468 -45.813,12.281l-6.25,-3.469c-28.999,-16.156 -66.281,-29.531 -97.312,-40.906c-36.031,-13.187 -73.125,-24.656 -109.812,-35.75c-42.657,-12.906 -85.563,-25.344 -128.554,-37.281c58.366,-13.063 115.428,-27.188 166.519,-41.375l7.316,17.093l97.656,-4.875l9.781,-26.843l873.625,-208.344l62.5,9.375l124.531,-41.531l302.75,-19.531l-65.906,-273.438c0,0 17.094,-61.031 21.969,-170.906c4.875,-109.875 -19.531,-224.625 -19.531,-224.625l-133.063,-59.825l-75.687,-280.772l31.718,-6.103l92.782,-144.053c-0,-0 -6.094,-24.413 -50.031,-104.988c-43.969,-80.569 -91.563,-155.044 -91.563,-155.044c0,0 43.937,-58.593 63.469,-107.428c19.531,-48.831 25.656,-120.856 25.656,-120.856c0,-0 -6.125,-9.766 -67.156,-57.372c-61.031,-47.612 -64.688,-69.587 -84.25,-113.534c-19.5,-43.95 -72,-84.234 -72,-84.234l-121.469,7.318l-73.25,-161.75c-0,-0 -32.344,-4.272 -93.375,-4.272c-61.062,0 -155.656,6.094 -155.656,6.094c-0,-0 -7.938,-9.153 -50.657,-40.284c-42.749,-31.131 -109.874,-55.544 -109.874,-55.544l-83.625,48.825c-0,-0 -7.938,-7.931 -45.782,-29.906c-37.843,-21.975 -96.468,-36.622 -96.468,-36.622c-0,-0 -28.063,13.428 -65.907,62.869c-37.844,49.443 -112.906,184.95 -112.906,184.95l-33.594,-10.379l12.844,-23.806l-17.094,-92.169l94.594,-76.906l3.688,-18.312c-0,-0 0.374,-2.675 1.031,-7.71c147.625,-32.162 309.125,-104.297 393.125,-234.416c65.406,-101.327 85.062,-226.171 76.093,-344.828c-18.312,-241.49 -91.156,-256.568 -211.562,-426.5c-65.594,-92.578 -92.187,-196.25 -64.219,-308.784c-60.343,53.694 -85.812,133.319 -85.531,213.181c0.469,145.85 88.406,236.129 114.781,371.3c14.063,72.316 6.156,142.307 -14.062,212.694c-28.188,98.225 -112.438,152.457 -204.407,180.594c-2.718,-32.956 -5.249,-52.288 -5.249,-52.288l-117.813,-115.359c0,-0 -15.25,-64.091 -73.25,-161.753c-57.969,-97.663 -162.953,-159.313 -162.953,-159.313c-0,0 -5.491,-14.04 -15.872,-24.418c-10.372,-10.379 -24.416,-14.038 -24.416,-14.038l-155.068,-344.256Zm970.497,2514.1c-0,-0 -30.5,92.775 -46.375,142.831c-15.876,50.053 -75.688,189.222 -75.688,189.222l169.688,-153.825l-47.625,-178.228Zm-1934.92,-0c-0,-0 30.522,92.775 46.394,142.831c15.865,50.053 28.075,83 28.075,83l-122.079,-47.603l47.61,-178.228Z"/><path d="M2258.94,1008.22l-146.944,-91.562c-0,-0 -79.356,45.168 -163.585,61.04c-84.234,15.872 -142.834,13.431 -142.834,13.431c0,0 58.6,126.96 51.275,288.1c-7.325,161.144 -28.078,222.179 -28.078,222.179c-0,-0 123.291,122.081 180.666,228.287c57.381,106.206 68.362,260.028 68.362,260.028c0,0 81.791,-156.262 73.247,-413.847c-8.544,-257.584 -25.634,-296.647 -25.634,-296.647c-0,0 -87.891,2.441 -146.494,-58.597c-58.597,-61.04 -53.716,-119.634 -53.716,-119.634c0,0 92.785,-10.991 177.019,23.191c84.228,34.184 112.309,148.937 113.528,224.625c1.219,75.684 -8.544,136.728 -8.544,136.728l51.732,59.818l51.731,-59.818c-0,-0 -9.766,-61.044 -8.544,-136.728c1.216,-75.688 29.297,-190.441 113.525,-224.625c84.231,-34.182 177.003,-23.191 177.003,-23.191c0,0 4.907,58.594 -53.7,119.634c-58.6,61.038 -146.494,58.597 -146.494,58.597c0,0 -17.087,39.063 -25.637,296.647c-8.544,257.585 73.244,413.847 73.244,413.847c-0,0 10.993,-153.822 68.368,-260.028c57.375,-106.206 180.657,-228.287 180.657,-228.287c-0,-0 -20.75,-61.035 -28.063,-222.179c-7.312,-161.14 51.25,-288.1 51.25,-288.1c0,0 -58.562,2.441 -142.812,-13.431c-84.232,-15.872 -163.581,-61.04 -163.581,-61.04l-146.947,91.562Z" style="fill:#d2ab67;"/><path d="M2422.04,1092.16c35.963,-12.275 74.438,-18.46 112.175,-20.188c19.757,-0.9 42.038,-0.931 61.757,1.422l22.562,2.694l1.844,22.637c1.187,14.594 -1.969,32.922 -5.781,46.838c-9.844,35.747 -30.032,67.7 -55.594,94.322c-1.969,2.037 -3.938,4.021 -5.969,5.962c-17.565,54.55 -37.475,127.456 -46.122,199.119c-10.825,89.672 -7.937,183.244 -4.362,239.831c9.825,-15.609 20.337,-30.812 31.156,-45.612c27.922,-38.179 58.672,-74.747 90.485,-109.735c10.999,-12.093 22.246,-24.259 33.718,-36.053c-3.156,-12.769 -5.531,-26.303 -7.597,-38.256c-9.84,-57.238 -14.406,-116.7 -17.059,-174.647c-3.222,-71.215 5.406,-143.562 23.594,-212.441c4.219,-15.959 9.218,-33.118 14.934,-49.868c-0.406,-0.019 -0.781,-0.044 -1.188,-0.066c-35.59,-1.956 -71.246,-6.509 -106.278,-13.106c-40.703,-7.669 -81.187,-21.616 -119.125,-38.185c-12.674,-5.54 -25.734,-11.556 -38.306,-18.037l-0.55,0.34c0.381,25.207 1.885,52.163 5.325,78.338c3.25,24.713 6.853,46.303 10.381,64.691Zm98.097,179.081c-21.322,13.25 -44.965,22.675 -69.659,28.609c-10.953,2.635 -23.55,4.922 -35.941,6.181c-2.337,12.813 -4.006,25.916 -5.493,38.804c-8.803,76.256 -11.888,155.297 -14.432,231.962c-3.265,98.531 6.319,199.447 32.172,294.753c0.597,2.206 1.2,4.409 1.822,6.616c1.081,-5.15 2.2,-10.291 3.375,-15.425c-0.525,-95.631 4.716,-273.341 43.197,-437.306c15.531,-66.203 30.884,-116.31 44.959,-154.194Z"/><path d="M2258.94,975.262l-150.613,-98.884c0,0 -79.35,50.05 -162.366,67.141c-83.012,17.093 -106.206,9.769 -106.206,9.769c0,-0 -6.106,-148.932 89.116,-275.894c95.222,-126.966 147.715,-141.613 147.715,-141.613c39.141,37.875 129.179,61.038 182.354,61.038c53.172,-0 143.212,-23.163 182.353,-61.038c-0,0 52.493,14.647 147.706,141.613c95.219,126.962 89.125,275.894 89.125,275.894c-0,-0 -23.187,7.324 -106.219,-9.769c-83.006,-17.091 -162.356,-67.141 -162.356,-67.141l-150.609,98.884Z" style="fill:#d2ab67;"/><path d="M1787.24,1589.32l51.275,-17.091c-0,0 53.709,51.272 79.35,87.894c25.634,36.625 32.959,54.941 32.959,54.941l-120.859,20.749c-0,0 -13.428,-61.037 -42.725,-146.493Z" style="fill:#d2ab67;"/><path d="M1489.38,1391.55c0,0 15.866,-17.091 53.709,-29.3c37.847,-12.203 45.172,-13.425 45.172,-13.425c0,0 97.663,109.866 157.482,255.141c55.865,135.675 61.684,283.05 62.209,301.925c-7.313,-3.035 -14.869,-5.591 -22.644,-7.622c-7.803,-37.797 -81.897,-370.937 -295.928,-506.719Z" style="fill:#ed1c24;"/><path d="M1284.28,1418.41l87.9,-54.934c0,0 142.825,62.256 253.919,244.153c102.837,168.385 109.428,270.844 109.841,285.141c-68.032,2.125 -126.179,43.444 -152.616,102.128c-18.109,-13.275 -232.228,-166.525 -507.803,-198.053c-288.103,-32.96 -457.788,57.378 -457.788,57.378l61.038,-2.437c-0,-0 4.884,31.737 13.428,59.812c8.544,28.081 12.206,35.403 12.206,35.403l-56.153,72.028c0,0 -37.844,-72.028 -47.612,-119.637c-9.766,-47.606 -9.766,-69.584 -9.766,-69.584c-0,-0 97.666,-39.066 125.741,-112.313c28.075,-73.247 69.581,-102.547 69.581,-102.547c-0,0 269.794,-2.437 444.362,50.056c174.572,52.491 332.053,175.788 332.053,175.788c0,-0 -113.534,-144.047 -294.209,-214.85c-180.672,-70.806 -341.816,-59.819 -341.816,-59.819l52.494,-108.65c0,-0 206.313,-23.197 308.856,6.103c102.547,29.3 231.947,169.685 275.894,231.947c43.947,62.259 95.222,169.688 95.222,169.688c0,-0 -18.309,-134.285 -65.922,-225.841c-47.609,-91.562 -111.094,-130.625 -111.094,-130.625c0,0 26.86,25.634 53.716,69.581c26.859,43.95 35.403,74.472 35.403,74.472c0,-0 -80.568,-108.65 -147.712,-157.481c-67.144,-48.832 -139.163,-76.907 -139.163,-76.907Z" style="fill:#ed1c24;"/><path d="M1741.46,1936.01c71.803,-0 130.013,58.209 130.013,130.012c-0,71.803 -58.21,130.009 -130.013,130.009c-71.803,0 -130.012,-58.206 -130.012,-130.009c-0,-71.803 58.209,-130.012 130.012,-130.012Zm0,47.612c45.51,0 82.403,36.888 82.403,82.4c0,45.51 -36.893,82.4 -82.403,82.4c-45.509,0 -82.403,-36.89 -82.403,-82.4c0,-45.512 36.894,-82.4 82.403,-82.4Z" style="fill:#ffcb05;"/><path d="M1908.67,2020.19c26.978,12.519 100.825,46.222 148.978,62.928c59.819,20.756 109.869,33.572 109.869,33.572l79.962,103.769l0,194.175c-65.484,5.8 -116.837,60.796 -116.837,127.778c-0,52.55 31.606,97.712 76.84,117.54l-7.675,58.71c-47.937,-0.825 -94.318,5.222 -144.69,3.718l-47.713,54.626c-146.256,-2.025 -325.962,-19.216 -438.065,-82.275c-214.857,-120.86 -245.375,-247.819 -245.375,-247.819c-0,-0 61.04,-178.235 111.09,-291.769c50.05,-113.528 79.35,-151.372 79.35,-151.372l55.753,35.478c-1.353,8.728 -2.056,17.669 -2.056,26.772c0,95.744 77.613,173.353 173.353,173.353c95.744,0 173.353,-77.609 173.353,-173.353c0,-15.866 -2.147,-31.225 -6.137,-45.831Z" style="fill:#d2ab67;"/><path d="M1477.79,1989.11c0,0 -145.265,-90.337 -319.837,-135.509c-174.572,-45.168 -312.519,-28.075 -312.519,-28.075c0,0 -133.062,134.281 -205.087,268.569c-72.025,134.284 -91.56,211.191 -91.56,211.191l57.378,85.459c0,0 67.141,-41.506 126.957,-58.6c59.818,-17.091 92.781,-17.091 92.781,-17.091l-10.987,-34.178c-0,0 -87.897,-3.665 -146.494,6.103c-58.597,9.763 -94,20.75 -94,20.75c-0,0 197.762,-97.665 443.14,-21.975c245.378,75.691 278.338,140.391 278.338,140.391c-0,0 46.391,-191.659 181.89,-437.035Z" style="fill:#d2ab67;"/><path d="M674.525,2429.81c-0,-0 104.984,-123.297 333.269,-61.038c228.284,62.259 267.35,172.128 267.35,172.128l-74.125,255.122l-73.825,-22.284l-27.153,14.653c-48.082,-24.4 -118.597,-52.241 -217.369,-74.135c-225.847,-50.046 -298.481,14.657 -298.481,14.657l90.334,-299.103Z" style="fill:#d2ab67;"/><path d="M462.109,3156.18c0,-0 -18.312,-108.657 -17.09,-198.997c1.222,-90.347 14.65,-135.51 14.65,-135.51c-0,0 129.397,-79.35 285.662,-73.247c156.26,6.104 310.075,62.263 310.075,62.263c0,-0 -151.375,86.678 -239.272,255.147c-87.897,168.469 -80.571,406.5 -80.571,406.5l-90.335,-41.5l-10.991,-246.594l-172.128,-28.062Z" style="fill:#d2ab67;"/><path d="M387.634,3433.28l70.807,-237.437l111.703,15.281l-159.313,192.875l192.885,-169.687l-1.222,201.406l-214.86,-2.438Z" style="fill:#d2ab67;"/><path d="M1803.13,902.61l-52.49,41.506c-13.444,126.15 -12.607,252.297 -0,378.443l75.684,53.71l-1.672,-166.328c-15.966,-117.691 -50.822,-259.722 -50.822,-259.722c0,-0 15.728,1.969 33.953,4.134l-4.653,-51.743Z" style="fill:#d2ab67;"/><path d="M1552.87,103.003c-0,0 36.625,87.897 -14.65,227.066c-51.272,139.165 -144.053,249.034 -78.131,478.54c37.228,129.604 153.853,187.56 248.343,213.469c-4.84,83.541 -3.659,167.078 2.813,250.613c-96.316,-21.782 -273.1,-78.838 -361.025,-215.041c-124.519,-192.884 -61.041,-472.444 -0,-557.897c45.862,-64.209 156.509,-184.244 194.194,-293.818c12.472,-36.253 16.953,-71.366 8.456,-102.932Z" style="fill:#d2ab67;"/><path d="M1341.95,570.707c-29.837,52.887 -38.278,151.805 -36.459,212.574c2.978,99.541 29.459,206.61 93.462,291.797c68.828,91.619 185.166,148.519 294.713,180.578c-6.766,-44.509 -12.025,-89.072 -15.657,-133.612c-108.959,-33.131 -254.418,-115.344 -306.084,-270.341c-34.241,-102.725 -35.8,-206.847 -29.975,-280.996Z"/><path d="M2162.69,562.012c-48.222,-15.256 -67.144,-37.843 -67.144,-37.843c-0,-0 3.053,-15.259 12.209,-18.313c9.157,-3.05 10.985,-2.437 10.985,-2.437c-0,-0 29.909,27.466 65.312,36.009c46.444,11.213 103.335,11.213 149.772,0c35.406,-8.543 65.316,-36.009 65.316,-36.009c-0,-0 1.825,-0.613 10.981,2.437c9.156,3.054 12.209,18.313 12.209,18.313c0,-0 -18.925,22.587 -67.143,37.843c-69.169,21.888 -123.329,21.888 -192.497,0Zm181.512,-47.606c36.625,-12.212 39.066,-25.64 39.066,-25.64l-124.328,-312.513l-124.332,312.513c0,-0 2.447,13.428 39.069,25.64c57.656,19.216 112.866,19.216 170.525,0Z" style="fill:#d2ab67;"/><path d="M2730.62,1589.32l-51.25,-17.091c-0,0 -53.719,51.272 -79.344,87.894c-25.656,36.625 -32.969,54.941 -32.969,54.941l120.844,20.749c0,0 13.438,-61.037 42.719,-146.493Z" style="fill:#d2ab67;"/><path d="M3028.5,1391.55c-0,0 -15.875,-17.091 -53.719,-29.3c-37.843,-12.203 -45.156,-13.425 -45.156,-13.425c-0,0 -97.656,109.866 -157.469,255.141c-55.875,135.675 -61.687,283.05 -62.218,301.925c7.312,-3.035 14.875,-5.591 22.656,-7.622c7.781,-37.797 81.875,-370.937 295.906,-506.719Z" style="fill:#ed1c24;"/><path d="M3233.59,1418.41l-87.907,-54.934c0,0 -142.812,62.256 -253.906,244.153c-102.843,168.385 -109.437,270.844 -109.844,285.141c68.032,2.125 126.188,43.444 152.626,102.128c18.093,-13.275 232.218,-166.525 507.781,-198.053c288.125,-32.96 457.812,57.378 457.812,57.378l-61.031,-2.437c-0,-0 -4.906,31.737 -13.438,59.812c-8.562,28.081 -12.218,35.403 -12.218,35.403l56.156,72.028c-0,0 37.844,-72.028 47.625,-119.637c9.75,-47.606 9.75,-69.584 9.75,-69.584c-0,-0 -97.656,-39.066 -125.75,-112.313c-28.062,-73.247 -69.563,-102.547 -69.563,-102.547c0,0 -269.812,-2.437 -444.374,50.056c-174.563,52.491 -332.032,175.788 -332.032,175.788c0,-0 113.531,-144.047 294.188,-214.85c180.687,-70.806 341.812,-59.819 341.812,-59.819l-52.468,-108.65c-0,-0 -206.313,-23.197 -308.875,6.103c-102.532,29.3 -231.938,169.685 -275.907,231.947c-43.937,62.259 -95.187,169.688 -95.187,169.688c-0,-0 18.281,-134.285 65.906,-225.841c47.625,-91.562 111.094,-130.625 111.094,-130.625c-0,0 -26.875,25.634 -53.719,69.581c-26.844,43.95 -35.406,74.472 -35.406,74.472c-0,-0 80.562,-108.65 147.718,-157.481c67.157,-48.832 139.157,-76.907 139.157,-76.907Z" style="fill:#ed1c24;"/><path d="M2776.44,1936.01c-71.813,-0 -130.035,58.209 -130.035,130.012c0,71.803 58.222,130.009 130.035,130.009c71.781,0 130,-58.206 130,-130.009c-0,-71.803 -58.219,-130.012 -130,-130.012Zm-0,47.612c-45.532,0 -82.41,36.888 -82.41,82.4c-0,45.51 36.878,82.4 82.41,82.4c45.499,0 82.375,-36.89 82.375,-82.4c-0,-45.512 -36.876,-82.4 -82.375,-82.4Z" style="fill:#ffcb05;"/><path d="M2609.22,2020.19c-27,12.519 -100.838,46.222 -148.985,62.928c-59.822,20.756 -109.868,33.572 -109.868,33.572l-79.963,103.769l0,194.175c65.481,5.8 116.831,60.796 116.831,127.778c0,52.55 -31.609,97.712 -76.84,117.54l14.681,112.319c128.862,8.266 453.675,17.953 623.456,-77.54c214.875,-120.86 245.375,-247.819 245.375,-247.819c0,-0 -61.031,-178.235 -111.094,-291.769c-50.031,-113.528 -79.343,-151.372 -79.343,-151.372l-55.75,35.478c1.344,8.728 2.062,17.669 2.062,26.772c0,95.744 -77.625,173.353 -173.343,173.353c-95.75,0 -173.375,-77.609 -173.375,-173.353c-0,-15.866 2.156,-31.225 6.156,-45.831Z" style="fill:#d2ab67;"/><path d="M3040.09,1989.11c-0,0 145.281,-90.337 319.844,-135.509c174.562,-45.168 312.5,-28.075 312.5,-28.075c-0,0 133.062,134.281 205.093,268.569c72.031,134.284 91.563,211.191 91.563,211.191l-57.375,85.459c-0,0 -67.125,-41.506 -126.969,-58.6c-59.813,-17.091 -92.781,-17.091 -92.781,-17.091l11,-34.178c-0,0 87.906,-3.665 146.5,6.103c58.594,9.763 94,20.75 94,20.75c-0,0 -197.782,-97.665 -443.157,-21.975c-245.374,75.691 -278.312,140.391 -278.312,140.391c0,0 -46.406,-191.659 -181.906,-437.035Z" style="fill:#d2ab67;"/><path d="M3843.34,2429.81c-0,-0 -104.969,-123.297 -333.25,-61.038c-228.281,62.259 -267.344,172.128 -267.344,172.128l77.656,267.322l51.813,-39.366l37.468,23.757c48.125,-25.363 121.001,-55.191 225.532,-78.357c225.844,-50.046 298.468,14.657 298.468,14.657l-90.343,-299.103Z" style="fill:#d2ab67;"/><path d="M4055.78,3156.18c0,-0 18.313,-108.657 17.094,-198.997c-1.25,-90.347 -14.656,-135.51 -14.656,-135.51c-0,0 -129.407,-79.35 -285.657,-73.247c-156.281,6.104 -310.093,62.263 -310.093,62.263c-0,-0 151.375,86.678 239.281,255.147c87.906,168.469 80.562,406.5 80.562,406.5l90.344,-41.5l11,-246.594l172.125,-28.062Z" style="fill:#d2ab67;"/><path d="M4130.25,3433.28l-70.813,-237.437l-111.687,15.281l159.281,192.875l-192.875,-169.687l1.219,201.406l214.875,-2.438Z" style="fill:#d2ab67;"/><path d="M2714.75,902.61l52.5,41.506c13.438,126.15 12.594,252.297 -0,378.443l-75.687,53.71l1.656,-166.328c15.969,-117.691 50.843,-259.722 50.843,-259.722c0,-0 -15.749,1.969 -33.968,4.134l4.656,-51.743Z" style="fill:#d2ab67;"/><path d="M2965,103.003c0,0 -36.625,87.897 14.656,227.066c51.281,139.165 144.063,249.034 78.125,478.54c-39.5,137.523 -168.406,194.379 -265.375,217.872c4.781,83.3 3.594,166.6 -2.875,249.9c90.938,-18.631 284.719,-74.012 378.125,-218.731c124.531,-192.884 61.032,-472.444 0,-557.897c-61.031,-85.453 -236.844,-269.79 -202.656,-396.75Z" style="fill:#d2ab67;"/><path d="M1160.13,3487.37c49.956,-7.156 116.835,-19.312 205.969,-39.469c291.766,-65.906 417.506,-92.781 417.506,-92.781c0,-0 -31.737,-83 -26.853,-201.406c4.878,-118.438 23.194,-128.188 23.194,-128.188l-512.228,-162.406c-36.753,19.125 -195.203,113 -217.625,320.938c-12.81,118.781 47.318,226.124 110.037,303.312Z" style="fill:#d2ab67;"/><path d="M1129.27,2819.21c-0,-0 -212.41,131.847 -218.519,341.815c-6.103,209.969 109.872,333.281 109.872,333.281c-0,0 16.969,6.157 83.644,-0.125c-61.722,-82.875 -115.813,-192.968 -102.625,-315.281c19.928,-184.812 136.606,-289.375 204.443,-335.344l-76.815,-24.346Z" style="fill:#ffcb05;"/><path d="M1861.74,2986.47c-0,-0 -19.532,98.875 -18.313,181.906c1.222,83 29.3,173.344 29.3,173.344l-50.05,3.656c0,0 -34.187,-68.375 -32.966,-179.469c1.225,-111.093 32.966,-170.906 32.966,-170.906c0,0 24.409,-6.094 39.063,-8.531Z" style="fill:#ffcb05;"/><path d="M2065.61,2761.84l-163.581,219.753c-0,-0 -19.538,78.125 -18.316,168.469c1.225,90.312 20.757,158.687 20.757,158.687l484.643,24.406c0,0 32.96,-139.156 31.744,-291.75c-1.225,-152.593 -8.544,-189.219 -8.544,-189.219l-224.625,-14.656l-122.078,-41.506l86.678,-2.447l-86.678,-31.737Z" style="fill:#d2ab67;"/><path d="M2453.82,2837.53c0.365,-3.634 7.853,52.594 3.665,107.406l95.235,-6.09c-0,-0 8.843,-14.941 7.906,-49.128c-0.906,-34.188 -13.722,-48.219 -13.722,-48.219l-93.084,-3.969Z" style="fill:#d2ab67;"/><path d="M2458.7,2986.47c0.366,-3.625 4.197,57.468 -0,112.312l64.091,1.219c-0,-0 10.681,-25.344 9.768,-59.531c-0.915,-34.156 -6.406,-53.094 -6.406,-53.094l-67.453,-0.906Z" style="fill:#d2ab67;"/><path d="M2458.7,3139.34l-9.147,80.593l57.375,-1.218c0,-0 7.931,-14.657 12.819,-43.969c4.878,-29.281 1.215,-40.281 1.215,-40.281l-62.262,4.875Z" style="fill:#d2ab67;"/><path d="M2447.42,3256.56c-0,-0 -1.219,15.562 -4.579,33.562c-3.356,18 -4.578,22.281 -4.578,22.281l37.235,-1.531c-0,0 11.294,-16.469 17.7,-30.813c6.412,-14.343 7.019,-24.124 7.019,-24.124l-52.797,0.625Z" style="fill:#d2ab67;"/><path d="M3260.72,2891.72l-583.782,462.5c0,-0 53.688,41.5 97.657,153.812c43.937,112.313 29.281,173.344 29.281,173.344c-0,0 479.188,-106.969 728,-171.063c5.562,-70.093 2.031,-185.156 -48.375,-329.374c-52.156,-149.282 -153.187,-240.935 -222.781,-289.219Z" style="fill:#d2ab67;"/><path d="M3673.06,3468.97c0,-0 4.907,-282 -78.125,-450.469c-82.999,-168.469 -214.843,-205.094 -214.843,-205.094l-70.032,55.469c74.938,54.625 166.063,143.375 219.407,296.031c48.968,140.094 55.844,255.719 51.781,332.438c46.656,-12.563 79.781,-22.563 91.812,-28.375Z" style="fill:#ffcb05;"/><path d="M2608.56,3372.53l37.84,-24.437c0,-0 52.503,37.843 100.097,147.719c47.625,109.874 35.406,214.875 35.406,214.875l-50.031,3.656c0,-0 10.969,-250.25 -123.312,-341.813Z" style="fill:#ffcb05;"/><path d="M2618.34,3407.9c-0,0 39.062,43.969 59.812,124.531c20.75,80.563 20.75,162.376 20.75,162.376l-452.897,106.187c0,-0 -62.262,-40.281 -115.975,-177c-53.715,-136.719 -47.612,-264.906 -47.612,-264.906l307.634,17.093l52.494,-20.75l47.606,-10.999l128.188,63.468Z" style="fill:#d2ab67;"/><path d="M2057.59,3472.03c-0,0 -6.263,-30.531 -7.097,-59.812c-0.835,-29.313 -0.11,-45.782 -0.11,-45.782l-128.484,-7.937c0,0 -8.291,30.5 -1.787,65.906c6.506,35.406 37.847,64.094 137.478,47.625Z" style="fill:#d2ab67;"/><path d="M2064.41,3518.4l25.785,90.938c-0,-0 -82.838,27.469 -100.447,-33.563c-17.613,-61.031 -10.356,-63.469 -10.356,-63.469c-0,0 43.684,12.188 85.018,6.094Z" style="fill:#d2ab67;"/><path d="M2096.4,3634.4l19.775,61.938c-0,-0 -49.3,15.562 -64.463,8.25c-15.165,-7.344 -23.615,-57.375 -23.615,-57.375c-0,-0 42.662,-2.469 68.303,-12.813Z" style="fill:#d2ab67;"/><path d="M2062.21,3730.22c0,-0 17.994,-0.313 38.366,-3.032c20.369,-2.75 26.1,-5.218 26.1,-5.218l36.609,63.812c0,0 -51.862,11.282 -67.89,5.782c-16.029,-5.501 -33.091,-47.313 -33.185,-61.344Z" style="fill:#d2ab67;"/><path d="M3119.69,2796.93c-0,-0 -112.219,64.937 -331.313,74.656c25.187,46.19 62.469,124.125 85.5,216.281c3.844,15.344 6.937,31.75 9.406,48.812l161.469,-127.718c36.313,-89.813 64.687,-167.219 74.938,-212.031Zm-1721.49,-0c-0,-0 112.219,64.937 331.306,74.656c-11.141,20.437 -24.647,47.094 -38.237,78.437l-274.076,-88.968c-8.574,-25.332 -15.1,-47.091 -18.993,-64.125Zm367.865,75.749c13.729,0.219 27.825,0.188 42.313,-0.062c46.378,-0.844 90.072,-1.594 130.65,-2.313l-52.519,74.344l-63.478,0l-31.741,37.844l-69.012,-22.406c16.262,-37.188 32.265,-67.25 43.787,-87.407Zm833.566,-2c34.594,0.594 71.313,1.251 109.875,1.938c14.5,0.25 28.594,0.281 42.313,0.062c18.656,32.594 49.062,91.191 73.281,163.969c-40.313,11.156 -135.781,34.532 -259.657,44.5c1.282,-7.094 2.251,-15.969 2.251,-26.625c-0,-31.75 -7.313,-75.687 -7.313,-75.687l25.625,-6.125c-0,-0 15.875,-26.841 15.875,-75.688c0,-9.406 -0.875,-18.218 -2.25,-26.344Zm-40.469,243.594c131.435,-9.906 233.438,-34.969 275.594,-46.656c2.656,9.188 5.187,18.594 7.594,28.125c4.968,19.875 8.656,41.625 11.281,64.406l-88.156,69.719c-59.188,11.937 -139.844,24.281 -232.65,28.125c1.209,-7.687 1.918,-13.031 1.918,-13.031c0,-0 8.544,-15.875 17.094,-57.375c5.794,-28.156 7.107,-57.406 7.325,-73.313Zm-661.825,315.438c-62.984,-6.5 -117.25,-16.125 -158.784,-25l152.862,-36.469c0,0 -3.337,30.063 5.922,61.469Zm629.385,-138.907c69.065,-2.531 131.878,-9.781 184.784,-18.249l-60.784,48.093l-17.091,-8.562l-53.719,37.844l-68.362,-25.625c-0,-0 1.215,-2.438 8.544,-13.438c2.281,-3.406 4.571,-11.094 6.628,-20.063Zm-524.572,374.844c-57.4,-0.406 -109.556,-2.875 -137.613,-9.281c-85.453,-19.531 -124.522,-43.969 -124.522,-43.969c0,0 -29.85,-63.562 -72.015,-156.031c-0.96,-9.344 -2.069,-20.875 -3.181,-34.094l4.096,-0.969c43.141,11.594 131.682,32.375 244.666,42.626c14.987,23.875 33.991,44.718 33.991,44.718c-0,0 1.218,17.094 13.428,64.688c12.203,47.625 39.065,61.062 39.065,61.062l2.085,31.25Z" style="fill:#d2ab67;"/><path d="M2280.2,2651.06l-42.522,-0l-15.872,158.39l35.91,2.757l35.915,-2.757l-13.431,-158.39Z" style="fill:#fff;"/><path d="M2258.94,2453.3c49.212,0 89.118,39.9 89.118,89.116c0,49.212 -39.906,89.119 -89.118,89.119c-49.216,-0 -89.116,-39.907 -89.116,-89.119c-0,-49.216 39.9,-89.116 89.116,-89.116Zm-0,45.669c23.993,-0 43.45,19.453 43.45,43.447c-0,23.997 -19.457,43.453 -43.45,43.453c-23.997,-0 -43.45,-19.456 -43.45,-43.453c-0,-23.994 19.453,-43.447 43.45,-43.447Z" style="fill:#ffcb05;"/><path d="M1594.38,3920.65c31.691,0 57.375,25.688 57.375,57.375c0,31.688 -25.684,57.375 -57.375,57.375c-31.687,0 -57.375,-25.687 -57.375,-57.375c0,-31.687 25.688,-57.375 57.375,-57.375Zm1329.12,0c-31.688,0 -57.375,25.688 -57.375,57.375c0,31.688 25.687,57.375 57.375,57.375c31.688,0 57.375,-25.687 57.375,-57.375c-0,-31.687 -25.687,-57.375 -57.375,-57.375Zm-493.269,-117.125l65.997,2.375c0,0 179.456,48.844 266.116,80.563c57.656,21.125 82.344,33.031 92.437,38.656c-8.5,9.656 -14.25,21.719 -16.094,35.062c-366.015,-89.187 -793.481,-89.187 -1159.49,0c-1.847,-13.343 -7.61,-25.406 -16.097,-35.062c10.081,-5.625 34.781,-17.531 92.428,-38.656c86.672,-31.719 266.125,-80.563 266.125,-80.563l49.037,-1.781c12.994,8.844 26.247,14.656 34.66,18.844c14.653,7.343 17.091,6.125 17.091,6.125c43.771,0.656 89.906,5.156 132.809,4.343c52.972,-7.406 113.15,-17.749 174.984,-29.906Z" style="fill:#ffcb05;"/><path d="M2145.41,3949.93l-58.601,81.813l0,837.219c53.029,34.437 106.41,65.437 160.041,92.781l0,-828.094c-10.078,-11.187 -27.069,-28.218 -53.225,-49.437c-48.225,-39.063 -90.337,-51.875 -90.337,-51.875c-0,-0 34.79,3.062 75.078,23.812c40.284,20.75 80.572,57.375 80.572,57.375c-0,0 40.281,-36.625 80.565,-57.375c40.288,-20.75 75.085,-23.812 75.085,-23.812c-0,-0 -42.116,12.812 -90.335,51.875c-26.156,21.219 -43.15,38.25 -53.234,49.437l-0,816.5c53.647,-28.375 107.031,-60.406 160.044,-95.875l-0,-822.531l-58.6,-81.813l-227.053,0Z" style="fill:#fff;"/><path d="M2116.22,950.891l140.384,90.337l0,457.791l-25.631,-25.638c0,0 19.534,-93.996 -2.441,-213.634c-21.975,-119.634 -124.525,-164.803 -124.525,-164.803c0,0 32.963,-63.482 12.213,-144.053Z"/><path d="M2255.4,609.075c-0,0 -38.459,-4.275 -60.125,-8.24c-21.666,-3.966 -26.55,-7.325 -26.55,-7.325c-0,-0 -66.828,36.318 -107.116,144.965c-40.287,108.65 -31.737,188 -31.737,188l81.793,-29.3l147.279,101.156l-3.544,-389.256Z"/><path d="M1966.95,1251.43c-0,0 34.181,27.707 72.025,40.957c37.844,13.25 62.262,12.047 62.262,12.047c0,-0 23.191,169.846 19.532,307.168c-3.663,137.326 -43.95,266.219 -43.95,266.219c-0,0 -19.528,-113.237 -53.71,-175.872c-34.184,-62.64 -53.718,-81.916 -53.718,-81.916c-0,0 28.078,-231.281 -2.441,-368.603Z"/><path d="M3168.5,570.707c29.844,52.887 38.281,151.805 36.438,212.574c-2.969,99.541 -29.438,206.61 -93.438,291.797c-68.844,91.619 -185.187,148.519 -294.719,180.578c6.75,-44.509 12.031,-89.072 15.656,-133.612c108.938,-33.131 254.407,-115.344 306.094,-270.341c34.219,-102.725 35.781,-206.847 29.969,-280.996Z"/><path d="M1765.64,1309.49l44.56,25.634l1.219,-140.387l-10.988,-41.51l-43.334,-18.922c-0,0 3.053,72.025 8.543,175.185Z"/><path d="M2753.25,1309.49l-44.563,25.634l-1.218,-140.387l11,-41.51l43.312,-18.922c0,0 -3.031,72.025 -8.531,175.185Z"/><path d="M1387.84,2363.04l-32.96,67.144c0,-0 80.572,196.543 336.931,262.468c115.819,29.781 242.097,43.619 345.753,49.831l17.557,-20.1c50.372,1.504 96.753,-4.543 144.69,-3.718l7.675,-58.71c-20.375,-8.934 -37.978,-23 -51.181,-40.575c-251.616,19.491 -706.362,-72.743 -768.465,-256.34Z"/><path d="M3128.41,2363.04l32.938,67.144c-126.813,309.359 -563.844,321.584 -844.925,288.481l-7.669,-58.71c20.369,-8.934 37.975,-23 51.175,-40.575c251.606,19.491 706.356,-72.743 768.481,-256.34Z"/><path d="M2259,517.922l-0,-294.312l-65.672,280.768c15.031,4.922 36.147,9.853 65.672,13.544Z"/><path d="M1945.2,2075.48c0,0 80.572,34.182 139.169,51.272c58.597,17.091 65.922,17.091 65.922,17.091l65.918,85.456l0,212.413l-63.478,-202.647c0,-0 -48.831,-46.388 -207.531,-163.585Zm627.487,0c0,0 -80.584,34.182 -139.175,51.272c-58.596,17.091 -65.924,17.091 -65.924,17.091l-65.919,85.456l-0,212.413l63.478,-202.647c-0,-0 48.831,-46.388 207.54,-163.585Z"/><path d="M2385.88,584.931c0,0 21.975,-8.543 37.847,-17.706c15.872,-9.153 18.312,-14.034 18.312,-14.034c150.528,112.518 207.088,272.543 215.56,401.643c-16.031,-0.184 -42.907,-2.509 -85.688,-11.315c-5.844,-1.203 -11.656,-2.575 -17.437,-4.072c-12.372,-122.86 -69.947,-289.075 -168.594,-354.516Z"/><path d="M2356.05,487.275l-97.05,-269.181l45.166,291.156c-0,0 44.556,-12.206 51.884,-21.975Z"/><path d="M1177.85,1858.99c-48.256,39.678 -106.678,95.049 -153.378,161.606c-97.663,139.166 -102.547,195.322 -102.547,195.322c-0,-0 126.963,26.856 231.947,68.362c104.987,41.51 124.519,73.247 124.519,73.247c-0,0 51.268,-146.487 126.959,-273.453c24.6,-41.262 44.809,-75.034 60.891,-101.847c-35.891,-20.922 -151.46,-84.719 -288.391,-123.237Z"/><path d="M3339.62,1859.1c48.25,39.672 106.594,95 153.25,161.491c97.656,139.166 102.531,195.322 102.531,195.322c0,-0 -126.937,26.856 -231.937,68.362c-104.969,41.51 -124.5,73.247 -124.5,73.247c-0,0 -51.281,-146.487 -126.969,-273.453c-24.531,-41.147 -44.687,-74.844 -60.75,-101.616c35.375,-20.656 151.125,-84.681 288.375,-123.353Z"/><path d="M2848.34,2506.47c-0,0 61.031,-15.869 131.844,-52.494c70.812,-36.622 122.093,-108.65 122.093,-108.65c0,0 -46.406,-145.272 -79.375,-228.281c-32.937,-83.016 -51.25,-108.65 -51.25,-108.65l-34.187,15.872l-6.094,65.918l-18.312,42.725c-0,0 47.593,81.797 57.375,174.572c9.75,92.779 -122.094,198.988 -122.094,198.988Z"/><path d="M1669.08,2506.47c0,0 -61.037,-15.869 -131.844,-52.494c-70.806,-36.622 -122.074,-108.65 -122.074,-108.65c-0,0 46.387,-145.272 79.349,-228.281c32.96,-83.016 51.269,-108.65 51.269,-108.65l34.185,15.872l6.103,65.918l18.312,42.725c0,0 -47.606,81.797 -57.375,174.572c-9.769,92.779 122.075,198.988 122.075,198.988Z"/><path d="M1036.72,2348.99c-0,-0 -14.65,117.194 -39.066,212.409c-24.415,95.222 -58.597,175.797 -58.597,175.797l92.779,46.391l87.893,17.087l114.753,-371.115c0,-0 -95.215,-78.128 -197.762,-80.569Z"/><path d="M3461.19,2348.99c-0,-0 14.624,117.194 39.062,212.409c24.406,95.222 58.594,175.797 58.594,175.797l-92.782,46.391l-87.906,17.087l-114.75,-371.115c0,-0 95.219,-78.128 197.782,-80.569Z"/><path d="M736.119,2783.33c-0,0 -83.132,5.85 -149.475,29.091c-66.347,23.237 -93.503,39.859 -93.503,39.859c-0,0 -4.216,100.031 33.065,200.813c10.338,27.937 28.881,59.25 50.278,89.843l91.603,14.219l-3.531,95.156c24.894,27.75 42.885,45.75 42.885,45.75c-0,0 -56.647,-247.625 28.678,-514.731Z"/><path d="M3778.28,2783.33c0,0 83.125,5.85 149.5,29.091c66.313,23.237 93.469,39.859 93.469,39.859c0,0 4.25,100.031 -33.063,200.813c-10.312,27.937 -28.875,59.25 -50.25,89.843l-91.624,14.219l3.531,95.156c-24.875,27.75 -42.875,45.75 -42.875,45.75c-0,0 56.656,-247.625 -28.688,-514.731Z"/><path d="M1758.25,3334.15c-0,0 -14.65,-52.5 -15.869,-86.687l-1.225,-34.157c0,0 -183.116,30.501 -321.059,36.626c-137.95,6.093 -336.938,-8.563 -336.938,-8.563c0,-0 7.325,70.813 37.844,126.969c30.525,56.156 52.494,79.343 52.494,79.343c-0,0 366.234,-72.031 584.753,-113.531Z"/><path d="M2813,3507.5c0,0 14.656,41.5 24.406,79.344c9.781,37.875 4.907,58.625 4.907,58.625l647,-157.5c-0,-0 9.781,-68.344 -0,-137.938c-9.75,-69.594 -37.844,-136.719 -37.844,-136.719c-0,0 -157.469,219.719 -638.469,294.188Z"/><path d="M2733.78,3347.59l522.5,-400.406c0,-0 41.5,17.065 75.688,58.562l34.187,41.531l-607.969,341.813l-24.406,-41.5Z" style="fill:#fff;"/><path d="M2123.41,587.416c0,-0 -20.143,-7.931 -34.178,-16.478c-14.04,-8.544 -17.093,-11.597 -17.093,-11.597c-0,-0 -94.61,68.362 -147.713,167.856c-43.603,81.69 -54.281,190.937 -56.709,227.422c16.478,-0.756 41.497,-3.534 78.243,-11.1c2.86,-0.588 5.704,-1.219 8.551,-1.878c1.787,-50.878 18.778,-237.053 168.899,-354.225Z" style="fill:#fff;"/><path d="M2065.39,966.209c-0,0 -78.129,25.632 -141.61,35.4c-63.478,9.773 -84.234,7.328 -84.234,7.328c-0,0 37.844,95.223 42.728,211.194c4.884,115.975 -23.194,271.016 -23.194,271.016l69.585,79.35c-0,0 6.103,-203.872 4.884,-268.575l-1.222,-64.697c0,-0 -29.3,-58.6 -36.622,-94.003c-7.328,-35.403 -4.884,-67.141 -4.884,-67.141c-0,0 68.362,-10.984 100.1,-7.325c31.74,3.66 50.053,8.544 50.053,8.544c-0,0 21.975,-47.612 24.416,-111.091Z" style="fill:#fff;"/><path d="M1416.56,641.491c0,-0 -12.662,159.715 57.085,253.109c69.747,93.4 205.509,139.419 205.509,139.419l-5.75,55.497c0,-0 -337.062,-119.113 -256.844,-448.025Z" style="fill:#fff;"/><path d="M3096.59,641.491c-0,-0 12.656,159.715 -57.094,253.109c-69.719,93.4 -205.5,139.419 -205.5,139.419l5.75,55.497c-0,-0 337.063,-119.113 256.844,-448.025Z" style="fill:#fff;"/><path d="M998.478,1853.72c0,-0 -87.897,-7.325 -117.194,-7.325l-29.3,-0c0,-0 -97.665,100.1 -156.259,198.984c-58.6,98.884 -102.547,218.519 -102.547,218.519c0,-0 64.703,-23.194 128.181,-30.519l63.485,-7.325c-0,0 14.647,-120.856 213.634,-372.334Z" style="fill:#fff;"/><path d="M3515.72,1853.72c-0,-0 87.906,-7.325 117.187,-7.325l29.281,-0c0,-0 97.688,100.1 156.282,198.984c58.594,98.884 102.531,218.519 102.531,218.519c-0,-0 -64.688,-23.194 -128.156,-30.519l-63.5,-7.325c-0,0 -14.656,-120.856 -213.625,-372.334Z" style="fill:#fff;"/><path d="M2657.59,954.834c15.062,0.175 20.531,-1.546 20.531,-1.546c-0,-0 6.094,-148.932 -89.125,-275.894c-61.084,-81.453 -104.575,-116.669 -127.916,-131.456l-12.509,12.218c145.612,112.229 200.675,269.463 209.019,396.678Z" style="fill:#fff;"/><path d="M2260.73,180.756l0,42.15l95.316,264.369c-0.669,0.882 -1.638,1.794 -2.844,2.706l6.388,18.388c21.959,-10.213 23.678,-19.603 23.678,-19.603l-122.538,-308.01Zm119.928,336.856c5.644,3.485 11.344,8.091 15.578,14.016c2.554,3.575 4.629,6.406 6.313,8.644c13.803,-8.966 19.781,-16.103 19.781,-16.103c0,-0 -3.053,-15.259 -12.209,-18.313c-9.156,-3.05 -10.981,-2.437 -10.981,-2.437c-0,-0 -7.097,6.516 -18.482,14.193Z" style="fill:#fff;"/><path d="M2406.71,917.128c-0.728,7.9 -0.753,19.559 2.632,32.925c11.809,6.003 23.993,11.6 35.843,16.778c37.938,16.569 78.422,30.516 119.125,38.185c35.032,6.597 70.688,11.15 106.278,13.106c0.407,0.022 0.782,0.047 1.188,0.066c-5.716,16.75 -10.715,33.909 -14.934,49.868c-18.188,68.879 -26.816,141.226 -23.594,212.441c2.653,57.947 7.219,117.409 17.059,174.647c2.066,11.953 4.441,25.487 7.597,38.256c-11.472,11.794 -22.719,23.96 -33.718,36.053c-31.813,34.988 -62.563,71.556 -90.485,109.735c-10.531,14.403 -20.775,29.194 -30.369,44.362c-2.734,12.025 -5.747,28.081 -6.962,44.435c-0.763,10.374 -0.691,19.293 -0.222,26.653c3.838,-8.529 7.931,-16.872 12.287,-24.941c57.375,-106.206 180.657,-228.287 180.657,-228.287c-0,-0 -20.75,-61.035 -28.063,-222.179c-7.312,-161.14 51.25,-288.1 51.25,-288.1c0,0 -58.562,2.441 -142.812,-13.431c-79.241,-14.931 -154.157,-55.781 -162.757,-60.572Z" style="fill:#fff;"/><path d="M823.931,2392.09c0,-0 -57.378,8.537 -95.222,26.85l-37.843,18.315l-69.588,244.16c0,-0 52.5,-20.76 96.447,-19.538c43.947,1.216 45.166,1.216 45.166,1.216l61.04,-271.003Z" style="fill:#fff;"/><path d="M3695.19,2392.09c-0,-0 57.375,8.537 95.218,26.85l37.844,18.315l69.594,244.16c-0,-0 -52.5,-20.76 -96.438,-19.538c-43.969,1.216 -45.187,1.216 -45.187,1.216l-61.031,-271.003Z" style="fill:#fff;"/><path d="M1743.68,3045.78l-480.397,-155.843c-59.559,30.374 -85.496,75.406 -111.346,128.5l577.812,97.156c0.7,-5.5 0.525,-4.719 2.466,-17.907c1.937,-13.187 6.99,-37.187 11.465,-51.906Z" style="fill:#fff;"/><path d="M1951.61,2997.25l112.316,-153.812l102.544,31.749l207.531,19.532l-4.878,124.531l-417.513,-22Z" style="fill:#fff;"/><path d="M2582.75,3434.31l-97.656,-41.532c-0,0 -90.341,13.438 -167.25,12.219c-76.903,-1.219 -191.657,-6.094 -191.657,-6.094c0,0 -9.768,39.063 -2.443,79.344c7.328,40.281 14.65,50.062 14.65,50.062c-0,0 260.022,-39.093 444.356,-93.999Z" style="fill:#fff;"/></svg>