<?xml version="1.0" encoding="UTF-8" standalone="no"?><!DOCTYPE svg PUBLIC "-//W3C//DTD SVG 1.1//EN" "http://www.w3.org/Graphics/SVG/1.1/DTD/svg11.dtd"><svg width="100%" height="100%" viewBox="0 0 8008 3246" version="1.1" xmlns="http://www.w3.org/2000/svg" xmlns:xlink="http://www.w3.org/1999/xlink" xml:space="preserve" xmlns:serif="http://www.serif.com/" style="fill-rule:evenodd;clip-rule:evenodd;stroke-linejoin:round;stroke-miterlimit:2;"><path d="M4783.86,445.052l-781.511,-445.052l-778.776,445.052l1560.29,0Z" style="fill:#1e2023;fill-rule:nonzero;"/><path d="M1563.02,970.703l-781.51,-444.921l-781.511,444.921l1563.02,0Z" style="fill:#1e2023;fill-rule:nonzero;"/><path d="M8007.42,970.703l-781.51,-444.921l-781.638,444.921l1563.15,0Z" style="fill:#1e2023;fill-rule:nonzero;"/><path d="M3154.04,1073.7l-197.525,58.334l0,-225.261l-133.463,38.933l-0,225.26c-64.062,19.531 -130.73,38.932 -197.525,58.463l-0,-225.26l-130.73,38.932l-0,225.261c-66.799,19.401 -133.464,38.932 -200.262,58.333l-0,-225.26l-130.73,38.932l0,222.526c-66.795,19.531 -133.463,38.932 -200.259,58.464l0,-222.526l-130.729,36.198l-0,225.26l-200.259,58.333l-0,-225.26l-158.466,47.265l0,1905.21l1841.15,-539.584l-0,-1905.21l-161.2,47.266l0,225.39Z" style="fill:#1e2023;fill-rule:nonzero;"/><path d="M6377.61,1518.62l-200.259,-58.333l-0,-225.26l-130.73,-36.198l0,222.526c-66.798,-19.532 -133.594,-38.933 -200.262,-58.464l0,-222.526l-130.73,-38.932l0,225.26c-66.795,-19.401 -133.593,-38.932 -200.258,-58.333l-0,-225.261l-130.73,-38.932l-0,225.26c-66.795,-19.531 -133.464,-38.932 -200.259,-58.463l0,-225.26l-130.73,-38.933l0,225.261l-197.528,-58.334l0,-225.39l-161.327,-47.266l0,1905.21l1841.28,539.584l0,-1905.21l-158.462,-47.265l-0,225.26Z" style="fill:#1e2023;fill-rule:nonzero;"/><path d="M7773.83,2264.06l-1093.1,-0l0,-102.865l1093.1,0l-0,102.865Zm-77.865,542.318l-155.859,-0l0,-186.329c0,-41.666 36.198,-75.13 77.995,-75.13c41.666,0 77.864,33.464 77.864,75.13l0,186.329Zm-392.189,-0l-152.995,-0l0,-186.329c0,-41.666 33.334,-75.13 77.868,-75.13c41.666,0 75.127,33.464 75.127,75.13l0,186.329Zm-389.452,-0l-155.728,-0l-0,-186.329c-0,-41.666 36.198,-75.13 77.864,-75.13c44.53,0 77.864,33.464 77.864,75.13l0,186.329Zm-155.728,-1198.7c-0,-44.532 36.198,-77.865 77.864,-77.865c44.53,-0 77.864,33.333 77.864,77.865l0,186.328l-155.728,-0l-0,-186.328Zm392.185,-0c0,-44.532 33.334,-77.865 77.868,-77.865c41.666,-0 75.127,33.333 75.127,77.865l0,186.328l-152.995,-0l0,-186.328Zm389.325,-0c0,-44.532 36.198,-77.865 77.995,-77.865c41.666,-0 77.864,33.333 77.864,77.865l0,186.328l-155.859,-0l0,-186.328Zm191.927,-381.12l-144.532,-0l-0,-197.396l-144.66,0l-0,197.396l-141.929,-0l-0,-197.396l-147.394,0l0,197.396l-141.798,-0l-0,-197.396l-144.66,0l0,197.396l-144.663,-0l0,-197.396l-130.729,0l-0,2216.67l1271.1,-0l-0,-2216.67l-130.73,0l0,197.396Z" style="fill:#1e2023;fill-rule:nonzero;"/><path d="M4550.26,1738.41l-1093.1,-0l-0,-105.73l1093.1,0l-0,105.73Zm-77.864,542.318l-155.859,-0l-0,-186.328c-0,-41.667 36.198,-77.865 77.864,-77.865c44.533,-0 77.995,36.198 77.995,77.865l-0,186.328Zm-389.452,-0l-155.729,-0l-0,-186.328c-0,-41.667 36.068,-77.865 77.864,-77.865c41.666,-0 77.865,36.198 77.865,77.865l-0,186.328Zm-389.322,-0l-155.862,-0l-0,-186.328c-0,-41.667 33.464,-77.865 77.864,-77.865c41.8,-0 77.998,36.198 77.998,77.865l-0,186.328Zm-155.862,-1201.56c-0,-41.667 33.464,-77.865 77.864,-77.865c41.8,0 77.998,36.198 77.998,77.865l-0,186.328l-155.862,0l-0,-186.328Zm389.455,0c-0,-41.667 36.068,-77.865 77.864,-77.865c41.666,0 77.865,36.198 77.865,77.865l-0,186.328l-155.729,0l-0,-186.328Zm389.322,0c-0,-41.667 36.198,-77.865 77.864,-77.865c44.533,0 77.995,36.198 77.995,77.865l-0,186.328l-155.859,0l-0,-186.328Zm191.927,-378.255l-141.796,-0l0,-197.396l-144.663,-0l0,197.396l-144.659,-0l-0,-197.396l-144.533,-0l0,197.396l-144.663,-0l0,-197.396l-144.66,-0l0,197.396l-141.798,-0l-0,-197.396l-130.727,-0l0,2213.93l1268.23,0l0,-2213.93l-130.729,-0l-0,197.396Z" style="fill:#1e2023;fill-rule:nonzero;"/><path d="M1329.43,2264.06l-1093.1,-0l0,-102.865l1093.1,0l0,102.865Zm-77.864,542.318l-155.729,-0l0,-186.329c0,-41.666 33.331,-75.13 77.865,-75.13c41.666,0 77.864,33.464 77.864,75.13l0,186.329Zm-392.189,-0l-152.995,-0l0,-186.329c0,-41.666 33.334,-75.13 75.131,-75.13c44.53,0 77.864,33.464 77.864,75.13l0,186.329Zm-389.452,-0l-155.729,-0l0,-186.329c0,-41.666 36.199,-75.13 77.865,-75.13c41.796,0 77.864,33.464 77.864,75.13l0,186.329Zm-155.729,-1198.7c0,-44.532 36.199,-77.865 77.865,-77.865c41.796,-0 77.864,33.333 77.864,77.865l0,186.328l-155.729,-0l0,-186.328Zm392.186,-0c0,-44.532 33.334,-77.865 75.131,-77.865c44.53,-0 77.864,33.333 77.864,77.865l0,186.328l-152.995,-0l0,-186.328Zm389.455,-0c0,-44.532 33.331,-77.865 77.865,-77.865c41.666,-0 77.864,33.333 77.864,77.865l0,186.328l-155.729,-0l0,-186.328Zm191.797,-381.12l-144.533,-0l0,-197.396l-144.662,0l-0,197.396l-141.796,-0l0,-197.396l-147.397,0l0,197.396l-141.925,-0l-0,-197.396l-144.663,0l-0,197.396l-144.53,-0l0,-197.396l-130.729,0l-0,2216.67l1270.96,-0l0,-2216.67l-130.726,0l-0,197.396Z" style="fill:#1e2023;fill-rule:nonzero;"/></svg>