<?xml version="1.0" encoding="UTF-8" standalone="no"?><!DOCTYPE svg PUBLIC "-//W3C//DTD SVG 1.1//EN" "http://www.w3.org/Graphics/SVG/1.1/DTD/svg11.dtd"><svg width="100%" height="100%" viewBox="0 0 1508 2151" version="1.1" xmlns="http://www.w3.org/2000/svg" xmlns:xlink="http://www.w3.org/1999/xlink" xml:space="preserve" xmlns:serif="http://www.serif.com/" style="fill-rule:evenodd;clip-rule:evenodd;stroke-linejoin:round;stroke-miterlimit:2;"><path d="M1202.11,826.171c-8.157,1.385 -16.407,2.719 -24.719,4.019c-8.344,1.306 -16.75,2.578 -25.281,3.803c-6.188,0.888 -12.438,1.753 -18.719,2.597c-2.188,0.297 -4.375,0.585 -6.563,0.866c0.125,2.35 0.25,4.7 0.344,7.056c0.281,7.244 0.469,14.503 0.469,21.775c-0,103.578 -30.5,218.26 -83.657,314.638c-45.968,83.29 -104.749,146.968 -168.406,183.256c-12.062,6.878 -24.319,12.781 -36.684,17.64c-55.947,22.138 -114.435,22.157 -170.491,-0.021c-12.347,-4.853 -24.565,-10.747 -36.612,-17.61c-63.663,-36.272 -122.463,-99.959 -168.413,-183.265c-53.162,-96.378 -83.653,-211.06 -83.653,-314.638c0,-7.275 0.169,-14.531 0.463,-21.775c0.093,-2.356 0.215,-4.706 0.346,-7.056c-2.193,-0.284 -4.387,-0.572 -6.565,-0.869c-6.285,-0.844 -12.535,-1.706 -18.725,-2.597c-8.519,-1.222 -16.925,-2.494 -25.263,-3.8c-8.331,-1.303 -16.594,-2.634 -24.734,-4.019c-106.797,35.125 -161.15,93.544 -247.713,213.644c302.782,81.569 587.097,649.257 696.144,1110.66c109.056,-461.399 393.431,-1029.09 696.15,-1110.66c-86.562,-120.1 -140.937,-178.519 -247.718,-213.644Z" style="fill-rule:nonzero;"/><path d="M497.041,1027.44c7.231,1.416 14.9,2.425 23.065,2.984c89.71,6.188 203.053,-41.05 207.472,-105.031c1.678,-24.3 -5.731,-46.416 -21.125,-65.468c-103.394,-1.482 -202.997,-7.804 -294.253,-18.526c-3.822,10.622 -6.091,22.907 -6.819,36.797c-0.39,7.485 -0.353,15.416 0.16,23.835c4.537,74.462 33.043,113.99 91.5,125.409Z" style="fill-rule:nonzero;"/><path d="M971.109,1030.97c5.438,0 10.841,-0.175 16.157,-0.547c8.156,-0.559 15.812,-1.568 23.062,-2.984c58.438,-11.419 86.938,-50.944 91.469,-125.409c0.531,-8.419 0.562,-16.353 0.187,-23.838c-0.75,-13.89 -2.999,-26.172 -6.843,-36.794c-91.25,10.722 -190.844,17.044 -294.241,18.526c-15.394,19.052 -22.803,41.165 -21.122,65.468c4.156,60.194 104.738,105.572 191.331,105.578Z" style="fill-rule:nonzero;"/><path d="M1295.52,543.456c-39.282,-9.413 -82.094,-17.675 -127.75,-24.725c30.875,38.847 62.781,69.2 93.719,88.047c6.093,3.728 9.468,10.7 8.562,17.803c-0.906,7.106 -5.906,13.015 -12.75,15.1c-35.688,10.869 -73.875,20.481 -114,28.794c-8.344,1.728 -16.75,3.39 -25.219,5.003c-8.469,1.603 -17,3.147 -25.594,4.631c-104.937,18.184 -220.75,27.856 -338.806,27.856c-118.069,0 -233.884,-9.675 -338.822,-27.856c-8.597,-1.484 -17.128,-3.028 -25.572,-4.631c-8.49,-1.613 -16.9,-3.275 -25.225,-5.007c-40.118,-8.309 -78.312,-17.921 -114.009,-28.79c-6.85,-2.085 -11.837,-7.994 -12.741,-15.1c-0.9,-7.1 2.46,-14.075 8.572,-17.803c30.913,-18.847 62.835,-49.2 93.688,-88.044c-45.628,7.047 -88.463,15.309 -127.728,24.722c-156.188,37.469 -211.841,82.8 -211.841,112.741c0,29.937 55.653,75.271 211.841,112.74c37.534,9 78.321,16.941 121.696,23.778c8.297,1.313 16.675,2.581 25.16,3.813c8.312,1.2 16.728,2.356 25.212,3.475c10.163,1.347 20.438,2.637 30.832,3.859c3.6,0.428 7.197,0.859 10.825,1.272c3.993,0.45 8.021,0.887 12.047,1.325c68.884,7.469 142.34,12.456 218.443,14.753c6.21,0.191 12.438,0.356 18.685,0.506c5.403,0.135 10.825,0.247 16.25,0.353c20.743,0.401 41.643,0.613 62.687,0.613c21.044,0 41.947,-0.212 62.685,-0.613c5.431,-0.106 10.85,-0.218 16.256,-0.353c6.244,-0.15 12.472,-0.315 18.684,-0.506c76.088,-2.297 149.556,-7.284 218.432,-14.753c4.031,-0.438 8.062,-0.875 12.062,-1.325c3.625,-0.413 7.219,-0.844 10.812,-1.272c10.407,-1.222 20.688,-2.512 30.844,-3.859c8.469,-1.119 16.875,-2.275 25.188,-3.475c8.5,-1.232 16.875,-2.5 25.187,-3.813c43.375,-6.837 84.157,-14.778 121.688,-23.778c156.187,-37.469 211.843,-82.803 211.843,-112.74c0,-29.941 -55.656,-75.272 -211.843,-112.741Z" style="fill-rule:nonzero;"/><path d="M296.513,615.171c26.106,7.013 53.396,13.379 81.646,19.097c8.463,1.713 17.007,3.363 25.641,4.963c8.637,1.593 17.359,3.134 26.156,4.603c100.475,16.841 210.985,25.784 323.722,25.784c112.744,0 223.244,-8.94 323.713,-25.784c8.781,-1.469 17.531,-3.01 26.156,-4.603c8.625,-1.6 17.187,-3.25 25.656,-4.963c28.25,-5.718 55.531,-12.084 81.625,-19.097c-31.594,-25.8 -63.406,-61.2 -93.562,-103.6c-4.782,-6.712 -9.532,-13.6 -14.219,-20.659c-4.437,-6.706 -8.844,-13.547 -13.188,-20.537c-29.968,-48.082 -57.594,-102.816 -80.812,-161.388c-21.375,-53.712 -38,-107.684 -49.378,-160.397c-4.313,-19.906 -7.875,-39.672 -10.563,-58.744c-4.059,-28.665 -19.34,-53.706 -43.059,-70.509c-23.781,-16.822 -52.519,-22.959 -80.966,-17.266c-29.312,5.872 -58.878,8.991 -87.868,9.285c-19.894,0.194 -40.072,-1.041 -59.988,-3.672c-58.575,-7.706 -111.278,31.391 -119.984,89.05c-2.547,16.894 -5.766,34.344 -9.56,51.872c-11.39,52.718 -27.997,106.687 -49.365,160.4c-23.241,58.562 -50.847,113.294 -80.803,161.369c-4.36,6.99 -8.766,13.831 -13.219,20.537c-4.688,7.059 -9.428,13.947 -14.206,20.659c-30.157,42.4 -61.95,77.8 -93.575,103.6Z" style="fill-rule:nonzero;"/></svg>