<?xml version="1.0" encoding="UTF-8" standalone="no"?><!DOCTYPE svg PUBLIC "-//W3C//DTD SVG 1.1//EN" "http://www.w3.org/Graphics/SVG/1.1/DTD/svg11.dtd"><svg width="100%" height="100%" viewBox="0 0 1250 1250" version="1.1" xmlns="http://www.w3.org/2000/svg" xmlns:xlink="http://www.w3.org/1999/xlink" xml:space="preserve" xmlns:serif="http://www.serif.com/" style="fill-rule:evenodd;clip-rule:evenodd;stroke-linejoin:round;stroke-miterlimit:2;"><path d="M614.769,398.37c-7.49,0 -14.617,2.961 -19.986,8.388c-6.248,6.326 -9.185,15.054 -8.052,23.961c1.574,12.663 11.778,23.002 24.267,24.618l0.007,0c8.796,1.142 17.423,-1.826 23.671,-8.14c6.263,-6.329 9.211,-15.08 8.09,-24.014c-1.593,-12.624 -11.813,-22.96 -24.294,-24.572c-1.242,-0.157 -2.48,-0.241 -3.703,-0.241Zm-0.011,79.404c-2.171,0 -4.353,-0.141 -6.546,-0.428c-22.255,-2.876 -40.436,-21.306 -43.238,-43.827c-1.997,-15.748 3.213,-31.23 14.305,-42.448c11.087,-11.218 26.392,-16.49 41.976,-14.469c22.228,2.872 40.424,21.287 43.263,43.781c1.986,15.806 -3.242,31.299 -14.345,42.517c-9.529,9.63 -22.164,14.874 -35.415,14.874Z" style="fill-rule:nonzero;"/><path d="M776.041,328.462c-7.267,0 -14.549,2.812 -20.091,8.434c-5.354,5.424 -8.302,12.621 -8.31,20.264c-0.003,7.628 2.922,14.793 8.249,20.168c11.001,11.104 28.922,11.046 39.96,-0.142c5.346,-5.424 8.298,-12.624 8.306,-20.267c0.007,-7.628 -2.922,-14.79 -8.245,-20.164c-5.478,-5.531 -12.666,-8.293 -19.869,-8.293Zm-0.287,79.335c-12.813,0 -25.614,-4.916 -35.362,-14.763c-9.479,-9.572 -14.697,-22.318 -14.685,-35.89c0.011,-13.556 5.236,-26.313 14.715,-35.924c19.578,-19.843 51.418,-19.923 70.977,-0.172c9.476,9.573 14.693,22.319 14.682,35.89c-0.011,13.556 -5.236,26.314 -14.716,35.924c-9.815,9.955 -22.719,14.935 -35.611,14.935Z" style="fill-rule:nonzero;"/><path d="M965.348,498.851l173.737,0c1.782,-117.024 31.787,-163.528 56.043,-201.114c18.4,-28.522 32.938,-51.051 32.938,-97.619c0,-98.112 -78.886,-177.931 -175.852,-177.931c-96.939,0 -175.825,79.819 -175.855,177.934c-0,46.562 14.538,69.083 32.942,97.604c24.252,37.582 54.261,84.087 56.047,201.126Zm184.617,22.189l-195.501,-0c-6.06,-0 -10.967,-4.966 -10.967,-11.097c-0,-118.643 -27.921,-161.912 -52.562,-200.086c-18.774,-29.095 -36.506,-56.572 -36.506,-109.739c0.034,-110.348 88.754,-200.118 197.785,-200.118c109.058,0 197.786,89.773 197.786,200.118c0,53.167 -17.736,80.656 -36.506,109.75c-24.637,38.182 -52.562,81.455 -52.562,200.079c0,6.127 -4.911,11.093 -10.967,11.093Z" style="fill-rule:nonzero;"/><path d="M1052.21,521.013c-6.059,-0 -10.966,-4.97 -10.966,-11.096l-0,-272.844c-0,-6.128 4.907,-11.095 10.966,-11.095c6.056,-0 10.964,4.967 10.964,11.095l-0,272.844c-0,6.126 -4.908,11.096 -10.964,11.096Z" style="fill-rule:nonzero;"/><path d="M950.322,521.013c-3.624,-0 -6.682,3.098 -6.682,6.761l0,6.73c0,3.663 3.058,6.761 6.682,6.761l203.785,-0c3.624,-0 6.682,-3.098 6.682,-6.761l-0,-6.73c-0,-3.667 -3.062,-6.761 -6.682,-6.761l-203.785,-0Zm203.785,42.444l-203.785,0c-15.776,0 -28.616,-12.987 -28.616,-28.953l0,-6.73c0,-15.967 12.84,-28.954 28.616,-28.954l203.785,0c15.772,0 28.612,12.987 28.612,28.954l-0,6.73c-0,15.966 -12.836,28.953 -28.612,28.953Z" style="fill-rule:nonzero;"/><path d="M966.284,563.457l-0,13.491c-0.004,1.803 0.691,3.48 1.959,4.763c1.265,1.288 2.937,1.998 4.7,1.998l158.577,0c3.624,0 6.682,-3.098 6.682,-6.761l-0,-13.491l-171.918,0Zm165.232,42.445l-158.577,-0c-7.629,-0 -14.813,-3.026 -20.231,-8.522c-5.41,-5.489 -8.377,-12.758 -8.354,-20.462l-0,-24.557c-0,-6.127 4.907,-11.096 10.967,-11.096l193.844,-0c6.055,-0 10.967,4.969 10.967,11.096l-0,24.587c-0,15.967 -12.84,28.954 -28.616,28.954Z" style="fill-rule:nonzero;"/><path d="M1003.18,605.902l0,13.495c0,3.663 3.058,6.76 6.682,6.76l84.731,0c3.624,0 6.682,-3.097 6.682,-6.76l-0,-13.495l-98.095,-0Zm91.409,42.444l-84.727,-0c-15.776,-0 -28.615,-12.987 -28.615,-28.949l-0,-24.592c-0,-6.126 4.911,-11.096 10.966,-11.096l120.025,0c6.059,0 10.967,4.97 10.967,11.096l-0,24.592c-0,15.962 -12.836,28.949 -28.616,28.949Z" style="fill-rule:nonzero;"/><path d="M1049.73,225.784c4.674,0.783 9.234,-0.688 12.534,-4.031c3.284,-3.331 4.723,-7.937 3.949,-12.632c-0.978,-5.903 -5.727,-10.711 -11.556,-11.696c-4.666,-0.783 -9.231,0.688 -12.534,4.034c-3.284,3.331 -4.723,7.934 -3.945,12.629c0.974,5.897 5.723,10.705 11.552,11.696Zm2.548,22.404c-2.034,0 -4.088,-0.17 -6.149,-0.517c-0.004,0 -0.012,0 -0.015,-0.003c-14.92,-2.531 -27.072,-14.834 -29.564,-29.919c-1.963,-11.847 1.699,-23.502 10.053,-31.971c8.374,-8.483 19.918,-12.219 31.659,-10.243c15.165,2.563 27.049,14.586 29.579,29.92c1.963,11.852 -1.703,23.507 -10.057,31.976c-6.898,6.993 -15.958,10.757 -25.506,10.757Z" style="fill-rule:nonzero;"/><path d="M1052.21,156.055c-6.059,-0 -10.966,-4.967 -10.966,-11.095l-0,-25.282c-0,-6.129 4.907,-11.095 10.966,-11.095c6.056,-0 10.964,4.966 10.964,11.095l-0,25.282c-0,6.125 -4.908,11.095 -10.964,11.095Z" style="fill-rule:nonzero;"/><path d="M1098.79,175.587c-2.805,0 -5.61,-1.083 -7.751,-3.25c-4.284,-4.335 -4.284,-11.359 -0.003,-15.692l17.671,-17.886c4.285,-4.331 11.228,-4.334 15.513,0c4.281,4.334 4.281,11.358 -0,15.692l-17.672,17.886c-2.144,2.167 -4.949,3.25 -7.758,3.25Z" style="fill-rule:nonzero;"/><path d="M1143.05,222.684l-24.988,-0c-6.055,-0 -10.963,-4.967 -10.963,-11.095c-0,-6.128 4.908,-11.096 10.963,-11.096l24.988,0c6.059,0 10.967,4.968 10.967,11.096c-0,6.128 -4.908,11.095 -10.967,11.095Z" style="fill-rule:nonzero;"/><path d="M986.39,222.684l-25.018,-0c-6.055,-0 -10.963,-4.967 -10.963,-11.095c0,-6.128 4.908,-11.096 10.963,-11.096l25.018,0c6.056,0 10.964,4.968 10.964,11.096c-0,6.128 -4.908,11.095 -10.964,11.095Z" style="fill-rule:nonzero;"/><path d="M1005.67,175.587c-2.805,0 -5.613,-1.083 -7.758,-3.25l-17.671,-17.886c-4.281,-4.334 -4.281,-11.358 -0,-15.692c4.281,-4.331 11.227,-4.331 15.512,0l17.672,17.886c4.281,4.333 4.281,11.357 -0.004,15.692c-2.137,2.167 -4.946,3.25 -7.751,3.25Z" style="fill-rule:nonzero;"/><path d="M137.131,1250c-6.057,0 -10.966,-4.966 -10.966,-11.096l0,-188.154c0,-6.131 4.909,-11.096 10.966,-11.096c6.057,-0 10.966,4.965 10.966,11.096l-0,188.154c-0,6.13 -4.909,11.096 -10.966,11.096Z" style="fill-rule:nonzero;"/><path d="M524.308,1250c-6.059,0 -10.967,-4.966 -10.967,-11.096l0,-188.154c0,-6.131 4.908,-11.096 10.967,-11.096c6.056,-0 10.967,4.965 10.967,11.096l0,188.154c0,6.13 -4.911,11.096 -10.967,11.096Z" style="fill-rule:nonzero;"/><path d="M21.932,1227.78l617.576,-0l-0,-177.062c-0,-97.631 -78.505,-177.061 -174.999,-177.061l-29.994,-0c-8.301,50.637 -52.037,88.937 -103.764,88.937c-51.728,0 -95.464,-38.3 -103.765,-88.937l-30.028,-0c-96.509,-0 -175.026,79.43 -175.026,177.061l-0,177.062Zm628.539,22.188l-639.505,0c-6.057,0 -10.966,-4.965 -10.966,-11.092l-0,-188.158c-0,-109.865 88.352,-199.25 196.958,-199.25l39.78,0c5.774,0 10.561,4.53 10.943,10.363c2.887,44.056 39.375,78.571 83.066,78.571c43.694,-0 80.185,-34.515 83.069,-78.571c0.381,-5.833 5.168,-10.363 10.941,-10.363l39.752,0c108.59,0 196.929,89.385 196.929,199.25l-0,188.158c-0,6.127 -4.908,11.092 -10.967,11.092Z" style="fill-rule:nonzero;"/><path d="M236.738,873.658c-6.057,-0 -10.966,-4.966 -10.966,-11.093l0,-63.914c0,-6.127 4.909,-11.097 10.966,-11.097c6.057,0 10.966,4.97 10.966,11.097l-0,63.914c-0,6.127 -4.909,11.093 -10.966,11.093Z" style="fill-rule:nonzero;"/><path d="M424.73,873.658c-6.059,-0 -10.967,-4.966 -10.967,-11.093l0,-72.814c0,-6.127 4.908,-11.093 10.967,-11.093c6.056,0 10.963,4.966 10.963,11.093l0,72.814c0,6.127 -4.907,11.093 -10.963,11.093Z" style="fill-rule:nonzero;"/><path d="M330.747,870.973c-1.57,-0 -3.145,-0.34 -4.606,-1.024c-133.027,-62.288 -172.604,-154.659 -182.382,-221.183c-0.891,-6.062 3.244,-11.707 9.233,-12.605c5.996,-0.894 11.568,3.281 12.459,9.343c8.864,60.301 44.769,143.903 164.964,201.958c112.055,-61.852 145.178,-143.696 153.129,-201.851c0.83,-6.066 6.384,-10.298 12.363,-9.465c5.999,0.836 10.19,6.44 9.363,12.509c-8.762,64.106 -45.265,154.491 -169.389,221.03c-1.604,0.852 -3.367,1.288 -5.134,1.288Z" style="fill-rule:nonzero;"/><path d="M446.09,530.402c0.884,-0 1.775,0.107 2.647,0.328c3.22,0.81 5.908,3.056 7.305,6.108l36.245,79.243c3.519,-14.744 6.928,-34.423 7.233,-56.123c0.846,-59.942 -21.303,-106.565 -65.835,-138.57c-47.246,-33.953 -141.264,-45.023 -191.667,-8.411c-27.443,19.946 -44.36,27.666 -79.003,11.803c-1.388,2.849 -2.996,6.459 -4.657,10.828c-10.472,27.609 -23.354,85.626 -1.369,178.009c0.286,-0.737 0.572,-1.474 0.86,-2.215c14.987,-38.629 31.97,-82.414 83.156,-85.458c40.993,-2.429 62.157,4.454 96.975,21.879c27.295,13.663 72.816,6.864 101.477,-15.16c1.926,-1.482 4.262,-2.261 6.633,-2.261Zm-291.448,127.825c-0.325,0 -0.654,-0.015 -0.979,-0.045c-4.461,-0.401 -8.228,-3.507 -9.521,-7.842c-34.757,-116.474 -18.837,-189.522 -6.251,-222.703c5.828,-15.294 11.194,-23.048 11.785,-23.885c3.184,-4.48 9.144,-5.916 13.982,-3.357c32.186,17.02 40.768,12.582 65.57,-5.447c58.505,-42.498 162.904,-30.642 217.16,8.346c50.244,36.111 76.199,90.649 75.051,157.719c-0.849,49.827 -16.214,88.662 -16.871,90.293c-1.642,4.091 -5.531,6.811 -9.899,6.918c-4.288,0.126 -8.377,-2.422 -10.212,-6.437l-42.957,-93.918c-31.757,18.686 -78.958,27.001 -113.241,9.836c-33.138,-16.582 -50.202,-21.742 -85.964,-19.614c-37.184,2.211 -50.221,35.824 -64.028,71.412c-4.275,11.024 -8.695,22.418 -13.858,32.666c-1.888,3.74 -5.675,6.058 -9.767,6.058Z" style="fill-rule:nonzero;"/></svg>