<?xml version="1.0" encoding="UTF-8" standalone="no"?><!DOCTYPE svg PUBLIC "-//W3C//DTD SVG 1.1//EN" "http://www.w3.org/Graphics/SVG/1.1/DTD/svg11.dtd"><svg width="100%" height="100%" viewBox="0 0 235 157" version="1.1" xmlns="http://www.w3.org/2000/svg" xmlns:xlink="http://www.w3.org/1999/xlink" xml:space="preserve" xmlns:serif="http://www.serif.com/" style="fill-rule:evenodd;clip-rule:evenodd;stroke-linejoin:round;stroke-miterlimit:2;"><path d="M127.324,14.605c6.721,-2.986 17.092,-4.579 28.328,4.795l3.219,-4.136c-10.317,-8.608 -22.24,-10.576 -33.57,-5.54c-11.433,5.081 -20.699,17.082 -21.555,27.915l5.114,0.433c0.614,-7.774 7.688,-18.677 18.464,-23.467l0,0Zm-29.824,24.699c3.206,-1.811 2.049,-7.907 0.029,-9.658l-1.175,0.996c0,-0 2.246,6.253 1.146,8.662Zm-2.449,0.604c3.44,-0.362 1.107,-6.64 0.641,-9.296c0,0 -5.131,-1.932 -5.889,-1.207c-0.757,0.724 0,7.123 0,7.123c0.525,2.655 1.808,3.742 5.248,3.38Zm-8.746,-4.709c3.965,-3.319 2.916,-8.39 -1.458,-10.08c-3.184,-1.231 -8.162,3.441 -8.22,7.606c-0.059,4.165 5.714,5.794 9.678,2.474Zm32.962,42.504l-0.37,-0.299c-0.699,-0.564 -1.203,-1.506 -1.576,-2.466c-0.376,-0.97 -0.672,-1.993 -0.907,-3.032c-0.249,-1.038 -0.43,-2.096 -0.615,-3.156c-0.177,-1.062 -0.31,-2.132 -0.439,-3.207c-0.042,1.084 0.002,2.168 0.062,3.252c0.059,1.085 0.187,2.167 0.357,3.246c0.189,1.074 0.412,2.152 0.786,3.199c0.09,0.263 0.196,0.522 0.305,0.78c0.113,0.258 0.238,0.511 0.376,0.761c0.143,0.249 0.299,0.492 0.478,0.726c0.072,0.091 0.152,0.178 0.232,0.263c-0.136,0.099 -0.297,0.197 -0.454,0.282c-0.317,0.168 -0.649,0.327 -0.991,0.471c-0.683,0.289 -1.383,0.562 -2.092,0.813c-1.419,0.497 -2.857,0.966 -4.302,1.415l-4.34,1.351c-0.726,0.22 -1.445,0.465 -2.169,0.695c-0.723,0.231 -1.447,0.465 -2.163,0.724c0.747,-0.138 1.49,-0.285 2.233,-0.439c0.742,-0.154 1.489,-0.294 2.227,-0.465c1.482,-0.325 2.956,-0.686 4.427,-1.071c1.467,-0.399 2.932,-0.812 4.379,-1.315c0.723,-0.252 1.448,-0.507 2.16,-0.824c0.357,-0.154 0.71,-0.328 1.064,-0.522c0.351,-0.211 0.704,-0.395 1.055,-0.834l0.277,-0.348Zm-27.716,17.815l10.461,-16.516c-1.114,0.202 -3.773,0.825 -5.119,2.323c-1.38,1.534 -4.201,10.456 -5.342,14.193Zm80.015,-2.45c2.466,1.63 4.209,2.712 5.048,3.172c-1.158,3.306 -6.592,6.492 -8.119,4.555c0.509,-3.65 -1.672,-5.622 -1.672,-5.622c0,0 -1.943,0.712 -2.935,-1.848c-1.864,-4.809 -7.254,-8.778 -11.708,-7.463c-1.559,0.461 -3.535,1.077 -5.564,1.655l0.617,0.141c1.332,0.353 3.887,3.801 4.354,4.364c0.466,0.563 -0.039,2.938 -0.039,2.938c0,-0 -4.832,2.214 -6.54,5.506c-0.893,1.724 -5.16,4.796 -5.16,4.796c0,-0 -2.293,1.691 -2.41,3.139c-1.47,1.545 -3.116,2.572 -4.431,2.616c-2.41,0.08 -2.124,-6.965 -1.594,-7.847c1.721,-0.628 6.997,1.548 7.774,-0.061c0.239,-0.495 0.524,-0.227 0.311,-1.509c-0.307,-1.854 2.605,-2.616 4.626,-5.111c0.836,-1.032 1.632,-3.717 1.788,-4.056c0.155,-0.339 -12.672,-2.504 -12.672,-2.504c-0,0 -1.939,-2.261 -3.265,-1.85c-0,-0 0.848,-1.957 0.021,-3.548c-0.567,-0.324 -1.011,-0.561 -1.279,-0.68l0.675,2.454c0,-0 -2.604,8.969 -20.639,10.627c-7.021,0.645 -12.74,1.863 -17.362,3.307c0.423,0.745 0.778,1.367 0.778,1.367l-2.211,1.14l-4.667,-0.227c-0.289,0.129 -0.573,0.258 -0.85,0.386c-9.79,7.309 -18.274,16.756 -18.453,20.15c-0.221,4.212 4.735,12.408 7.916,14.399c3.18,1.991 10.43,6.069 6.435,8.883c-3.994,2.814 -6.747,0.949 -7.579,0.777c-0.833,-0.172 0.077,-5.011 -0.7,-6.619c-0.776,-1.609 -1.672,-2.476 -4.218,-1.333c2.737,-9.419 -10.501,-12.732 -6.951,-18.246c1.161,-1.803 0.741,-3.082 1.128,-4.489c-8.888,5.544 -16.471,10.995 -16.624,13.905c-0.233,4.427 4.976,13.04 8.318,15.133c3.343,2.092 10.961,6.377 6.763,9.335c-4.197,2.959 -7.443,0.503 -8.317,0.322c-0.875,-0.181 0.213,-5.533 -0.603,-7.223c-0.816,-1.691 -2.391,-1.449 -4.213,-0.639c2.877,-9.9 -11.198,-15.007 -7.467,-20.803c3.731,-5.794 5.208,-9.405 8.007,-15.199c2.798,-5.795 -2.099,-12.835 -2.255,-15.329c0.933,-9.943 10.371,-28.616 18.456,-28.616c1.524,0.005 5.994,1.127 6.538,0.483c-2.138,5.312 -3.771,24.226 1.748,25.594c4.82,-3.058 15.865,-6.84 16.096,-4.507c-5.425,5.224 -13.764,12.787 -12.516,18.597l1.043,-0.623c-0.135,-5.472 9.414,-14.482 17.303,-21.08c0.106,-0.281 0.21,-0.557 0.314,-0.824c-9.597,1.469 -18.435,3.112 -21.073,5.54c-3.409,3.137 -5.189,-7.968 -1.341,-22.697c-0,0 4.778,0.857 6.588,0c1.78,4.366 9.313,11.576 17.857,13.11c1.871,-1.968 5.663,-2.446 5.826,-2.465l0.495,-0.059l-0.562,0.888c0.785,-0.616 1.388,-1.092 1.746,-1.393c9.387,-7.908 9.737,-11.771 9.271,-26.741c17.957,-1.811 22.7,23.581 21.203,25.76c3.563,3.551 18.016,3.695 22.014,5.682c4.198,2.086 9.025,6.851 13.299,10.048c0.314,0.234 1.316,0.233 1.633,0.442Zm-89.633,-46.548c-0.713,4.14 -1.545,12.922 2.496,19.558c2.635,4.329 7.074,7.149 13.195,8.386c4.005,-1.787 6.752,-4.506 8.394,-8.309c3.172,-7.349 1.271,-16.795 0.071,-21.198l-24.156,1.563Zm-35.918,29.573c1.295,0.068 2.465,0.215 3.448,0.367c0.978,0.165 1.776,0.327 2.324,0.455c0.557,0.134 0.854,0.206 0.854,0.206c-0,-0 -0.037,-0.072 -0.105,-0.208c-0.07,-0.137 -0.171,-0.343 -0.327,-0.6c-0.305,-0.512 -0.788,-1.248 -1.52,-2.091c-0.726,-0.851 -1.7,-1.808 -2.963,-2.756c-1.264,-0.942 -2.817,-1.89 -4.73,-2.609c-1.906,-0.715 -4.198,-1.225 -6.842,-1.066c-1.316,0.079 -2.715,0.348 -4.115,0.854c-1.401,0.501 -2.79,1.256 -4.056,2.218c-0.634,0.482 -1.225,1.018 -1.794,1.582c-0.552,0.574 -1.073,1.181 -1.549,1.811c-0.948,1.268 -1.721,2.622 -2.344,4.001c-0.633,1.378 -1.092,2.78 -1.464,4.168c-0.181,0.696 -0.336,1.389 -0.471,2.078l-0.154,0.844l-0.08,0.429l-0.041,0.214c-0.012,0.055 -0.02,0.074 -0.029,0.112l-0.11,0.438c-0.049,0.171 -0.083,0.359 -0.141,0.519c-0.102,0.336 -0.211,0.656 -0.326,0.95c-0.238,0.589 -0.484,1.114 -0.785,1.557c-0.573,0.899 -1.3,1.641 -2.363,2.267c-1.05,0.621 -2.396,1.061 -3.8,1.277c-1.404,0.22 -2.857,0.228 -4.189,0.075c-1.329,-0.16 -2.555,-0.459 -3.546,-0.898c-1.003,-0.429 -1.776,-0.986 -2.305,-1.634c-0.263,-0.322 -0.455,-0.668 -0.612,-1.003c-0.133,-0.334 -0.232,-0.656 -0.287,-0.929c-0.052,-0.272 -0.089,-0.499 -0.098,-0.65c-0.015,-0.154 -0.023,-0.234 -0.023,-0.234c0,-0 -0.054,0.057 -0.159,0.167c-0.11,0.112 -0.269,0.284 -0.441,0.543c-0.351,0.505 -0.809,1.404 -0.864,2.747c-0.072,1.334 0.361,3.014 1.303,4.586c0.944,1.569 2.334,3.072 4.093,4.306c1.759,1.232 3.88,2.233 6.325,2.792c2.438,0.549 5.238,0.665 8.19,-0.106c1.47,-0.381 2.966,-0.998 4.38,-1.879c1.421,-0.864 2.734,-2.01 3.86,-3.315c1.124,-1.311 2.03,-2.787 2.721,-4.303c0.358,-0.757 0.64,-1.527 0.886,-2.296c0.134,-0.386 0.228,-0.766 0.338,-1.152c0.109,-0.367 0.199,-0.84 0.29,-1.257l0.063,-0.313l0.11,-0.644l0.142,-0.872c0.065,-0.455 0.142,-0.898 0.23,-1.327c0.165,-0.86 0.371,-1.669 0.595,-2.404c0.464,-1.476 1.016,-2.631 1.675,-3.537c0.657,-0.91 1.511,-1.664 2.683,-2.242c1.16,-0.575 2.572,-0.936 3.989,-1.111c1.419,-0.178 2.842,-0.196 4.134,-0.127Zm33.074,-56.199c-2.118,-4.405 -0.735,-8.654 2.206,-11.114l1.067,2.608c-0.578,0.679 -1.048,1.539 -1.363,2.624c-1.7,5.869 1.633,8.994 3.848,9.236l-0.058,-0.303c0,0 -2.448,-2.595 1.108,-2.233c3.557,0.362 3.324,4.286 3.615,5.916c0.291,1.63 6.821,1.811 6.821,1.811c0,-0 0.35,-6.459 -1.807,-6.882c-2.157,-0.422 -3.265,-1.509 -3.265,-3.079c0,-1.569 2.332,-2.474 3.032,-2.262c0.7,0.212 1.457,3.048 1.457,3.048l0.583,-0.061l-0.524,-4.95c-0,0 -0.661,-2.991 -1.924,-3.621c-2.168,-1.083 -6.288,-2.162 -9.376,-0.824l-2.173,-1.787c3.171,-1.977 7.609,-2.091 11.549,1.163l1.963,-6.259c-13.148,-8.531 -26.936,2.857 -22.622,17.948l5.863,-0.979Zm27.686,24.051l-25.624,1.658c-0.782,4.067 -1.956,13.692 2.488,20.991c2.821,4.632 7.557,7.615 14.088,8.874c4.372,-1.883 7.366,-4.806 9.142,-8.919c3.472,-8.043 1.144,-18.341 -0.094,-22.604Zm49.398,-21.06c0,0 5.831,0.966 5.986,1.771c0.155,0.805 -5.131,2.414 -5.364,4.024c-0.234,1.61 -0,8.853 -0.777,10.543c-0.777,1.691 -1.196,1.089 -1.041,1.33c0,0 -0.06,1.346 -0.125,3.252l-18.536,-0.385c-0.089,-1.035 0.02,-2.236 0.422,-3.634c1.367,-4.748 -4.091,-2.346 -5.276,3.533l-20.706,-0.429l0.004,1.097l102.143,2.118l21.32,0.443l-79.511,2.384c-0.064,3.483 -0.045,6.859 0.24,7.45c0.622,1.288 0.755,1.645 0.755,1.645l-0.622,1.156c-0,0 -1.71,2.173 -1.555,2.415c0.155,0.241 -1.244,1.207 -2.877,0.966c-1.632,-0.242 -0.855,-5.311 -1.399,-5.875c-0.543,-0.564 -3.187,-0.564 -3.187,-0.564c-0,-0 -0.156,2.897 0.156,3.702c0.31,0.805 -1.555,0.563 -1.788,0.483c-0.234,-0.081 -0.777,-5.071 -0.777,-5.554c-0,-0.483 -2.411,-4.748 -2.566,-5.15c-0.021,-0.055 -0.159,-0.137 -0.37,-0.255l-8.816,0.265c0.713,2.194 2.052,4.58 4.283,7.073c2.881,3.22 4.839,13.545 -0.539,19.638c0.783,-13.106 -6.422,-21.639 -13.444,-26.421l-11.196,0.336c1.351,9.27 0.676,22.855 -12.986,28.221c-27.83,-4.711 -19.123,-35.618 -19.123,-35.618l2.723,-0.175c-0.886,-1.156 -1.778,-3.316 -1.585,-4.845c2.661,1.086 6.558,-0.423 8.504,-3.754c0,-0 1.175,6.878 2.171,8.01l0.662,-0.043l-0.662,-2.063c1.516,1.208 5.018,0.979 8.204,-0.51c0.172,0.767 0.086,1.488 -0.089,2.091l9.923,-0.642c0,-0 0.929,2.483 1.705,6.206l-0.012,-2.798c-3.146,-16.509 24.53,-43.462 45.728,-21.437l0,0Zm-63.862,79.375l2.321,1.919l-0.131,1.224l-4.143,-2.144l1.953,-0.999Z" style="fill:#030404;fill-rule:nonzero;"/></svg>