<?xml version="1.0" encoding="UTF-8" standalone="no"?><!DOCTYPE svg PUBLIC "-//W3C//DTD SVG 1.1//EN" "http://www.w3.org/Graphics/SVG/1.1/DTD/svg11.dtd"><svg width="100%" height="100%" viewBox="0 0 1305 1305" version="1.1" xmlns="http://www.w3.org/2000/svg" xmlns:xlink="http://www.w3.org/1999/xlink" xml:space="preserve" xmlns:serif="http://www.serif.com/" style="fill-rule:evenodd;clip-rule:evenodd;stroke-linejoin:round;stroke-miterlimit:2;"><path d="M860.183,119.383c0,0 5.33,1.959 15.359,5.625c5.033,1.742 10.983,4.588 18.145,7.555c7.201,2.866 15.209,6.904 24.175,11.308c2.242,1.1 4.555,2.233 6.942,3.392c2.279,1.283 4.667,2.595 7.092,3.941c4.85,2.696 9.916,5.521 15.208,8.467c10.288,6.45 21.563,13.137 33.025,21.417c23.034,16.158 47.904,36.42 72.554,61.52c24.65,25.071 49.009,54.971 71.088,89.488c22.187,34.404 41.329,73.892 56.537,116.587c2.021,5.284 3.709,10.742 5.4,16.213c1.688,5.471 3.379,10.958 5.105,16.466c1.47,5.588 2.941,11.201 4.408,16.834l2.204,8.458l1.875,8.592c1.213,5.737 2.425,11.496 3.675,17.266c1.063,5.809 1.946,11.676 2.938,17.53c2.204,11.687 3.195,23.625 4.704,35.529c4.662,47.796 3.562,97 -3.196,145.275c-13.888,96.621 -52.608,188.362 -105.95,259.421c-1.617,2.237 -3.233,4.521 -4.925,6.708l-5.142,6.446c-3.416,4.287 -6.833,8.558 -10.25,12.808c-3.562,4.067 -7.125,8.117 -10.687,12.146c-3.529,4.046 -7.054,8.067 -10.804,11.8c-3.671,3.796 -7.346,7.575 -10.984,11.333c-3.6,3.8 -7.529,7.18 -11.241,10.759c-3.784,3.483 -7.421,7.116 -11.275,10.412c-3.859,3.284 -7.68,6.546 -11.5,9.788c-1.913,1.625 -3.784,3.237 -5.696,4.846c-1.946,1.516 -3.892,3.025 -5.842,4.529c-3.892,2.995 -7.75,5.971 -11.608,8.929c-7.713,5.8 -15.65,11 -23.292,16.396c-7.933,4.9 -15.612,9.854 -23.362,14.42c-7.825,4.284 -15.43,8.759 -23.109,12.63c-30.562,15.629 -59.954,26.9 -86.55,34.366c-6.575,2.125 -13.116,3.421 -19.358,5.084c-3.125,0.779 -6.208,1.545 -9.221,2.3c-3.05,0.595 -6.025,1.179 -8.967,1.745c-5.841,1.13 -11.462,2.205 -16.825,3.242c-5.4,0.742 -10.541,1.45 -15.466,2.121c-9.771,1.567 -18.55,2.017 -26.192,2.7c-3.821,0.279 -7.346,0.667 -10.617,0.8c-3.233,0.092 -6.17,0.175 -8.816,0.246c-10.579,0.287 -16.2,0.446 -16.2,0.446l-0,-7.959c-0,0 5.546,-0.154 15.979,-0.441c2.571,-0.071 5.512,-0.146 8.708,-0.234c3.196,-0.137 6.684,-0.516 10.434,-0.795c7.529,-0.671 16.2,-1.117 25.825,-2.659c4.85,-0.662 9.916,-1.358 15.245,-2.096c5.288,-1.012 10.838,-2.079 16.605,-3.187c2.866,-0.563 5.804,-1.133 8.816,-1.725c2.975,-0.738 5.988,-1.5 9.075,-2.267c6.134,-1.641 12.6,-2.912 19.1,-5.012c26.196,-7.354 55.142,-18.463 85.304,-33.863c7.53,-3.816 15.025,-8.233 22.775,-12.446c7.605,-4.5 15.209,-9.387 23,-14.216c7.53,-5.317 15.355,-10.446 22.959,-16.159c3.783,-2.912 7.604,-5.845 11.425,-8.8c1.946,-1.483 3.858,-2.966 5.766,-4.462c1.875,-1.588 3.75,-3.179 5.621,-4.775c3.75,-3.196 7.534,-6.413 11.354,-9.65c3.784,-3.25 7.384,-6.833 11.092,-10.267c3.675,-3.529 7.533,-6.854 11.096,-10.6c3.6,-3.704 7.2,-7.429 10.837,-11.179c3.675,-3.671 7.163,-7.637 10.617,-11.621c3.492,-3.975 7.017,-7.966 10.542,-11.975c3.346,-4.191 6.725,-8.4 10.104,-12.629l5.071,-6.35c1.687,-2.154 3.233,-4.408 4.85,-6.612c52.566,-70.042 90.737,-160.455 104.404,-255.667c6.683,-47.575 7.75,-96.092 3.158,-143.2c-1.471,-11.738 -2.462,-23.508 -4.629,-35.017c-0.992,-5.771 -1.837,-11.558 -2.9,-17.279c-1.212,-5.687 -2.425,-11.362 -3.637,-17.017l-1.8,-8.466l-2.205,-8.338c-1.433,-5.55 -2.904,-11.075 -4.337,-16.587c-1.688,-5.429 -3.379,-10.838 -5.067,-16.229c-1.654,-5.388 -3.308,-10.767 -5.291,-15.971c-14.988,-42.084 -33.834,-81 -55.73,-114.904c-21.75,-34.025 -45.775,-63.496 -70.058,-88.205c-24.283,-24.745 -48.783,-44.712 -71.525,-60.641c-11.279,-8.163 -22.408,-14.75 -32.55,-21.109c-5.217,-2.904 -10.212,-5.683 -14.987,-8.341c-2.388,-1.329 -4.7,-2.621 -6.98,-3.888c-2.35,-1.146 -4.629,-2.258 -6.833,-3.341c-8.854,-4.342 -16.717,-8.321 -23.804,-11.146c-7.054,-2.921 -12.967,-5.729 -17.929,-7.446c-9.846,-3.613 -15.134,-5.542 -15.134,-5.542l2.275,-7.571Z" style="fill-rule:nonzero;"/><path d="M786.088,126.471c5.804,1.604 11.57,2.367 17.154,2.833c5.55,0.584 10.987,0.534 16.275,-0.104c2.608,-0.308 5.216,-0.812 7.754,-1.371c2.533,-0.487 4.996,-1.116 7.421,-1.891c4.812,-1.55 9.404,-3.675 13.662,-6.342c-2.237,-4.675 -5.179,-9.117 -8.742,-13.246c-1.762,-2.067 -3.708,-4.05 -5.804,-5.95c-2.096,-1.821 -4.333,-3.462 -6.721,-5.05c-4.779,-3.146 -10.066,-5.879 -15.762,-8.108c-5.729,-2.109 -11.938,-3.375 -18.367,-4.221c-3.196,-0.367 -6.796,-0.808 -10.691,-0.95c-3.892,-0.079 -8.046,-0.071 -12.342,0.017c-4.3,0.087 -8.708,0.245 -13.154,0.512c-4.479,0.488 -8.963,1.054 -13.333,1.7c-4.371,0.646 -8.596,1.367 -12.638,2.158c-4.042,0.938 -7.862,2.055 -11.354,3.15c-6.942,2.221 -12.525,4.625 -15.904,7.1c3.379,2.663 8.854,5.367 15.5,7.967c3.308,1.313 6.908,2.525 10.691,3.821c3.784,1.437 7.717,2.833 11.721,4.171c4.004,1.333 8.079,2.608 12.121,3.787c4.042,1.404 8.008,2.742 11.867,3.946c3.858,1.213 7.566,2.296 11.058,3.238c3.488,1.004 6.683,2.083 9.588,2.833Z" style="fill-rule:nonzero;"/><path d="M866.025,125.725c-0.658,2.075 -3.158,3.042 -5.583,2.15c-0,-0 -2.571,-0.933 -6.392,-2.333c-3.821,-1.305 -9.037,-2.817 -14.217,-4.434c-5.179,-1.533 -10.325,-3.329 -14.254,-4.183c-3.929,-0.983 -6.575,-1.638 -6.575,-1.638l1.688,-7.741c-0,-0 2.646,0.662 6.65,1.658c4.004,0.875 9.221,2.683 14.475,4.246c5.254,1.642 10.541,3.171 14.437,4.496c3.896,1.421 6.467,2.371 6.467,2.371c2.462,0.904 3.967,3.325 3.304,5.408Z" style="fill-rule:nonzero;"/><path d="M892.771,1225.11c6.687,2.108 10.946,6.579 12.012,12.112c1.138,5.617 -1.029,12.079 -7.054,18.046c-3.6,3.542 -8.3,6.325 -13.262,8.079c-4.959,1.787 -10.321,2.092 -15.096,1.379c-8.229,-1.321 -13.3,-5.646 -15.063,-11.096c-1.396,-4.362 -4.116,-8.029 -7.533,-11.179c-3.454,-3.187 -7.675,-6.046 -12.05,-8.508c-4.7,-2.633 -9.513,-5.096 -14.325,-7.529l-7.162,-3.638c-2.355,-1.337 -4.705,-2.671 -7.055,-3.996c-6.575,-3.812 -12.966,-7.662 -19.212,-11.541c-6.246,-3.821 -12.454,-8.275 -18.442,-12.417l-0.846,-0.596c-2.133,-1.521 0.588,-4.483 2.9,-3.129c11.425,6.892 23.184,12.592 35.455,18.55c11.204,5.358 22.85,10.029 35.008,14.633c5.291,1.796 10.983,2.792 16.933,3.021c5.954,0.163 12.233,-0.204 18.442,-2.087c5.437,-1.542 11.171,-1.696 16.35,-0.104Z" style="fill-rule:nonzero;"/><path d="M912.754,1217.35c-6.171,-1.058 -11.646,-2.779 -16.458,-5.062c-4.813,-2.367 -9,-5.413 -12.454,-8.813c-6.904,-6.837 -10.984,-15.416 -12.267,-24.962c10.579,-5.017 21.488,-8.804 32.804,-9.829c11.242,-1.3 22.554,-0.646 33.65,2.787c10.875,2.992 26.563,9.179 40.779,15.404c14.105,6.146 26.925,12.929 31.08,19.217c-4.775,2.737 -11.721,5.308 -19.767,7.55c-8.117,2.05 -17.483,3.521 -26.854,4.65c-18.954,1.846 -38.204,1.408 -50.513,-0.942Z" style="fill-rule:nonzero;"/><path d="M855.742,1172.58c-1.325,2.063 -0.663,4.475 1.541,5.371c0,-0 9.184,3.512 18.734,6.875c4.741,1.658 9.625,3.416 13.225,4.496c3.637,1.075 6.062,1.791 6.062,1.791l4.667,-8.037c-0,-0 -2.425,-0.713 -6.063,-1.784c-3.637,-1.133 -8.337,-2.424 -13.112,-4.158c-9.554,-3.362 -18.7,-6.871 -18.7,-6.871c-2.204,-0.837 -5.034,0.192 -6.354,2.317Z" style="fill-rule:nonzero;"/><path d="M1090.74,1095.05c13.629,-2.192 22.229,9.171 15.762,25.575c-3.933,9.629 -13.3,18.004 -22.483,20.921c-8.008,2.346 -14.363,0.417 -17.963,-3.796c-5.804,-6.787 -15.395,-8.875 -25.166,-9.458c-10.434,-0.667 -21.454,-0.892 -31.775,-1.563c-7.238,-0.404 -14.734,-1.475 -21.896,-2.337c-7.275,-1.004 -14.254,-1.788 -21.417,-3.225l-0.991,-0.188c-2.538,-0.491 -1.142,-4.333 1.504,-4.066c6.429,0.525 12.858,0.791 19.433,1.096c6.575,0.274 13.3,0.562 19.875,0.37c12.088,-0.187 24.871,-0.325 37.396,-1.862c5.512,-0.604 11.208,-2.021 16.792,-4.333c5.47,-2.48 10.837,-5.825 15.979,-10.005c2.279,-1.837 4.704,-3.387 7.275,-4.558c2.458,-1.258 5.066,-2.154 7.675,-2.571Z" style="fill-rule:nonzero;"/><path d="M1106.28,1079.43c-24.391,6.442 -42.687,-1.366 -52.054,-17.841c7.421,-9.659 16.713,-17.088 26.338,-23.334c4.887,-3.029 10.066,-5.525 15.466,-7.471c5.255,-2.1 10.73,-3.625 16.35,-4.512c5.617,-0.921 12.709,-1.475 20.092,-2.121c7.35,-0.633 15.321,-1.083 23,-1.233c15.5,-0.192 29.463,0.3 35.633,4.295c-1.654,2.309 -3.783,4.834 -6.354,7.45c-2.683,2.546 -5.733,5.205 -9.075,7.9c-6.725,5.375 -14.4,11.059 -22.887,15.859c-4.15,2.454 -8.375,4.812 -12.563,7.021c-2.096,1.079 -4.154,2.145 -6.208,3.2c-2.096,0.937 -4.188,1.862 -6.208,2.762c-8.159,3.508 -15.617,6.267 -21.53,8.025Z" style="fill-rule:nonzero;"/><path d="M1037.37,1062.78c-0.442,2.483 1.062,4.4 3.379,4.25c-0,0 2.496,-0.167 6.171,-0.408c3.712,-0.3 8.816,-0.546 13.666,-1.205c9.846,-1.158 19.946,-2.62 19.946,-2.62c0,-0 0.371,-2.325 0.738,-4.642c0.366,-2.304 0.696,-4.646 0.696,-4.646c-0,0 -2.496,0.408 -6.28,0.913c-3.712,0.479 -8.708,1.112 -13.666,1.75c-4.925,0.579 -9.775,1.15 -13.446,1.458c-3.675,0.25 -6.171,0.412 -6.171,0.412c-2.354,0.146 -4.596,2.25 -5.033,4.738Z" style="fill-rule:nonzero;"/><path d="M1224.54,890.467c6.025,-3.875 11.904,-4.2 16.383,-1.284c4.591,2.946 7.496,9.063 7.387,17.913c-0.075,5.258 -1.362,10.867 -3.604,15.996c-2.166,5.154 -5.616,9.616 -9.329,12.904c-6.504,5.617 -12.896,6.671 -17.746,4.342c-3.929,-1.863 -8.225,-2.209 -12.708,-1.638c-4.521,0.538 -9.296,1.938 -13.958,3.742c-10.03,3.783 -19.621,8.691 -29.721,12.266c-7.017,2.596 -13.963,5.059 -20.829,7.384c-6.98,2.241 -14.071,4.221 -20.98,6.137l-0.954,0.267c-2.496,0.671 -2.683,-3.508 -0.183,-4.429c6.062,-2.317 12.417,-4.563 18.404,-7.242c6.025,-2.637 12.125,-5.383 18.296,-8.237c5.696,-2.559 11.204,-5.43 16.825,-8.405c5.583,-2.97 11.242,-6.07 16.9,-9.345c4.85,-2.95 9.367,-6.796 13.592,-11.359c4.187,-4.591 8.191,-9.829 11.166,-16c2.684,-5.379 6.467,-10.021 11.059,-13.012Z" style="fill-rule:nonzero;"/><path d="M1232.91,869.346c-4.884,4.137 -9.809,7.312 -14.621,9.558c-4.85,2.225 -9.809,3.45 -14.438,3.867c-9.329,0.812 -17.891,-1.813 -25.237,-7.317c3.821,-11.783 8.708,-23.025 15.762,-32.683c6.721,-9.775 14.95,-18.304 24.796,-24.763c9.442,-6.554 24.283,-14.77 38.204,-21.787c13.779,-6.996 27.075,-12.55 34.167,-11.558c-1.396,5.65 -4.371,12.912 -8.342,20.825c-4.187,7.849 -9.55,16.275 -15.171,24.466c-11.716,16.288 -25.091,31.238 -35.12,39.392Z" style="fill-rule:nonzero;"/><path d="M1163.81,883.942c0.512,2.47 2.57,3.583 4.699,2.433c0,0 8.601,-4.862 17.417,-10.125c4.333,-2.642 8.888,-5.283 12.05,-7.425c3.196,-2.146 5.325,-3.571 5.325,-3.571l-2.242,-9.175c0,0 -2.129,1.433 -5.325,3.575c-3.233,2.104 -7.35,4.95 -11.758,7.567c-8.779,5.266 -17.412,10.129 -17.412,10.129c-2.059,1.167 -3.267,4.096 -2.755,6.592Z" style="fill-rule:nonzero;"/><path d="M1271.71,644.942c7.567,-12.284 21.417,-11.338 27.884,4.95c3.6,9.654 3.379,22.762 -1.175,32.004c-3.971,7.946 -9.479,11.662 -14.809,11.642c-8.558,-0.005 -16.42,6.166 -23.437,13.508c-7.825,7.8 -15.208,16.404 -22.738,24.129c-5.329,5.454 -11.058,10.675 -16.57,15.779c-5.584,5.083 -10.871,10.071 -16.75,14.758l-0.809,0.663c-2.058,1.692 -3.708,-2.054 -1.725,-3.967c4.813,-4.721 9.292,-9.65 13.996,-14.662c4.554,-5.034 9.512,-10.138 13.812,-15.471c4.042,-4.854 8.155,-9.854 12.271,-15l6.171,-7.825l5.767,-8.087c6.65,-9.592 11.608,-21.913 12.6,-35.742c0.516,-6.075 2.35,-11.963 5.512,-16.679Z" style="fill-rule:nonzero;"/><path d="M1271.53,622.008c-6.063,11.805 -13.375,20.059 -21.638,24.825c-8.304,4.771 -17.158,6.075 -25.862,4.2c-0.371,-6.221 -0.737,-12.429 -0.333,-18.575c0.333,-6.141 1.358,-12.229 2.683,-18.166c2.35,-11.854 7.238,-23.25 13.592,-33.384c3.158,-5.058 7.383,-11.033 12.125,-17.329c4.737,-6.296 9.991,-12.916 14.95,-19.087c10.104,-12.338 20.316,-23.171 27.187,-25.304c0.771,5.787 0.659,13.741 -0.112,22.704c-0.734,8.966 -2.792,19.029 -4.959,28.958c-2.02,9.925 -5.291,19.829 -8.304,28.65c-1.541,4.417 -3.083,8.571 -4.591,12.354c-1.58,3.779 -3.234,7.204 -4.738,10.154Z" style="fill-rule:nonzero;"/><path d="M1213.41,665.221c1.396,2.054 3.709,2.162 5.179,0.204c0,0 6.209,-8.192 12.417,-16.812c3.196,-4.296 5.913,-8.68 8.154,-12.005c2.167,-3.345 3.638,-5.575 3.638,-5.575l-5.363,-7.433c0,0 -5.804,9.004 -11.608,17.579c-2.829,4.304 -6.1,8.517 -8.379,11.642c-2.313,3.1 -3.854,5.171 -3.854,5.171c-1.509,1.958 -1.58,5.179 -0.184,7.229Z" style="fill-rule:nonzero;"/><path d="M1224.5,399.425c2.608,-14.658 15.358,-19.658 27.517,-7.567c7.016,7.255 11.279,19.596 10.762,29.954c-0.658,8.996 -4.408,14.817 -9.292,17.092c-7.862,3.683 -12.858,12.771 -16.641,22.546c-4.042,10.442 -7.938,21.621 -11.979,31.938c-2.755,7.27 -6.171,14.541 -9.367,21.595c-3.271,7.071 -6.392,13.946 -9.917,20.742l-0.516,0.958c-1.284,2.446 -4.113,-0.295 -3.013,-2.895c2.5,-6.371 4.958,-12.863 7.421,-19.475c2.5,-6.621 4.925,-13.363 6.946,-20.125c3.891,-12.409 8.079,-25.542 10.871,-38.817c1.325,-5.854 1.983,-12.125 1.837,-18.621c-0.329,-6.408 -1.471,-13.033 -3.417,-19.667c-1.654,-5.85 -2.129,-12.062 -1.212,-17.658Z" style="fill-rule:nonzero;"/><path d="M1216.05,378.333c-2.533,27.092 -15.354,43.138 -32.804,47.221c-2.938,-5.408 -5.363,-11.05 -7.238,-16.875c-0.954,-2.908 -1.725,-5.875 -2.425,-8.854c-0.808,-2.933 -1.433,-5.904 -1.945,-8.904c-1.03,-5.996 -1.509,-12.117 -1.396,-18.275c-0,-6.108 0.404,-12.159 1.504,-18.225c1.067,-6.038 2.829,-13.417 4.812,-21.238c1.913,-7.733 4.117,-15.987 6.542,-23.891c2.388,-7.884 5.033,-15.471 7.604,-21.613c2.534,-6.112 5.217,-10.908 7.934,-13.366c3.05,4.816 5.766,12.229 8.266,20.858c1.25,4.308 2.463,8.925 3.563,13.704c1.141,4.754 1.875,9.892 2.683,14.933c3.342,20.163 3.746,41.296 2.9,54.525Z" style="fill-rule:nonzero;"/><path d="M1178.62,443.2c2.021,1.292 4.187,0.392 4.85,-2.054c-0,-0 0.662,-2.575 1.687,-6.438c0.959,-3.858 2.425,-9.15 3.492,-14.358c2.279,-10.425 4.333,-21.246 4.333,-21.246l-7.604,-4.529c0,-0 -2.054,10.812 -4.296,21.237c-1.141,5.238 -2.204,10.334 -3.233,14.221c-0.992,3.863 -1.692,6.438 -1.692,6.438c-0.658,2.441 0.442,5.437 2.463,6.729Z" style="fill-rule:nonzero;"/><path d="M1090.67,194.863c-2.829,-14.746 7.017,-24.813 22.371,-18.742c4.554,1.8 9,4.992 12.75,8.937c3.67,4.005 6.5,8.938 8.079,13.85c2.758,8.488 1.546,15.33 -2.092,19.534c-5.766,6.704 -7.016,17.208 -7.054,27.946c0.075,11.408 1.029,22.933 0.846,34.408c-0.075,8.029 -0.183,15.921 -0.442,23.716c-0.479,7.951 -0.991,15.771 -1.616,23.463l-0.109,1.079c-0.221,2.767 -3.933,1.55 -3.896,-1.292c0,-6.962 0.038,-14.133 -0.183,-21.216c-0.333,-7.029 -0.7,-14.154 -1.175,-21.379c-0.221,-3.321 -0.442,-6.659 -0.662,-10.013c-0.367,-3.312 -0.696,-6.637 -1.067,-9.971c-0.733,-6.704 -1.542,-13.508 -2.533,-20.35c-0.884,-6.012 -2.792,-11.833 -5.363,-17.679c-2.646,-5.737 -5.804,-11.642 -10.212,-16.683c-3.784,-4.517 -6.58,-9.938 -7.642,-15.609Z" style="fill-rule:nonzero;"/><path d="M1075.1,179.283c1.946,6.379 3.083,12.434 3.45,18.096c0.258,5.767 -0.292,11.158 -1.467,16.05c-2.387,9.792 -7.533,17.667 -14.771,23.313c-9,-7.788 -17.116,-16.555 -23.216,-26.93c-6.246,-10.162 -10.946,-21.366 -13.263,-33.591c-2.533,-11.8 -4.7,-29.746 -6.171,-46.242c-1.47,-16.387 -1.837,-31.854 1.396,-38.746c4.446,3.325 9.771,8.809 15.284,15.505c5.47,6.841 10.983,15.175 16.2,23.641c10.287,17.329 18.77,36.013 22.558,48.904Z" style="fill-rule:nonzero;"/><path d="M1064.77,254.692c2.312,0.345 3.967,-1.417 3.675,-3.971c-0,-0 -0.296,-2.621 -0.846,-6.567c-0.587,-3.975 -1.396,-9.279 -2.167,-14.575c-0.846,-5.333 -1.691,-10.791 -2.425,-14.791c-0.808,-3.98 -1.358,-6.634 -1.358,-6.634l-8.746,-0.754c0,0 0.55,2.65 1.359,6.633c0.737,4.013 1.875,9.113 2.645,14.525c1.692,10.709 3.05,21.125 3.05,21.125c0.33,2.496 2.496,4.688 4.813,5.009Z" style="fill-rule:nonzero;"/><path d="M892.658,64.85c-8.116,-12.067 -2.825,-25.579 13.667,-26.958c9.7,-0.646 20.904,4.437 27.554,11.908c5.621,6.625 6.979,13.604 5.217,19.008c-2.867,8.73 -0.146,18.896 3.892,28.542c4.262,10.321 9.187,21.025 13.375,31.258c3.05,7.15 5.62,14.809 8.229,22.13c2.533,7.437 5.066,14.525 7.237,22.025l0.292,1.05c0.771,2.687 -3.013,3.091 -4.004,0.429c-2.571,-6.392 -5.292,-12.721 -8.084,-19.179c-2.791,-6.455 -5.691,-13.005 -8.85,-19.225c-5.733,-11.542 -11.796,-23.775 -18.812,-35.063c-3.084,-5.037 -6.867,-9.842 -11.35,-14.154c-4.554,-4.088 -9.808,-7.721 -15.613,-10.708c-2.533,-1.317 -4.958,-2.95 -7.091,-4.855c-2.167,-1.854 -4.113,-3.879 -5.659,-6.208Z" style="fill-rule:nonzero;"/><path d="M872.638,57.146c16.57,20.492 18.662,41.575 9.516,58.208c-5.658,-1.362 -11.096,-3.304 -16.312,-5.791c-2.609,-1.234 -5.142,-2.65 -7.642,-4.117c-2.533,-1.375 -4.958,-2.883 -7.346,-4.525c-4.737,-3.275 -9.221,-7.071 -13.3,-11.346c-4.112,-4.192 -7.971,-8.6 -11.312,-13.621c-3.346,-4.979 -7.13,-11.341 -11.059,-18.333c-3.933,-6.758 -8.008,-14.129 -11.721,-21.408c-3.708,-7.28 -7.049,-14.45 -9.441,-20.771c-2.388,-6.267 -3.821,-11.571 -3.6,-15.442c5.329,0.817 12.2,3.913 19.729,7.708c3.783,1.934 7.717,4.125 11.721,6.492c3.966,2.433 7.971,5.275 11.9,8.092c15.946,11.037 30.492,25.208 38.867,34.854Z" style="fill-rule:nonzero;"/><path d="M890.933,131.033c2.242,-0.712 3.121,-3.046 1.913,-5.229c-0,0 -1.288,-2.296 -3.196,-5.733c-1.95,-3.388 -4.521,-8.192 -7.312,-12.575c-5.513,-8.888 -11.388,-17.909 -11.388,-17.909l-8.267,2.921c0,0 5.913,9.017 11.425,17.904c2.755,4.48 5.475,8.809 7.421,12.238c1.909,3.437 3.196,5.729 3.196,5.729c1.213,2.183 3.967,3.367 6.208,2.654Z" style="fill-rule:nonzero;"/><path d="M774.883,1119.75c-14.4,16.191 -20.829,36.133 -15.833,54.646c5.475,-0.071 10.875,-0.759 16.125,-2.034c5.254,-1.2 10.25,-3.612 14.954,-6.212c4.667,-2.738 9.075,-5.767 12.929,-9.717c3.859,-3.954 7.238,-8.371 10.03,-13.221c5.733,-9.487 11.795,-25.058 15.541,-39.62c3.859,-14.434 5.217,-28.796 3.379,-36.18c-1.691,0.742 -3.6,1.905 -5.658,3.417c-2.092,1.4 -4.333,3.067 -6.721,5.033c-4.775,3.8 -9.883,9.155 -15.358,14.017c-5.4,4.971 -10.838,10.733 -15.942,15.775c-5.146,5.008 -9.808,9.908 -13.446,14.096Z" style="fill-rule:nonzero;"/><path d="M747.258,1186.81c-1.95,-1.395 -2.133,-3.912 -0.441,-5.604c-0,0 7.016,-6.925 13.591,-14.562c6.575,-7.471 12.784,-14.871 12.784,-14.871c-0,-0 1.766,1.216 3.491,2.325c1.725,1.087 3.455,2.179 3.455,2.179c-0,-0 -1.509,1.992 -3.896,4.846c-2.425,2.792 -5.659,6.508 -8.892,10.229c-3.342,3.742 -6.683,7.483 -9.221,10.287c-1.283,1.409 -2.35,2.58 -3.121,3.4c-0.77,0.784 -1.175,1.234 -1.175,1.234c-1.691,1.696 -4.629,1.937 -6.575,0.537Z" style="fill-rule:nonzero;"/><path d="M905.554,1073.77c4.3,-12.046 -3.416,-24.225 -15.612,-25.388c-7.163,-0.475 -14.659,3.017 -18.625,9.779c-1.692,2.884 -2.684,5.942 -3.013,8.959c-0.366,2.95 -0.075,5.875 0.809,8.595c2.866,8.696 1.212,18.042 -2.096,26.963c-1.8,4.696 -3.784,9.579 -6.059,14.112c-2.316,4.575 -4.666,9.167 -6.983,13.709c-6.537,13.241 -13.958,25.637 -21.858,38.529l-0.55,0.9c-1.471,2.325 2.02,3.917 3.675,1.683c4.041,-5.475 7.933,-10.916 11.754,-16.316c3.821,-5.334 7.35,-11.205 10.875,-16.713c3.196,-5.158 6.391,-10.154 9.366,-15.462c2.942,-5.275 5.842,-10.567 8.78,-15.834c5.146,-8.879 11.904,-17.241 20.866,-22.546c3.896,-2.433 6.984,-6.395 8.671,-10.97Z" style="fill-rule:nonzero;"/><path d="M943.763,1049.5c-1.8,5.321 -3.013,10.654 -3.676,15.887c-0.662,5.192 -0.845,10.138 -0.404,15.009c0.884,9.691 4.08,18.691 9.809,26.062c10.175,-4.462 18.733,-12.175 25.495,-20.916c6.576,-9.071 10.984,-19.742 12.601,-30.98c1.395,-11.612 1.616,-27.966 -0.442,-43.125c-2.021,-15.212 -5.804,-28.629 -10.213,-34.658c-2.683,2.767 -5.437,7.375 -8.266,13.175c-2.863,5.725 -6.025,12.271 -8.963,19.471c-6.062,13.996 -12.196,29.596 -15.942,40.075Z" style="fill-rule:nonzero;"/><path d="M943.358,1123.11c-2.279,-0.437 -3.383,-2.662 -2.462,-4.941c-0,-0 3.675,-9.792 6.979,-19.359c1.654,-4.825 3.308,-9.45 4.408,-13.15c1.067,-3.65 1.8,-6.087 1.8,-6.087l8.009,1.108c-0,0 -0.696,2.434 -1.8,6.084c-1.1,3.62 -2.534,8.67 -4.225,13.441c-3.342,9.563 -6.98,19.354 -6.98,19.354c-0.883,2.334 -3.454,3.934 -5.729,3.55Z" style="fill-rule:nonzero;"/><path d="M1046.88,950.821c-0.696,-13.117 -12.05,-20.804 -23.696,-16.625c-7.162,2.325 -12.158,9.312 -13.554,17.029c-1.137,6.65 0.7,12.754 4.333,16.979c5.771,6.708 7.938,16.246 8.121,25.771c0.109,10.062 -0.808,20.696 -1.725,31.192c-1.508,14.495 -3.125,29.85 -5.916,44.65l-0.184,1.054c-0.516,2.716 3.342,2.712 4.042,-0.004l2.533,-9.959l2.167,-10.12c1.396,-6.713 2.721,-13.338 3.971,-19.876c0.992,-6.145 1.871,-12.325 2.716,-18.42c0.809,-6.134 1.726,-12.046 2.313,-18.213c1.104,-10.762 4.925,-20.642 10.767,-29.812c2.646,-3.975 4.258,-8.734 4.112,-13.646Z" style="fill-rule:nonzero;"/><path d="M1073.04,912.033c1.029,22.409 10.283,41.192 26.154,49.813c7.237,-8.817 13.004,-19.038 15.579,-30.279c1.321,-5.575 2.204,-11.171 2.237,-16.867c-0.071,-5.75 -0.733,-11.45 -2.091,-16.983c-2.534,-11.004 -8.892,-26.409 -16.2,-39.321c-7.13,-12.9 -15.909,-23.783 -22.117,-27.367c-0.663,1.858 -1.175,4.158 -1.579,6.817c-0.442,2.616 -0.884,5.546 -1.175,8.766c-0.663,6.388 -0.588,14.084 -0.992,21.73c-0.333,7.675 -0.075,15.958 -0.258,23.416c-0.075,7.488 0.037,14.559 0.441,20.275Z" style="fill-rule:nonzero;"/><path d="M1099.49,979.613c-2.242,0.587 -4.08,-0.98 -4.08,-3.467c0,-0 -0.037,-2.588 -0.071,-6.479c-0.037,-3.863 -0.112,-8.959 -0.479,-14.171c-0.587,-10.35 -1.395,-20.338 -1.395,-20.338c-0,0 1.983,-0.579 3.966,-1.154c1.984,-0.562 3.859,-1.241 3.859,-1.241c-0,-0 0.329,2.583 0.587,6.345c0.221,3.834 0.55,8.942 0.879,14.054c0.259,5.217 0.517,10.438 0.7,14.355c0.075,3.895 0.113,6.495 0.113,6.495c-0,2.484 -1.804,5.013 -4.079,5.6Z" style="fill-rule:nonzero;"/><path d="M1131.01,777.146c-5.183,-11.621 -18.662,-13.829 -27.775,-4.967c-5.216,5.371 -7.933,13.663 -6.095,21.413c1.612,6.645 5.545,11.441 10.358,13.725c7.825,3.666 13.004,11.333 16.787,20.045c1.946,4.609 3.859,9.517 5.4,14.413c1.509,4.967 3.013,9.954 4.484,14.883c4.479,14.213 7.825,28.55 11.129,43.596l0.221,1.058c0.587,2.73 4.079,1.042 3.675,-1.787c-0.954,-6.921 -1.946,-13.733 -3.013,-20.425c-1.029,-6.675 -2.533,-13.479 -3.858,-20.025c-1.321,-6.042 -2.496,-11.954 -4.079,-17.958c-1.58,-5.913 -3.159,-11.838 -4.7,-17.742c-2.463,-10.142 -3.563,-21.183 -1.029,-31.896c1.029,-4.762 0.441,-9.892 -1.505,-14.333Z" style="fill-rule:nonzero;"/><path d="M1140.67,730.346c2.354,5.05 5.146,9.65 8.266,13.733c2.942,4.05 6.246,7.592 9.809,10.546c7.166,5.913 15.429,9.496 24.32,9.979c3.896,-11.096 4.592,-23.125 3.196,-34.446c-1.47,-11.354 -5.987,-22.154 -12.341,-31.075c-6.688,-9.008 -18.075,-20.366 -29.355,-29.033c-11.72,-8.771 -23.475,-14.958 -30.529,-15.558c0.038,4 1.471,9.379 3.346,15.55c1.725,6.158 4.221,13.15 7.088,20.383c5.216,14.35 11.683,29.825 16.2,39.921Z" style="fill-rule:nonzero;"/><path d="M1190.15,780.817c-1.875,1.512 -4.116,0.862 -5.033,-1.4c-0,-0 -4.117,-9.58 -8.342,-18.73c-2.129,-4.595 -4.187,-9.083 -5.875,-12.437c-1.729,-3.346 -2.867,-5.579 -2.867,-5.579l6.171,-5.609c0,0 1.175,2.234 2.904,5.58c1.688,3.354 4.188,7.937 6.171,12.508c4.225,9.15 8.338,18.729 8.338,18.729c0.991,2.283 0.333,5.413 -1.467,6.938Z" style="fill-rule:nonzero;"/><path d="M1144.12,581.358c-9,-8.445 -22.188,-4.671 -27.329,7.409c-1.584,3.608 -1.95,7.583 -1.546,11.471c0.296,3.9 1.579,7.683 3.821,10.854c3.82,5.429 9.258,8.141 14.583,8.15c8.633,-0.017 16.129,4.8 22.742,11.183c6.979,6.771 13.737,14.762 19.912,22.621c4.479,5.55 9,11.258 13.479,17.121c4.409,5.858 8.488,11.858 12.713,18.025l0.625,0.866c1.504,2.242 4.079,-0.8 2.716,-3.22c-6.5,-11.834 -13.92,-23.217 -21.195,-34.096c-1.655,-2.488 -3.305,-4.963 -5.034,-7.413c-1.8,-2.429 -3.6,-4.862 -5.437,-7.304c-3.563,-4.758 -7.125,-9.529 -10.688,-14.279c-2.979,-4.125 -5.991,-8.596 -8.083,-13.425c-2.204,-4.821 -3.675,-9.988 -4.629,-15.45c-0.954,-4.792 -3.196,-9.279 -6.65,-12.513Z" style="fill-rule:nonzero;"/><path d="M1135.78,534.242c16.309,14.329 34.679,19.937 51.505,13.204c-0.184,-2.954 -0.48,-5.892 -0.921,-8.792c-0.475,-2.891 -1.284,-5.7 -2.13,-8.475c-1.687,-5.537 -3.891,-10.837 -6.612,-15.737c-5.767,-9.709 -13.517,-17.779 -22.775,-23.175c-9.625,-5.313 -23.808,-10.971 -37.658,-13.913c-13.921,-2.979 -26.888,-3.596 -33.613,-1.079c1.542,3.625 4.629,7.983 8.746,12.763c4.004,4.825 8.667,10.212 13.921,15.595c2.721,2.675 5.254,5.446 7.825,8.18c2.571,2.725 5.216,5.4 7.787,7.958c5.292,5.083 9.921,9.858 13.925,13.471Z" style="fill-rule:nonzero;"/><path d="M1199.67,559.288c-1.1,2.179 -3.379,2.55 -5.104,0.879c-0,-0 -7.275,-7.025 -14.475,-13.621c-3.6,-3.308 -7.092,-6.546 -9.992,-8.879c-2.829,-2.325 -4.704,-3.88 -4.704,-3.88l3.675,-7.816c-0,-0 7.491,6.117 15.025,12.683c7.162,6.596 14.437,13.625 14.437,13.625c1.725,1.671 2.242,4.829 1.138,7.009Z" style="fill-rule:nonzero;"/><path d="M1084.28,396.342c-5.733,-1.884 -11.354,-0.471 -15.466,2.983c-4.155,3.508 -6.613,8.933 -6.909,15.704c-0.108,4.004 0.884,7.9 2.721,11.259c0.917,1.679 2.054,3.225 3.379,4.583c1.25,1.4 2.646,2.633 4.225,3.608c5.438,3.35 11.388,3.5 16.275,1.196c7.713,-3.675 16.863,-2.771 25.088,0.279c8.821,3.213 17.821,7.658 26.6,12.075c12.158,6.354 24.941,13.125 36.921,20.929l0.841,0.542c2.204,1.408 3.492,-2.504 1.363,-4.142l-7.825,-5.908l-8.084,-5.583c-5.4,-3.671 -10.725,-7.217 -16.016,-10.646c-10.067,-6.096 -20.171,-11.888 -30.2,-17.325c-4.479,-2.359 -8.629,-5.288 -12.342,-8.796c-1.875,-1.742 -3.525,-3.679 -5.254,-5.675c-1.725,-1.983 -3.304,-4.108 -4.775,-6.392c-2.608,-4.012 -6.246,-7.191 -10.542,-8.691Z" style="fill-rule:nonzero;"/><path d="M1059.19,356.742c19.799,6.441 39.345,3.104 52.054,-10.221c-5.363,-10.263 -12.234,-19.617 -21.234,-25.913c-4.408,-3.233 -9.075,-5.904 -13.921,-7.904c-5.033,-1.854 -10.25,-3.029 -15.541,-3.471c-5.325,-0.412 -11.646,-0.521 -18.588,0.113c-6.908,0.646 -14.216,1.783 -21.05,3.35c-13.629,3.017 -25.975,8.266 -31.191,13.466c1.395,1.309 3.27,2.563 5.4,3.884c2.095,1.387 4.558,2.766 7.275,4.133c5.4,2.759 12.05,5.329 18.587,8.271c13.559,5.4 27.921,11.296 38.208,14.292Z" style="fill-rule:nonzero;"/><path d="M1126.82,352.121c-0.217,2.492 -2.205,3.833 -4.371,3.033c-0,0 -2.275,-0.825 -5.692,-2.062c-3.454,-1.184 -7.787,-2.888 -12.454,-4.234c-9.258,-2.825 -18.221,-5.3 -18.221,-5.3c0,0 0.146,-2.204 0.292,-4.408c0.112,-2.208 0.258,-4.421 0.258,-4.421c0,0 2.242,0.604 5.659,1.575c3.416,1.013 8.008,2.363 12.562,3.717c4.592,1.416 9.296,2.841 12.746,4.037c3.383,1.238 5.658,2.067 5.658,2.067c2.167,0.8 3.784,3.504 3.563,5.996Z" style="fill-rule:nonzero;"/><path d="M960.808,252.554c-11.866,1.409 -18.295,14.425 -13.596,26.692c2.942,7.142 9.259,12.7 16.642,13.4c3.163,0.312 6.138,-0.154 8.746,-1.221c2.571,-1.008 4.846,-2.637 6.683,-4.746c5.805,-6.771 14.217,-9.512 23.071,-10.45c9.479,-1.133 19.104,-0.596 28.804,-0.35c13.921,0.146 27.442,1.571 41.696,3.117l1.025,0.117c2.575,0.304 2.242,-3.788 -0.367,-4.33c-12.708,-2.616 -24.979,-5.016 -37.541,-6.395c-5.696,-0.68 -11.279,-1.38 -16.975,-1.834c-5.692,-0.371 -11.388,-0.737 -17.046,-1.108c-9.696,-0.846 -19.654,-3.475 -28.138,-9.638c-3.82,-2.62 -8.487,-3.766 -13.004,-3.254Z" style="fill-rule:nonzero;"/><path d="M923.263,227.025c5.179,-0.721 10.137,-2.008 14.691,-3.8c4.596,-1.779 8.746,-3.846 12.529,-6.533c7.534,-5.313 13.409,-12.559 16.788,-21.463c-8.338,-7.721 -18.625,-12.354 -28.875,-14.837c-10.467,-2.075 -21.234,-1.425 -31.188,2.241c-10.175,4.009 -23.658,11.35 -35.083,20.35c-11.538,8.992 -20.758,18.813 -23.621,25.85c3.454,1.275 8.521,1.804 14.546,1.8c5.987,0.1 12.821,0.113 20.058,-0.404c3.638,-0.3 7.238,-0.446 10.838,-0.604c3.6,-0.192 7.2,-0.446 10.729,-0.742c7.017,-0.729 13.408,-1.129 18.587,-1.858Z" style="fill-rule:nonzero;"/><path d="M983.767,193.446c0.7,2.375 -0.625,4.45 -2.9,4.662c-0,0 -9.738,0.992 -19.105,2.213c-9.295,1.067 -18.624,2.929 -18.624,2.929l-2.792,-8.225c-0,0 2.35,-0.429 5.837,-1.067c3.492,-0.6 8.267,-1.525 12.971,-2.15c9.367,-1.216 19.067,-2.208 19.067,-2.208c2.312,-0.237 4.812,1.496 5.546,3.846Z" style="fill-rule:nonzero;"/><path d="M794.979,173.85c-5.179,3.162 -8.046,8.671 -8.487,14.238c-0.48,5.629 1.508,11.375 5.879,16.204c2.608,2.821 5.912,4.687 9.441,5.512c1.763,0.409 3.563,0.559 5.4,0.434c1.8,-0.017 3.563,-0.305 5.325,-0.892c5.95,-2.017 10.105,-6.613 11.867,-12.054c2.792,-8.638 9.625,-15.242 17.304,-19.713c8.154,-4.771 17.3,-8.862 26.3,-12.833c12.567,-5.263 25.863,-10.821 39.309,-14.95l0.92,-0.304c2.463,-0.784 0.696,-4.467 -1.875,-3.9l-9.295,2.166l-9.292,2.605c-6.171,1.758 -12.196,3.558 -18.112,5.404c-10.984,3.858 -21.784,7.841 -32.292,12.108c-4.629,1.942 -9.442,3.238 -14.363,3.783c-2.425,0.292 -4.887,0.317 -7.383,0.28c-2.538,0.025 -5.071,-0.146 -7.604,-0.53c-4.483,-0.679 -9.113,0.055 -13.042,2.442Z" style="fill-rule:nonzero;"/><path d="M705.633,1187.57c-56.316,10.658 -104.441,50.717 -128.429,106.912c-2.462,5.784 5.438,10.842 7.933,5.021c23.109,-54.158 68.663,-92.075 122.921,-102.342c5.842,-1.104 3.346,-10.683 -2.425,-9.591Z" style="fill-rule:nonzero;"/><path d="M447.342,126.95c-0,0 -5.254,1.929 -15.138,5.542c-4.958,1.716 -10.837,4.525 -17.891,7.45c-7.088,2.821 -14.95,6.8 -23.805,11.141c-2.241,1.084 -4.516,2.2 -6.833,3.342c-2.275,1.267 -4.629,2.563 -7.017,3.888c-4.775,2.658 -9.77,5.441 -14.987,8.341c-10.138,6.363 -21.271,12.946 -32.513,21.109c-22.737,15.929 -47.241,35.9 -71.562,60.641c-24.283,24.709 -48.308,54.184 -70.054,88.209c-21.896,33.904 -40.704,72.82 -55.696,114.9c-2.021,5.208 -3.671,10.583 -5.325,15.975c-1.692,5.391 -3.342,10.799 -5.033,16.225c-1.471,5.516 -2.9,11.041 -4.371,16.591l-2.167,8.338l-1.837,8.466c-1.175,5.654 -2.388,11.329 -3.6,17.017c-1.067,5.721 -1.946,11.508 -2.942,17.279c-2.129,11.508 -3.121,23.279 -4.592,35.017c-4.591,47.108 -3.525,95.625 3.125,143.2c13.667,95.216 51.871,185.629 104.404,255.666c1.617,2.209 3.196,4.459 4.85,6.617l5.105,6.35c3.379,4.229 6.725,8.438 10.066,12.625c3.525,4.013 7.054,8.004 10.546,11.975c3.488,3.988 6.942,7.954 10.65,11.625c3.638,3.75 7.238,7.475 10.838,11.179c3.529,3.746 7.42,7.071 11.058,10.596c3.746,3.438 7.312,7.021 11.133,10.271c3.784,3.233 7.567,6.45 11.313,9.646c1.875,1.6 3.746,3.191 5.621,4.779c1.945,1.492 3.858,2.979 5.766,4.462c3.859,2.95 7.642,5.888 11.425,8.796c7.642,5.717 15.467,10.846 23,16.163c7.788,4.829 15.392,9.712 22.996,14.216c7.75,4.213 15.208,8.63 22.775,12.442c30.163,15.404 59.075,26.513 85.304,33.867c6.467,2.1 12.929,3.371 19.104,5.012c3.046,0.767 6.096,1.529 9.071,2.267c2.975,0.587 5.917,1.162 8.817,1.725c5.771,1.108 11.317,2.175 16.608,3.187c5.325,0.734 10.396,1.434 15.209,2.096c9.625,1.542 18.329,1.988 25.862,2.654c3.746,0.284 7.238,0.667 10.433,0.796c3.196,0.088 6.096,0.167 8.705,0.238c10.433,0.287 15.983,0.437 15.983,0.437l-0,7.959c-0,-0 -5.658,-0.155 -16.204,-0.442c-2.642,-0.075 -5.584,-0.154 -8.854,-0.246c-3.23,-0.133 -6.759,-0.521 -10.58,-0.8c-7.641,-0.683 -16.458,-1.137 -26.229,-2.7c-4.887,-0.671 -10.029,-1.383 -15.429,-2.125c-5.4,-1.033 -10.983,-2.108 -16.862,-3.237c-2.9,-0.567 -5.913,-1.15 -8.963,-1.75c-3.012,-0.75 -6.062,-1.517 -9.183,-2.296c-6.246,-1.667 -12.788,-2.958 -19.4,-5.088c-26.596,-7.466 -55.95,-18.737 -86.55,-34.366c-7.642,-3.871 -15.246,-8.346 -23.109,-12.625c-7.712,-4.571 -15.429,-9.521 -23.325,-14.425c-7.641,-5.392 -15.579,-10.596 -23.329,-16.396c-3.821,-2.954 -7.679,-5.929 -11.571,-8.929c-1.945,-1.5 -3.895,-3.009 -5.879,-4.525c-1.871,-1.613 -3.783,-3.225 -5.691,-4.846c-3.788,-3.242 -7.642,-6.504 -11.5,-9.788c-3.859,-3.3 -7.496,-6.933 -11.28,-10.416c-3.708,-3.58 -7.641,-6.955 -11.241,-10.754c-3.638,-3.759 -7.309,-7.538 -10.984,-11.338c-3.745,-3.729 -7.275,-7.75 -10.8,-11.796c-3.529,-4.029 -7.091,-8.083 -10.691,-12.15c-3.379,-4.25 -6.796,-8.516 -10.25,-12.808l-5.142,-6.446c-1.692,-2.183 -3.271,-4.467 -4.921,-6.708c-53.308,-71.055 -92.062,-162.8 -105.912,-259.421c-6.796,-48.275 -7.863,-97.479 -3.196,-145.275c1.504,-11.904 2.496,-23.846 4.667,-35.529c0.991,-5.855 1.908,-11.721 2.975,-17.529c1.212,-5.771 2.458,-11.53 3.67,-17.267l1.838,-8.592l2.242,-8.462c1.47,-5.63 2.937,-11.242 4.408,-16.83c1.692,-5.508 3.417,-10.995 5.108,-16.466c1.688,-5.475 3.379,-10.929 5.4,-16.213c15.209,-42.696 34.309,-82.183 56.538,-116.587c22.041,-34.517 46.433,-64.421 71.046,-89.488c24.65,-25.104 49.52,-45.366 72.591,-61.521c11.425,-8.283 22.704,-14.97 33.025,-21.42c5.292,-2.946 10.363,-5.767 15.213,-8.467c2.425,-1.342 4.775,-2.654 7.087,-3.938c2.35,-1.162 4.667,-2.295 6.909,-3.395c9,-4.405 16.97,-8.442 24.17,-11.309c7.163,-2.966 13.155,-5.812 18.184,-7.554c10.029,-3.667 15.358,-5.625 15.358,-5.625l2.242,7.571Z" style="fill-rule:nonzero;"/><path d="M512.292,83.021c-6.43,0.846 -12.6,2.112 -18.334,4.221c-5.729,2.229 -11.02,4.962 -15.758,8.108c-2.387,1.588 -4.667,3.229 -6.763,5.05c-2.054,1.9 -4.004,3.888 -5.804,5.95c-3.525,4.129 -6.5,8.571 -8.741,13.246c4.3,2.667 8.891,4.792 13.704,6.342c2.425,0.775 4.883,1.404 7.383,1.891c2.533,0.559 5.142,1.063 7.788,1.371c5.291,0.637 10.729,0.688 16.275,0.104c5.583,-0.466 11.312,-1.229 17.116,-2.833c2.904,-0.754 6.138,-1.829 9.592,-2.834c3.488,-0.941 7.238,-2.025 11.054,-3.237c3.859,-1.204 7.863,-2.542 11.867,-3.946c4.042,-1.179 8.121,-2.454 12.125,-3.787c4.042,-1.338 7.971,-2.734 11.754,-4.171c3.746,-1.292 7.383,-2.509 10.692,-3.821c6.612,-2.6 12.121,-5.304 15.504,-7.967c-3.383,-2.471 -9.004,-4.879 -15.946,-7.1c-3.454,-1.096 -7.275,-2.212 -11.312,-3.15c-4.042,-0.791 -8.305,-1.512 -12.675,-2.158c-4.371,-0.646 -8.817,-1.213 -13.3,-1.7c-4.446,-0.267 -8.892,-0.425 -13.15,-0.513c-4.301,-0.087 -8.451,-0.095 -12.346,-0.016c-3.892,0.141 -7.492,0.583 -10.725,0.95Z" style="fill-rule:nonzero;"/><path d="M439.258,125.721c-0.662,-2.079 0.809,-4.5 3.271,-5.408c0,-0 2.609,-0.946 6.463,-2.367c3.933,-1.325 9.187,-2.858 14.437,-4.496c5.254,-1.563 10.471,-3.375 14.513,-4.246c3.966,-1 6.65,-1.662 6.65,-1.662l1.654,7.745c-0,0 -2.608,0.655 -6.542,1.638c-3.966,0.854 -9.071,2.646 -14.291,4.179c-5.142,1.621 -10.359,3.129 -14.217,4.438c-3.817,1.4 -6.354,2.329 -6.354,2.329c-2.425,0.892 -4.921,-0.071 -5.584,-2.15Z" style="fill-rule:nonzero;"/><path d="M453.658,1098.93c-2.9,-5.554 -2.791,-11.725 -0.475,-16.8c2.313,-4.991 6.829,-9.146 12.854,-10.658c3.567,-0.909 7.275,-0.621 10.655,0.691c3.379,1.346 6.612,3.271 9,6.313c4.116,5.121 5.437,11.404 4.337,17.054c-0.883,4.533 -0.662,9.1 0.367,13.608c0.991,4.476 2.829,8.717 4.996,12.863c2.35,4.392 4.995,8.717 7.75,13.042l4.225,6.483c1.47,2.075 2.941,4.146 4.375,6.204c4.112,5.871 8.337,11.783 12.708,17.721c4.408,6 9,11.417 13.704,17.192l0.658,0.804c1.73,2.062 -1.541,4.191 -3.45,2.254c-9.404,-9.246 -18.15,-19.554 -26.525,-29.371c-7.604,-9.075 -14.766,-19.162 -21.82,-28.346c-3.05,-4.254 -6.505,-8.137 -10.434,-11.387c-3.896,-3.313 -8.304,-5.759 -12.971,-8.134c-4.112,-1.975 -7.712,-5.245 -9.954,-9.533Z" style="fill-rule:nonzero;"/><path d="M438.304,1092.25c2.717,4.842 4.85,9.817 6.429,14.821c1.617,4.917 2.68,9.75 3.084,14.612c0.883,9.696 -0.659,19.2 -4.921,27.638c-10.8,-2.238 -20.575,-7.988 -28.767,-15.158c-8.079,-7.455 -14.254,-17.117 -17.887,-27.717c-3.454,-11.092 -6.542,-27.171 -7.275,-42.392c-0.7,-15.366 0.625,-29.325 3.891,-36.162c3.088,2.158 6.613,6.112 10.4,11.229c3.854,4.921 8.079,10.762 12.234,17.2c8.483,12.417 17.262,26.442 22.812,35.929Z" style="fill-rule:nonzero;"/><path d="M451.896,1164.37c2.166,-0.913 2.829,-3.325 1.542,-5.371c-0,0 -5.363,-8.833 -10.321,-17.521c-2.5,-4.383 -4.959,-8.591 -6.688,-11.962c-1.725,-3.359 -2.866,-5.592 -2.866,-5.592l-7.675,2.767c-0,-0 1.137,2.237 2.862,5.591c1.767,3.313 4.042,7.988 6.579,12.284c4.958,8.683 10.321,17.521 10.321,17.521c1.287,2.104 4.079,3.133 6.246,2.283Z" style="fill-rule:nonzero;"/><path d="M298.779,997.154c-1.029,-12.954 9.442,-22.379 21.417,-19.754c7.2,1.488 13.408,7.221 15.466,14.988c1.871,6.487 0.88,12.683 -2.204,17.408c-4.958,7.521 -5.804,17.05 -4.925,26.692c0.954,10.191 3.417,20.241 5.475,30.633c1.434,7.412 3.342,14.35 5.18,21.662c1.912,7.18 3.783,14.759 6.099,21.85l0.292,1.013c0.846,2.6 -2.975,3.179 -4.041,0.612c-2.496,-6.42 -4.776,-12.962 -7.05,-19.337c-2.205,-6.396 -4.409,-12.642 -6.284,-19.213c-3.454,-11.862 -6.725,-23.591 -9.441,-35.554c-1.25,-5.183 -3.121,-10.112 -5.546,-14.733c-2.317,-4.796 -5.217,-9.242 -8.784,-13.229c-1.579,-1.754 -2.9,-3.746 -3.929,-5.904c-0.917,-2.238 -1.504,-4.65 -1.725,-7.134Z" style="fill-rule:nonzero;"/><path d="M287.021,984.463c3.05,22.141 -2.792,42.6 -16.788,54.333c-8.633,-7.2 -16.162,-15.95 -20.645,-26.484c-2.313,-5.179 -4.113,-10.562 -5.217,-16.066c-0.992,-5.659 -1.321,-11.404 -0.954,-17.125c0.366,-5.767 1.175,-12.546 2.754,-19.9c1.579,-7.342 3.675,-14.971 6.1,-22.092c4.662,-14.171 11.275,-26.642 16.75,-31.496c0.992,1.688 1.912,3.859 2.792,6.375c0.954,2.442 1.875,5.259 2.72,8.359c1.763,6.179 3.159,13.683 4.884,21.129c0.808,3.771 1.579,7.65 2.316,11.541c0.33,1.959 0.659,3.9 1.03,5.821c0.366,1.888 0.733,3.746 1.1,5.571c1.395,7.346 2.533,14.329 3.158,20.033Z" style="fill-rule:nonzero;"/><path d="M273.1,1056.28c2.313,0.112 3.821,-1.804 3.417,-4.254c-0,-0 -0.442,-2.55 -1.067,-6.384c-0.625,-3.854 -1.542,-8.766 -2.092,-13.975c-1.25,-10.295 -2.241,-20.283 -2.241,-20.283c-0,0 -2.021,-0.158 -4.079,-0.317c-2.059,-0.15 -4.08,-0.362 -4.08,-0.362c0,-0 0.221,2.529 0.625,6.304c0.442,3.817 1.029,8.904 1.617,13.996c0.625,5.125 1.287,10.367 1.875,14.229c0.625,3.829 1.067,6.383 1.067,6.383c0.4,2.446 2.641,4.546 4.958,4.663Z" style="fill-rule:nonzero;"/><path d="M194.042,837.021c1.729,-6.088 6.025,-10.221 11.021,-11.846c4.925,-1.587 10.8,-0.821 15.945,2.9c3.046,2.217 5.4,5.35 6.834,8.933c1.358,3.609 2.275,7.459 1.833,11.421c-0.658,6.759 -4.004,12.104 -8.558,15.088c-3.638,2.396 -6.575,5.691 -8.963,9.558c-2.279,3.838 -3.933,8.188 -5.254,12.75c-2.683,9.654 -4.704,20.304 -6.246,30.483c-1.175,7.259 -2.312,14.655 -3.341,22.188c-0.921,7.454 -1.58,14.908 -2.28,22.562l-0.075,1.075c-0.216,2.775 -3.891,1.617 -3.891,-1.22c0.108,-7 0.037,-13.717 0.479,-20.655c0.404,-6.904 0.841,-13.695 1.358,-20.379c0.367,-6.062 1.175,-12.321 1.946,-18.462c0.771,-6.05 1.542,-12.117 2.317,-18.167c0.77,-5.296 1.025,-10.704 0.55,-16.021c-0.405,-5.346 -1.763,-10.521 -3.342,-15.825c-1.471,-4.629 -1.729,-9.708 -0.333,-14.383Z" style="fill-rule:nonzero;"/><path d="M188.054,820.275c-1.396,5.45 -3.304,10.542 -5.621,15.2c-2.241,4.638 -4.775,8.767 -7.75,12.433c-5.954,7.305 -13.408,12.567 -22.041,14.921c-5.842,-10.054 -8.634,-21.741 -9.371,-33.1c-0.438,-11.5 1.837,-22.966 6.542,-33.071c5.104,-10.304 13.883,-23.712 23.658,-34.637c9.917,-11.033 20.279,-19.508 27.108,-21.575c0.663,3.921 0.371,9.412 -0.512,15.883c-0.663,6.404 -1.763,13.734 -3.271,21.409c-2.608,15.17 -6.133,31.683 -8.742,42.537Z" style="fill-rule:nonzero;"/><path d="M148.6,880.217c2.092,1.104 4.188,-0.009 4.7,-2.434c0,0 2.317,-10.262 4.779,-20.125c2.313,-9.841 5.363,-19.525 5.363,-19.525l-7.092,-4.183c0,0 -0.733,2.429 -1.837,6.075c-1.03,3.65 -2.609,8.646 -3.821,13.583c-2.459,9.859 -4.775,20.121 -4.775,20.121c-0.55,2.446 0.662,5.371 2.683,6.488Z" style="fill-rule:nonzero;"/><path d="M157.158,644.954c8.267,-9.667 21.492,-7.796 28.067,3.483c4.117,6.734 4.004,15.609 0.404,22.517c-2.975,5.909 -7.971,9.359 -13.262,10.117c-8.45,1.196 -15.538,7.037 -21.492,14.308c-5.988,7.675 -11.35,16.488 -16.933,25.213c-3.93,6.154 -7.421,12.395 -11.096,18.833c-3.563,6.417 -7.421,13.054 -10.617,19.712l-0.442,0.946c-1.212,2.43 -4.187,-0.204 -3.195,-2.787c2.575,-6.338 5.512,-12.634 8.266,-18.759c2.904,-6.149 5.475,-12.112 8.671,-18.062c2.867,-5.421 5.767,-10.783 8.671,-16.067l4.296,-7.866l4.666,-7.784c5.363,-9.058 8.3,-19.304 9.184,-30.433c0.258,-4.892 1.875,-9.671 4.812,-13.371Z" style="fill-rule:nonzero;"/><path d="M157.929,626.958c-6.5,8.805 -14.362,15.471 -22.517,19.613c-8.083,4.129 -16.862,5.717 -25.679,4.142c-0.883,-5.875 -0.625,-11.796 0,-17.588c0.659,-5.792 1.763,-11.467 3.638,-16.842c4.075,-10.725 9.879,-20.308 18.254,-27.533c4.192,-3.617 9.554,-7.583 15.467,-11.354c5.879,-3.775 12.308,-7.354 18.958,-10.258c13.112,-5.871 25.642,-9.213 32.696,-8.163c-0.809,3.879 -3.05,8.817 -6.209,14.379c-3.195,5.554 -6.649,11.867 -10.875,18.267c-4.3,6.387 -8.229,13.037 -12.416,19.158c-2.059,3.063 -4.117,6 -6.063,8.729c-1.908,2.729 -3.6,5.25 -5.254,7.45Z" style="fill-rule:nonzero;"/><path d="M99.813,664.913c1.47,1.908 3.783,1.795 5.179,-0.205c-0,0 5.804,-8.404 11.645,-16.379c2.792,-4 6.063,-7.912 8.342,-10.812c2.313,-2.875 3.854,-4.792 3.854,-4.792l-5.033,-6.917c0,0 -6.171,7.588 -12.379,15.605c-3.196,3.995 -5.95,8.075 -8.154,11.175c-2.167,3.125 -3.638,5.204 -3.638,5.204c-1.396,2 -1.321,5.208 0.183,7.121Z" style="fill-rule:nonzero;"/><path d="M194.079,452.9c10.946,-5.346 22.629,2.217 24.284,15.254c1.212,7.871 -1.8,16.063 -7.863,20.729c-4.958,4.088 -10.725,5.134 -15.871,3.546c-8.191,-2.558 -16.75,-0.233 -24.871,3.875c-8.558,4.371 -16.458,10.225 -24.795,15.813c-5.988,3.925 -11.425,8.162 -17.155,12.491c-5.62,4.355 -11.5,8.821 -17.012,13.525l-0.771,0.663c-1.946,1.721 -3.783,-1.988 -1.875,-3.921c4.85,-4.675 9.7,-9.225 14.475,-13.65c4.813,-4.437 9.554,-8.746 14.658,-12.829c9.15,-7.517 18.259,-14.754 27.775,-21.513c4.075,-2.995 7.788,-6.516 10.946,-10.55c3.417,-3.941 6.321,-8.387 8.596,-13.354c1.983,-4.387 5.179,-8.075 9.479,-10.079Z" style="fill-rule:nonzero;"/><path d="M201.204,436.688c-18.254,10.462 -38.058,11.279 -52.937,0.883c1.691,-5.617 3.896,-11.033 6.541,-16.088c1.359,-2.525 2.792,-4.975 4.371,-7.3c1.654,-2.27 3.454,-4.433 5.325,-6.479c3.75,-4.083 7.863,-7.679 12.271,-10.654c4.521,-2.917 9.517,-5.117 14.583,-6.658c5.146,-1.521 11.425,-2.896 18.225,-3.779c6.942,-0.809 14.288,-1.2 21.305,-1.084c7.016,0.125 13.666,0.7 19.4,1.867c5.804,1.183 10.541,2.821 13.591,4.829c-2.425,3.058 -6.171,6.7 -10.983,10.517c-4.888,3.783 -10.875,7.75 -16.792,11.979c-12.341,8.096 -25.308,16.904 -34.9,21.967Z" style="fill-rule:nonzero;"/><path d="M134.05,446.338c0.662,2.399 2.829,3.3 4.813,2.058c-0,-0 2.095,-1.284 5.216,-3.213c3.163,-1.891 7.167,-4.458 11.463,-6.783c8.562,-4.696 16.937,-9.004 16.937,-9.004l-2.133,-8.55c-0,-0 -8.375,4.308 -16.934,9.008c-4.225,2.359 -8.67,4.725 -11.758,6.646c-3.121,1.929 -5.179,3.217 -5.179,3.217c-2.021,1.241 -3.083,4.229 -2.425,6.621Z" style="fill-rule:nonzero;"/><path d="M298.85,292.779c11.867,-0.379 19.837,11.625 16.754,24.567c-0.921,3.858 -2.904,7.283 -5.55,9.937c-2.608,2.704 -5.729,4.83 -9.329,5.73c-6.133,1.57 -11.904,-0.071 -16.017,-3.738c-6.65,-5.954 -15.358,-7.504 -24.137,-7.083c-9.367,0.4 -19.213,1.958 -28.617,3.737c-6.758,1.184 -13.591,2.471 -20.5,3.913c-6.683,1.591 -13.516,3.312 -20.387,5.162l-0.992,0.263c-2.5,0.679 -2.683,-3.442 -0.183,-4.363c6.096,-2.221 12.05,-4.441 18.108,-6.383c6.175,-1.879 12.233,-3.663 18.258,-5.35c2.721,-0.742 5.475,-1.492 8.23,-2.242c2.829,-0.633 5.658,-1.271 8.487,-1.904c5.546,-1.217 11.096,-2.433 16.604,-3.642c4.813,-1.054 9.7,-2.5 14.146,-4.77c4.554,-2.171 8.558,-5.317 12.671,-8.692c3.566,-3.058 7.9,-4.996 12.454,-5.142Z" style="fill-rule:nonzero;"/><path d="M311.454,281.079c-5.216,0.367 -10.287,0.129 -15.137,-0.675c-4.738,-0.7 -9.221,-1.941 -13.409,-3.766c-8.341,-3.646 -15.391,-9.53 -20.316,-17.555c6.833,-9.283 16.054,-16.066 25.716,-20.583c9.846,-4.321 20.609,-5.804 31.005,-4.379c10.654,1.796 25.274,6.225 38.095,12.592c12.896,6.404 23.734,14.095 27.813,20.395c-3.2,1.975 -8.046,3.559 -14,4.825c-5.842,1.417 -12.563,2.813 -19.763,3.834c-14.108,2.4 -29.645,4.383 -40.004,5.312Z" style="fill-rule:nonzero;"/><path d="M246.096,260.767c-0.217,2.516 1.433,4.283 3.675,3.971c-0,-0 2.425,-0.284 6.025,-0.634c3.6,-0.316 8.342,-0.741 13.117,-1.171c4.737,-0.362 9.329,-0.741 12.891,-0.883c3.529,-0.092 5.879,-0.158 5.879,-0.158l1.288,-8.642c-0,0 -2.354,0.063 -5.879,0.158c-3.525,0.159 -8.45,0.18 -13.117,0.638c-9.404,0.742 -19.138,1.783 -19.138,1.783c-2.279,0.259 -4.483,2.442 -4.741,4.938Z" style="fill-rule:nonzero;"/><path d="M453.771,191.038c11.054,5.029 13.921,19.445 6.242,29.662c-4.517,6.267 -12.046,9.525 -19.359,7.904c-6.171,-1.192 -10.762,-4.996 -13.225,-10.162c-3.858,-8.238 -11.279,-13.442 -19.579,-17.054c-8.783,-3.809 -18.15,-6.076 -27.629,-8.88c-6.721,-2.05 -13.258,-3.462 -20.092,-5.058c-6.796,-1.471 -13.85,-3.146 -20.721,-4.233l-0.991,-0.159c-2.5,-0.4 -1.213,-4.341 1.358,-4.166c6.429,0.596 12.858,1.379 19.104,2.158c6.283,0.783 12.417,1.592 18.625,2.842c11.35,2.121 22.446,4.421 33.504,7.337c4.813,1.2 9.7,1.696 14.621,1.492c4.958,0.012 9.954,-0.721 14.879,-2.304c2.129,-0.696 4.409,-1.05 6.613,-1.009c2.241,0.092 4.516,0.68 6.65,1.63Z" style="fill-rule:nonzero;"/><path d="M469.567,185.625c-19.509,-7.283 -33.579,-22.438 -36.663,-41.292c4.921,-2.52 10.063,-4.466 15.317,-5.804c2.608,-0.658 5.254,-1.212 7.9,-1.525c2.683,-0.221 5.325,-0.287 8.008,-0.2c5.292,0.183 10.542,1 15.575,2.475c5.034,1.559 9.921,4.038 14.438,7.017c4.521,3.016 9.737,7.121 14.954,11.833c5.25,4.954 10.542,10.533 15.246,16.184c4.7,5.65 8.816,11.379 11.937,16.633c3.121,5.316 5.254,10.266 5.988,14.029c-3.709,0.125 -8.704,-0.167 -14.584,-1.517c-2.937,-0.633 -6.1,-1.454 -9.366,-2.412c-3.309,-0.888 -6.688,-1.696 -10.142,-2.713c-13.883,-4.321 -28.654,-8.525 -38.608,-12.708Z" style="fill-rule:nonzero;"/><path d="M417.254,139.029c-1.175,2.167 -0.296,4.5 1.909,5.229c-0,0 2.279,0.775 5.733,1.929c3.417,1.221 7.858,2.605 12.379,4.459c9,3.575 17.633,7.279 17.633,7.279l4.334,-7.529c-0,-0 -8.634,-3.692 -17.634,-7.267c-4.479,-1.758 -9.108,-3.612 -12.525,-4.787c-3.416,-1.155 -5.695,-1.925 -5.695,-1.925c-2.205,-0.734 -4.959,0.445 -6.134,2.612Z" style="fill-rule:nonzero;"/><path d="M510.563,1252.59c11.575,-4.809 20.095,-12.263 25.458,-20.38c5.4,-8.212 7.679,-17.512 7.017,-27.158c-5.621,-1.458 -11.313,-2.292 -17.009,-2.525c-5.729,-0.158 -11.35,-0.342 -16.971,0.429c-5.583,0.634 -11.166,2.109 -16.57,3.746c-5.4,1.642 -10.65,3.904 -15.721,6.783c-10.138,5.98 -24.063,15.096 -36.738,24.617c-12.675,9.692 -23.766,18.875 -26.596,26.042c2.609,0.833 5.73,1.504 9.221,2.029c3.525,0.412 7.459,0.592 11.646,0.658c8.375,0.009 17.671,-0.104 27.146,-1.641c9.442,-1.421 18.808,-2.971 27.296,-5.317c8.525,-2.371 16.054,-4.908 21.82,-7.283Z" style="fill-rule:nonzero;"/><path d="M557.329,1195.37c1.725,1.704 1.542,4.212 -0.442,5.604c0,0 -8.299,6.021 -16.933,11.221c-8.596,5.379 -17.6,10.687 -17.6,10.687c0,0 -1.542,-1.595 -3.083,-3.308c-1.542,-1.717 -3.05,-3.442 -3.05,-3.442c-0,0 2.241,-1.175 5.546,-3.1c3.27,-2.008 7.641,-4.683 12.016,-7.354c4.259,-2.7 8.484,-5.391 11.679,-7.412c1.58,-1.013 2.867,-1.863 3.784,-2.455c0.921,-0.629 1.433,-0.991 1.433,-0.991c1.983,-1.392 4.925,-1.146 6.65,0.55Z" style="fill-rule:nonzero;"/><path d="M343.488,1192.92c-13.742,2.037 -19.142,15.5 -8.671,29.233c6.133,8.346 17.337,13.454 26.929,13.454c4.15,-0.021 7.604,-0.904 10.321,-2.433c2.754,-1.596 4.737,-3.808 5.95,-6.388c3.895,-8.262 12.604,-13.187 21.858,-16.729c4.962,-1.929 9.958,-3.466 15.1,-5.333c5.071,-1.854 10.175,-3.675 15.062,-5.621c13.813,-5.25 27.334,-11.812 40.225,-18.208l0.884,-0.454c2.35,-1.167 -0,-4.546 -2.425,-3.575c-6.063,2.379 -12.196,4.72 -18.479,7.029c-6.28,2.366 -12.525,4.125 -18.955,6.15c-5.841,1.737 -11.904,3.691 -17.966,5.216c-6.059,1.484 -12.234,2.905 -18.475,4.188c-11.096,2.479 -23.146,0.787 -35.234,-3.988c-5.287,-2.195 -10.837,-3.362 -16.125,-2.541Z" style="fill-rule:nonzero;"/><path d="M294.188,1162.6c6.208,0.242 11.9,-0.296 17.008,-1.529c5.142,-1.279 9.808,-3.404 13.812,-6.009c8.009,-5.254 13.517,-12.812 16.496,-21.908c-9.441,-7.146 -19.471,-13.167 -30.421,-16.533c-10.725,-3.688 -22.041,-5.317 -33.466,-4.346c-11.204,0.654 -27.734,3.521 -42.725,6.587c-14.95,3.105 -28.763,7.096 -33.942,12.4c4.188,3.667 10.542,7.625 18.038,11.488c7.566,3.787 16.529,7.104 25.495,10.175c18.255,5.804 37.175,9.383 49.705,9.675Z" style="fill-rule:nonzero;"/><path d="M358.108,1130.66c0.917,2.309 -0.15,4.525 -2.5,4.942c0,-0 -9.625,1.512 -19.579,2.813c-4.958,0.612 -10.066,1.337 -13.775,1.608c-3.787,0.292 -6.283,0.487 -6.283,0.487l-3.121,-8.854c0,0 2.496,-0.196 6.242,-0.487c3.787,-0.342 8.633,-0.646 13.629,-1.309c9.958,-1.287 19.583,-2.804 19.583,-2.804c2.313,-0.358 4.884,1.246 5.804,3.604Z" style="fill-rule:nonzero;"/><path d="M163,1035.9c-13.117,-4.241 -23.179,5.979 -18.625,23.038c2.9,9.933 10.725,19.987 19.763,23.904c7.716,3.408 14.145,2.504 18.22,-1.179c6.65,-5.946 16.205,-6.454 26.084,-5.8c10.616,0.641 21.27,2.304 31.666,3c14.954,0.666 29.171,1.295 43.68,0.566l1.029,-0.041c2.57,-0.1 1.654,-4.146 -0.992,-4.279l-9.771,-0.588l-9.7,-1.004c-6.5,-0.713 -13.112,-1.504 -19.762,-2.388c-5.988,-0.966 -12.05,-2.021 -18.259,-3.17c-6.133,-1.188 -12.525,-2.33 -18.55,-4.021c-10.729,-2.888 -21.825,-8.917 -30.75,-18.929c-3.966,-4.334 -8.854,-7.596 -14.033,-9.109Z" style="fill-rule:nonzero;"/><path d="M128.946,986.85c22.737,11.467 42.137,7.542 54.221,-6.646c-5.584,-10.966 -13.296,-20.258 -21.675,-28.375c-4.259,-4.004 -8.963,-7.479 -13.846,-10.579c-4.779,-3.154 -9.883,-5.788 -15.246,-7.833c-10.95,-3.95 -26.637,-8.763 -41.696,-12.325c-15.212,-3.425 -28.95,-5.934 -35.708,-3.279c1.212,2.616 2.862,5.533 4.883,8.658c2.134,3.079 4.704,6.312 7.496,9.666c5.696,6.659 12.121,13.909 19.617,20.371c7.421,6.513 14.766,12.9 22.225,17.992c7.383,5.142 14.216,9.396 19.729,12.35Z" style="fill-rule:nonzero;"/><path d="M199.517,984.908c-0,2.525 -1.8,4.092 -4.079,3.463c-0,-0 -2.425,-0.671 -6.025,-1.683c-3.6,-1.017 -8.45,-2.405 -13.15,-4.051c-9.442,-3.174 -19.142,-6.712 -19.142,-6.712c-0,0 0.037,-2.35 0.112,-4.7c0.034,-2.321 0.221,-4.733 0.221,-4.733c0,-0 2.275,0.975 5.913,2.233c3.6,1.242 8.375,2.896 13.116,4.55c4.7,1.546 9.405,3.088 12.93,4.246c3.6,1.017 5.987,1.696 5.987,1.696c2.279,0.629 4.117,3.158 4.117,5.691Z" style="fill-rule:nonzero;"/><path d="M55.4,813.808c-10.729,-9.495 -23.513,-4.583 -25.642,13.084c-1.47,10.541 2.717,22.912 9.292,30.525c5.621,6.55 11.829,8.495 17.008,6.866c8.23,-2.558 17.488,0.98 26.234,5.9c4.662,2.621 9.146,5.525 13.883,8.313c4.742,2.775 9.404,5.55 14.071,8.112c12.967,7.338 26.596,13.6 39.712,19.438l0.917,0.404c2.388,1.038 3.088,-3.104 0.775,-4.379c-5.733,-3.167 -11.537,-6.446 -17.342,-9.833c-5.879,-3.367 -11.316,-7.1 -17.083,-10.813c-5.142,-3.446 -10.617,-6.904 -15.758,-10.683c-5.142,-3.779 -10.325,-7.696 -15.467,-11.784c-9.221,-7.079 -16.275,-17.791 -21.308,-30.62c-2.13,-5.684 -5.142,-10.892 -9.292,-14.53Z" style="fill-rule:nonzero;"/><path d="M42.283,754.05c4.079,5.096 8.305,9.246 12.6,12.467c4.484,3.187 9,5.45 13.521,6.833c9,2.771 17.854,2.004 26.046,-1.85c-1.617,-12.371 -4.408,-24.4 -9.517,-35.375c-4.995,-10.992 -11.312,-21.113 -19.908,-29.508c-8.267,-8.388 -20.979,-19.588 -33.65,-29.354c-12.237,-9.721 -24.25,-17.934 -31.375,-18.434c0.404,5.817 1.838,13.546 4.483,22.1c2.755,8.559 6.392,17.938 10.434,27.142c4.221,9.187 9.146,18.162 13.775,26.108c1.175,1.963 2.312,3.884 3.454,5.746c1.212,1.813 2.425,3.567 3.562,5.258c2.35,3.338 4.555,6.321 6.575,8.867Z" style="fill-rule:nonzero;"/><path d="M107.417,782.958c-0.879,2.313 -3.121,2.959 -5.034,1.4c0,0 -7.566,-6.591 -15.208,-13.612c-3.821,-3.504 -7.712,-7.075 -10.542,-9.821c-2.72,-2.779 -4.558,-4.633 -4.558,-4.633l3.858,-8.525c0,-0 1.838,1.854 4.592,4.633c2.792,2.75 6.246,6.413 10.179,9.892c7.638,7.025 15.209,13.616 15.209,13.616c1.837,1.584 2.495,4.717 1.504,7.05Z" style="fill-rule:nonzero;"/><path d="M38.608,563.85c-6.391,-13.329 -19.908,-14.317 -28.287,0.963c-2.459,4.529 -4.15,10.05 -4.592,15.679c-0.367,5.637 0.258,11.366 1.913,16.266c2.829,8.425 7.75,12.88 13.041,13.613c8.375,1.196 15.65,8.421 21.896,16.692c6.683,8.825 12.638,18.387 19.579,27.1c4.775,6.154 9.517,12.154 14.292,17.991c4.846,5.834 10.029,11.492 14.988,17.004l0.733,0.771c1.8,1.975 3.933,-1.508 2.242,-3.687c-8.521,-10.742 -16.201,-22.029 -23.988,-33.809c-1.767,-2.691 -3.6,-5.42 -5.329,-8.187c-1.688,-2.796 -3.379,-5.6 -5.067,-8.408c-3.346,-5.671 -6.687,-11.496 -9.958,-17.45c-2.975,-5.234 -4.813,-11.046 -6.279,-17.313c-1.363,-6.258 -2.171,-12.975 -1.988,-19.917c0.296,-6.095 -0.696,-12.191 -3.196,-17.308Z" style="fill-rule:nonzero;"/><path d="M48.529,503.383c3.709,12.863 9.442,22.505 16.825,28.938c7.275,6.417 15.725,9.537 24.613,9.512c0.808,-3.004 1.471,-6.029 2.02,-9.079c0.551,-3.037 1.175,-6.058 1.542,-9.112c0.775,-6.1 0.996,-12.25 0.625,-18.388c-0.291,-12.167 -2.717,-24.279 -7.383,-35.637c-4.296,-11.192 -12.271,-27.134 -19.983,-41.442c-7.642,-14.229 -15.725,-27.008 -22.08,-30.554c-1.8,5.512 -3.12,13.337 -4.004,22.287c-0.771,9.004 -0.7,19.275 -0.366,29.475c0.108,5.088 0.587,10.259 1.137,15.304c0.55,5.042 1.175,9.95 1.875,14.605c1.283,9.279 3.267,17.666 5.179,24.091Z" style="fill-rule:nonzero;"/><path d="M97.754,557.942c-1.762,1.725 -4.037,1.354 -5.142,-0.88c0,0 -4.554,-9.316 -9.037,-19.058c-2.242,-4.858 -4.554,-9.821 -5.988,-13.517c-1.541,-3.741 -2.533,-6.233 -2.533,-6.233l6.646,-6.167c-0,0 3.971,10.038 8.158,19.675c4.479,9.746 9.071,19.059 9.071,19.059c1.067,2.229 0.554,5.4 -1.175,7.121Z" style="fill-rule:nonzero;"/><path d="M115.242,327.104c-0.442,-7.475 -3.563,-12.829 -8.375,-15.133c-4.738,-2.254 -11.388,-1.525 -17.854,3.758c-3.896,3.104 -7.346,7.525 -9.884,12.458c-1.283,2.467 -2.35,5.063 -3.158,7.684c-0.696,2.662 -1.138,5.371 -1.25,7.991c-0.442,9.017 2.462,15.267 7.054,18.23c7.383,4.82 10.913,14.362 13.742,24.737c2.937,11.046 4.958,22.454 7.896,33.35c4.37,15.492 8.558,30.238 14.033,44.792l0.367,1.012c0.958,2.604 4.154,0.317 3.416,-2.421l-2.791,-10.191l-2.313,-10.225c-1.546,-6.879 -3.05,-13.871 -4.521,-20.984c-2.237,-12.816 -4.591,-26.358 -5.987,-40.025c-0.55,-5.962 -0.33,-12.233 0.625,-18.62c0.512,-3.184 1.137,-6.442 2.096,-9.613c0.991,-3.154 2.204,-6.308 3.599,-9.433c2.459,-5.5 3.709,-11.571 3.305,-17.367Z" style="fill-rule:nonzero;"/><path d="M146.654,276.013c-2.391,27.075 7.384,45.529 23.767,53.208c7.787,-9.304 13.225,-20.346 17.558,-31.546c2.059,-5.675 3.638,-11.583 4.629,-17.654c1.142,-5.925 1.767,-12.004 1.767,-18.175c0.033,-6.133 -0.442,-13.813 -0.921,-21.821c-0.479,-7.988 -1.212,-16.567 -2.166,-24.825c-2.059,-16.613 -4.521,-31.554 -9.038,-37.546c-1.875,2.104 -3.896,4.733 -5.917,7.879c-1.945,3.209 -3.929,6.871 -5.912,10.838c-3.967,7.962 -8.046,17.029 -11.204,26.779c-6.871,19.096 -11.059,39.692 -12.563,52.862Z" style="fill-rule:nonzero;"/><path d="M171.779,347.488c-2.204,0.841 -4.187,-0.5 -4.371,-3.038c0,0 -0.22,-2.667 -0.516,-6.671c-0.255,-3.979 -0.771,-9.504 -0.88,-14.812c-0.329,-10.704 -0.441,-21.754 -0.441,-21.754c-0,-0 2.058,-0.726 4.15,-1.446c2.058,-0.696 4.117,-1.396 4.117,-1.396c-0,-0 -0,2.75 0.075,6.85c0.108,4.058 0.216,9.471 0.366,14.887c0.184,5.371 0.329,10.625 0.588,14.617c0.291,4 0.512,6.671 0.512,6.671c0.183,2.537 -1.396,5.246 -3.6,6.092Z" style="fill-rule:nonzero;"/><path d="M272.842,143.504c4.629,-14.129 -3.896,-25.516 -19.984,-21.804c-9.625,2.025 -18.991,10.396 -23.404,19.629c-1.908,3.975 -2.791,7.704 -2.791,11.013c0.075,3.375 0.958,6.308 2.5,8.658c4.958,7.546 4.995,18.175 3.6,28.713c-1.58,11.104 -3.638,22.779 -4.959,34c-2.133,15.65 -2.975,31.729 -3.75,46.991l-0.071,1.075c-0.112,2.759 3.746,2.109 4.075,-0.691c1.73,-13.763 3.675,-28.042 6.58,-41.975c1.245,-6.417 2.495,-13.1 4.037,-19.659c1.583,-6.496 3.271,-13.075 5.108,-19.671c3.088,-11.77 10.03,-22.562 19.509,-31.958c4.258,-4.037 7.75,-8.858 9.55,-14.321Z" style="fill-rule:nonzero;"/><path d="M320.417,110.154c-3.088,5.859 -5.254,11.575 -6.613,17.067c-1.358,5.5 -1.729,10.987 -1.433,16.017c0.587,10.12 4.225,18.925 10.321,25.966c10.212,-5.796 19.804,-12.608 27.591,-21.591c7.971,-8.563 14.509,-18.73 19.03,-30.142c4.629,-11.038 9.916,-28.263 14.362,-44.088c4.371,-15.779 7.496,-30.883 5.583,-38.325c-4.958,2.334 -11.166,6.609 -17.816,12.021c-6.613,5.513 -13.484,12.604 -20.13,19.804c-3.379,3.563 -6.541,7.438 -9.554,11.334c-3.05,3.87 -5.912,7.716 -8.596,11.441c-5.4,7.317 -9.695,14.65 -12.745,20.496Z" style="fill-rule:nonzero;"/><path d="M317.071,186.313c-2.35,-0.184 -3.634,-2.259 -2.9,-4.667c-0,-0 3.196,-9.946 6.721,-20.125c3.454,-10.292 7.533,-20.217 7.533,-20.217l8.704,1.071c0,0 -0.992,2.496 -2.458,6.242c-1.471,3.766 -3.454,8.612 -5.217,13.671c-3.567,10.175 -6.762,20.12 -6.762,20.12c-0.771,2.38 -3.267,4.117 -5.621,3.905Z" style="fill-rule:nonzero;"/><path d="M485.033,42.858c4.738,-5.533 6.246,-11.562 4.517,-16.979c-1.725,-5.35 -6.721,-10.021 -14.729,-11.567c-4.742,-0.975 -10.104,-0.687 -15.175,0.646c-2.533,0.663 -5.033,1.588 -7.346,2.746c-2.279,1.271 -4.408,2.767 -6.246,4.454c-6.391,5.809 -8.633,12.371 -7.529,18.017c1.8,9.146 -2.242,18.45 -7.35,27.742c-5.437,9.871 -11.792,19.279 -17.154,28.987c-7.458,14.054 -14.583,27.417 -20.683,41.679l-0.442,0.984c-1.1,2.529 2.646,3.512 3.967,1.046l5,-9.13l5.325,-8.837c3.6,-5.913 7.275,-11.875 11.095,-17.871c7.125,-10.487 14.655,-21.642 22.959,-32.029c3.675,-4.496 8.046,-8.617 13.041,-12.2c2.5,-1.771 5.109,-3.488 7.9,-4.909c2.83,-1.358 5.767,-2.554 8.85,-3.575c5.405,-1.787 10.363,-4.92 14,-9.204Z" style="fill-rule:nonzero;"/><path d="M597.188,1197.16c54.295,10.266 99.85,48.183 122.958,102.341c2.462,5.821 10.396,0.763 7.933,-5.021c-23.987,-56.195 -72.112,-96.254 -128.429,-106.912c-5.804,-1.092 -8.267,8.487 -2.463,9.592Z" style="fill-rule:nonzero;"/></svg>