<?xml version="1.0" encoding="UTF-8" standalone="no"?><!DOCTYPE svg PUBLIC "-//W3C//DTD SVG 1.1//EN" "http://www.w3.org/Graphics/SVG/1.1/DTD/svg11.dtd"><svg width="100%" height="100%" viewBox="0 0 39063 39063" version="1.1" xmlns="http://www.w3.org/2000/svg" xmlns:xlink="http://www.w3.org/1999/xlink" xml:space="preserve" xmlns:serif="http://www.serif.com/" style="fill-rule:evenodd;clip-rule:evenodd;stroke-linejoin:round;stroke-miterlimit:2;"><path d="M19531.2,0c10786.8,0 19531.2,8744.42 19531.2,19531.2c0,10786.8 -8744.41,19531.2 -19531.2,19531.2c-10786.8,0 -19531.2,-8744.41 -19531.2,-19531.2c-0,-10786.8 8744.41,-19531.2 19531.2,-19531.2Z" style="fill:#363639;"/><path d="M19531.2,32028.9c-3340.53,-0 -6378.92,-1317.21 -8623.3,-3459.51l2396.73,-2396.74c510.442,1368.12 1697.2,2520.33 3905.59,2607.81l4652.13,-2.018c3356.8,-65.169 4376.07,-2857.64 4178.15,-4940.83c-355.549,-4056.17 -2315.38,-6197.32 -3274.2,-7014.28c1582.32,297.709 1642.41,1347.42 2069.92,962.591c448.79,-394.128 -728.152,-1195.52 -1654.92,-1489.92l5388.07,-5388.09c2142.29,2244.38 3459.51,5282.77 3459.51,8623.29c-0,6891.68 -5606.02,12497.7 -12497.7,12497.7Zm-299.439,-7279.74c-877.8,-231.38 -1158.6,-1436.59 -589.506,-1436.59c162.8,0 292.968,132.188 292.968,292.969c0,783.801 1191.94,785.298 1191.94,0c-0,-1025.09 -1779.9,-176.473 -1779.9,-1777.88c0,-643.894 404.792,-1020.89 879.363,-1131.78c0.351,-145.742 11.302,-305.26 11.601,-456.81l-2996.12,2996.11c250.924,1588.83 1631.28,2809.39 3289.09,2809.39c1834.79,0 3329.91,-1493.05 3329.91,-3329.92c-0,-1659.77 -1219.1,-3038.67 -2809.26,-3289.19l-518.528,518.514c348.164,2.593 301.796,384.832 302.37,752.944c472.735,112.174 875.273,489.049 875.273,1130.76c0,385.131 -585.872,385.181 -585.872,0c-0,-784.662 -1191.94,-783.92 -1191.94,0c0,1025.1 1779.88,176.471 1779.88,1777.88c0,547.876 -374.57,1010.57 -882.409,1143.44c13.893,381.159 22.54,742.227 -299.427,742.227c-322.383,-0 -313.333,-359.467 -299.439,-742.045Zm-3483.37,-1020.26l-1966.86,1966.86c385.989,1305.78 1396.9,2459.44 3442.89,2500.85l4627.68,-0c1192.06,-46.772 2113.41,-435.3 2729.86,-1151.34c1076.02,-1253.07 880.808,-3126.46 876.656,-3144.86c-337.604,-3852.64 -2172.46,-5862.42 -3069.48,-6627.14c-85.403,25.04 -170.938,48.79 -256.628,71.511l-1587.45,1587.46c1669.79,447.917 2901.83,1974.41 2901.83,3782.4c-0,2158.22 -1755.44,3917.76 -3915.68,3917.76c-1810.06,-0 -3335.62,-1233.93 -3782.81,-2903.5Zm-5255.48,4425.49c-2142.19,-2244.32 -3459.45,-5282.71 -3459.45,-8623.19c0,-6891.67 5606.07,-12497.7 12497.7,-12497.7c3340.47,-0 6378.85,1317.27 8623.18,3459.45l-5204.97,5204.96c517.708,-1680.76 1852.21,-3250.44 1868.54,-3270c99.65,-115.913 93.594,-290.835 -14.244,-398.674c-2052.45,-2050.38 -6263.06,-1739.24 -6442.07,-1724.94c-136.341,10.153 -246.147,113.903 -266.498,248.161c-63.841,424.3 -101.446,824.064 -119.036,1197.89c-2688.96,-1050.41 -3748.49,658.137 -3760.14,675.548c-65.052,105.832 -54.895,240.09 24.401,335.703c896.263,1085.36 1632.49,2872.3 2028.28,4083.45c-967.657,832.995 -2896.22,2971.78 -3246.64,6984.4c-55.365,543.775 -31.367,1129.66 94.414,1701.46l-2623.5,2623.51Zm11693.9,-11693.9l-354.037,354.05c-1625.64,404.622 -3302.07,367.643 -4993.72,-108.191c-23.712,-73.711 -55.027,-168.514 -93.255,-280.287c1810.45,397.071 3636.43,422.046 5441.02,34.428Zm-5679.78,-692.682c-351.497,-918.697 -927.109,-2222.69 -1664.56,-3193.46c308.021,-327.864 1233.36,-1013.92 3121.9,-196.028c19.155,1804.3 492.683,2859.44 519.271,2915.73c69.154,148.503 241.994,211.588 388.478,144.402c509.686,-233.622 -350.131,-822.903 -329.48,-3182.33c12.278,-47.238 13.893,-97.058 2.304,-144.466c8.595,-368.398 38.348,-777.746 97.293,-1233.7c860.39,-32.527 3897.34,-34.545 5553.12,1387.33c-430.507,543.957 -1503.24,2012.02 -1891.08,3567.41c-1908.22,448.738 -3824.22,426.356 -5797.25,-64.882Zm4576.25,1796.22l-1246.73,1246.72c-2396.51,-186.563 -4395.34,1818.2 -4209.45,4209.47l-1991.5,1991.48c-52.59,-382.474 -59.401,-763.905 -29.934,-1121.35c335.703,-3848.55 2174.54,-5858.27 3069.54,-6621.08c1487.21,418.177 2963.65,516.731 4408.07,294.765Zm-1832.67,1832.66l-3037.36,3037.36c135.299,-1611.73 1424.13,-2902.12 3037.36,-3037.36Z" style="fill:#fff;"/></svg>