<?xml version="1.0" encoding="UTF-8" standalone="no"?><!DOCTYPE svg PUBLIC "-//W3C//DTD SVG 1.1//EN" "http://www.w3.org/Graphics/SVG/1.1/DTD/svg11.dtd"><svg width="100%" height="100%" viewBox="0 0 5906 5484" version="1.1" xmlns="http://www.w3.org/2000/svg" xmlns:xlink="http://www.w3.org/1999/xlink" xml:space="preserve" xmlns:serif="http://www.serif.com/" style="fill-rule:evenodd;clip-rule:evenodd;stroke-linejoin:round;stroke-miterlimit:2;"><path d="M4064.91,3729.5c5.468,-3.697 3.644,-1.849 3.644,-5.546c-1.821,1.849 -1.821,3.697 -3.644,5.546Zm38.802,-38.853c5.598,-5.547 9.244,-11.094 14.844,-16.641c-1.954,-0 -1.954,-1.849 -3.777,-1.849c-3.646,7.396 -7.421,12.943 -11.067,18.49Zm-1709.38,-486.537c-1.823,-1.849 -3.646,-1.849 -5.598,-3.697c3.775,3.697 0,-0 5.598,3.697Zm1748.18,451.393l-5.469,-0c1.823,5.547 0,3.698 5.469,-0Zm-1135.81,59.205l0,1.851c0,1.848 1.823,1.848 1.823,3.697c1.824,-0 1.824,-1.849 3.647,-1.849c-0,0 -1.823,-1.848 -5.47,-3.699Zm591.927,-412.551c1.953,1.863 1.953,1.863 3.777,3.711c1.823,-3.711 5.469,-7.408 7.421,-11.107l-0,12.956c-5.598,5.547 -13.021,11.094 -18.489,16.64c3.645,-48.099 -13.021,-86.94 -38.932,-112.837c-35.157,-1.85 -70.313,-1.85 -105.47,-3.699l-0,1.849c9.246,31.445 20.444,90.638 20.444,118.398c-38.933,11.095 -57.423,38.842 -109.245,38.842l-0,-5.547c13.02,-5.548 44.401,-57.343 27.734,-85.105c-11.067,-11.093 -23.958,-24.048 -35.156,-35.143c-16.536,-24.05 -33.203,-48.098 -49.87,-72.148c-61.067,-1.849 -112.89,-18.503 -166.537,-38.855c-0,-18.488 -9.245,-35.142 -5.468,-51.797c9.244,-49.947 110.938,-70.298 147.916,-98.045c31.511,-24.051 29.558,-55.496 46.225,-94.351c14.842,-12.941 27.734,-27.747 42.577,-40.69c13.021,-22.2 24.09,-44.4 36.98,-68.45c3.775,-9.257 3.775,-159.101 0,-173.88c-12.89,-48.126 -49.871,-64.753 -70.313,-103.62c-60.938,-127.643 -125.781,-238.646 -212.629,-331.133c1.821,-1.861 1.821,-3.71 3.644,-5.56c24.088,9.259 38.802,42.553 53.646,61.056c25.911,22.2 50.001,44.4 75.912,64.753c29.558,48.098 59.114,96.184 88.672,142.434c42.578,53.659 116.667,83.254 135.156,157.253c11.067,42.564 23.958,114.7 11.067,160.937c-9.244,27.76 -40.755,66.627 -31.509,103.62l1.953,0c35.156,-7.41 44.4,-31.458 66.537,-46.25c59.243,-40.717 57.29,-61.068 42.576,-140.613c33.334,14.806 55.469,46.25 49.871,92.5c25.911,-14.804 50,-31.444 75.911,-46.25c7.423,-9.244 14.844,-18.502 22.136,-25.884c44.4,-3.711 86.979,-7.41 131.38,-11.12c16.667,53.659 35.156,131.367 50,186.874c-5.598,25.874 -9.245,51.772 -14.844,77.669c-1.823,24.05 -5.468,48.1 -7.421,72.149c-11.068,48.1 -23.958,96.199 -35.158,146.146c-9.244,3.711 -18.488,7.41 -27.734,11.107c-35.156,7.395 -55.467,-3.697 -85.025,7.395c-29.688,11.108 -42.578,33.308 -85.157,35.158c14.844,35.143 -16.667,72.147 -42.578,90.637Zm-562.369,543.893c-16.667,-22.2 -0,-64.753 -9.246,-96.197c-5.598,-9.246 -11.067,-20.353 -18.489,-29.597c0,-1.849 0,-1.849 -1.823,-3.697c-13.02,-22.202 -27.734,-44.402 -40.755,-66.602c-11.067,-35.157 -1.823,-151.693 7.421,-177.604c61.069,44.4 50.001,85.104 86.98,144.295c16.667,24.051 35.156,48.101 51.823,70.301c-5.598,59.205 -38.932,131.354 -75.911,159.101Zm-98.047,-540.182c-1.823,0 -3.647,-1.848 -5.47,-1.848c0,-1.863 1.823,-1.863 1.823,-3.712l5.47,0c-0,1.849 -1.823,3.712 -1.823,5.56Zm-25.912,340.39c-25.911,42.539 -51.822,85.092 -79.557,125.795c-3.646,31.446 -7.292,62.904 -11.067,94.348c-1.823,3.699 -3.646,5.548 -5.469,9.246c-27.865,-18.503 -103.646,-131.341 -86.98,-188.698c11.069,-40.691 51.824,-75.846 70.312,-118.399c12.891,-35.143 25.912,-68.437 38.802,-103.593c22.137,-33.294 51.823,-42.553 70.313,-85.092c3.646,1.849 5.6,1.849 9.244,3.698c-3.644,86.94 -3.644,175.743 -5.598,262.695Zm-222.005,-497.643c-16.666,14.805 -33.203,27.747 -49.87,42.552c-14.844,7.397 -31.511,14.793 -46.224,22.201c-20.442,12.943 -61.067,49.947 -88.802,40.69c-1.953,-11.094 -3.776,-22.187 -5.599,-33.294c-27.735,1.849 -55.469,12.956 -79.557,3.697c-12.891,-5.546 -22.266,-16.64 -38.802,-20.351c-22.265,42.553 -79.557,61.055 -98.048,98.047c1.824,-0 5.47,-1.849 7.293,-1.849c-1.823,9.257 -5.469,18.503 -7.293,25.899c-46.223,-27.747 -14.843,-66.589 -38.932,-98.047c-42.448,-59.193 -120.182,-92.488 -149.739,-164.636c-9.375,-24.049 -5.598,-44.4 -11.198,-72.149c-5.469,-35.156 -9.244,-66.601 -1.823,-99.908c5.6,-25.899 -1.823,-70.286 16.667,-83.242c24.088,-27.747 75.78,-24.05 98.047,-53.646c59.244,16.653 105.469,66.602 159.114,90.65c36.979,14.793 79.557,14.793 110.938,35.157c29.688,18.503 50,48.086 88.802,59.179l75.912,0c25.911,11.107 51.692,22.202 77.604,33.309c57.422,14.791 83.333,-5.547 103.645,44.4c5.6,14.791 13.021,22.201 14.844,42.54c-16.667,24.048 -48.177,53.658 -74.088,68.45c-20.313,7.408 -40.625,14.804 -62.891,20.351Zm-730.73,-344.089l0,-5.547l1.954,0c-0,1.85 -1.954,3.699 -1.954,5.547Zm-90.624,-1035.98l-77.734,-16.653c-0,0 -12.891,-59.193 -9.246,-103.594c3.777,-31.446 24.09,-53.646 24.09,-53.646l90.624,51.797l-27.734,122.096Zm368.229,-266.393c5.468,-35.143 59.114,-96.199 59.114,-96.199l66.667,55.496l38.803,51.797c-0,0 -29.558,105.456 -51.824,125.808c-38.802,33.294 -66.537,-55.509 -66.537,-55.509c0,-0 -53.645,-31.446 -46.223,-81.393Zm639.973,-212.747c0,-0 24.09,-62.89 46.355,-51.797c23.958,11.094 38.802,57.344 66.536,99.895c20.314,31.446 59.246,64.753 59.246,64.753c-0,0 11.067,27.747 -20.444,72.149c-29.557,42.551 -105.338,99.896 -105.338,99.896l-53.646,-70.3c0,-0 -48.176,-31.445 -48.176,-75.846c3.775,-59.206 55.467,-138.75 55.467,-138.75Zm545.834,284.896c5.469,-35.143 40.625,-51.798 40.625,-51.798l70.313,-48.098c-0,-0 24.088,24.048 25.911,61.041c1.823,31.459 -16.667,77.709 -16.667,77.709l-92.448,44.387c1.824,1.863 -33.332,-40.69 -27.734,-83.241Zm564.192,29.595c36.98,-1.848 75.782,-7.395 75.782,-7.395l-3.646,114.701l-86.978,57.343l-22.137,-94.349c-1.823,-1.848 5.47,-70.3 36.979,-70.3Zm51.824,1565.07c-1.953,-1.849 -3.776,-1.849 -5.599,-3.697c5.599,3.697 1.823,-0 5.599,3.697Zm3.645,49.948l-1.821,0c-0,-1.85 -1.824,-5.547 -1.824,-7.395c3.645,3.697 1.824,-0 3.645,7.395Zm1.823,48.099c1.823,1.849 3.777,1.849 5.6,3.697c-0,9.259 -1.823,5.547 1.823,11.107c-0,3.699 -1.823,7.396 -1.823,11.095l-1.823,-0c-3.777,-5.548 -3.777,-24.05 -3.777,-25.899Zm-351.432,812.135c-3.775,-16.653 7.423,-207.2 14.844,-220.156c38.802,-42.539 79.557,-85.092 118.359,-129.493c64.715,-31.444 105.47,37.006 173.829,24.05c98.046,-18.503 116.536,-109.14 168.359,-175.741c14.844,-18.503 44.401,-29.598 53.646,-55.496c-1.824,-20.352 -1.824,-42.552 -3.647,-62.903c-1.821,-27.747 -5.598,-55.494 -7.421,-83.256c-31.381,-72.134 -99.87,-142.434 -81.38,-257.134c20.312,-125.795 -55.469,-218.295 -35.156,-349.624c11.068,-73.997 27.735,-142.474 40.756,-209.063c1.821,-35.155 5.467,-70.298 7.29,-107.304c1.954,-27.747 5.6,-55.494 7.422,-83.241c-11.068,-64.753 -22.135,-131.355 -33.333,-196.095c-3.646,-35.155 -5.469,-70.298 -9.244,-105.456c-75.782,-53.645 -157.163,-94.335 -240.496,-110.988c-284.896,-57.345 -630.729,-107.306 -976.693,-107.306c-185.026,-0 -370.051,14.806 -543.879,37.006c1.823,11.094 3.645,22.2 9.244,36.991c11.068,29.61 42.448,46.25 49.87,75.86c-38.802,-20.351 -55.469,-61.054 -83.204,-92.5c-5.598,-5.547 -11.067,-9.257 -16.665,-14.804c-138.672,18.503 -270.052,42.551 -390.364,68.45c123.957,-48.099 260.936,-92.5 297.915,-88.801c61.068,-46.251 338.541,-66.602 421.745,-55.496c57.422,-42.552 314.453,-44.4 395.964,-33.295c85.026,9.246 172.004,18.49 257.031,25.899c166.537,-18.503 420.052,24.05 573.568,85.091c77.734,31.446 155.338,62.905 233.073,94.349c5.598,-1.848 9.245,-3.697 14.843,-5.547c61.068,7.397 53.645,-77.694 92.449,-107.304c25.911,-199.792 122.135,-353.334 251.562,-501.328c31.511,-42.553 64.843,-83.256 96.224,-125.807c-0,-3.699 -0,-5.547 1.823,-9.246c-57.292,-7.396 -380.99,190.547 -384.766,225.705c-27.735,-3.712 -66.537,-14.806 -85.156,-18.503c3.775,-27.747 194.27,-281.199 216.537,-295.991c25.911,-57.357 53.646,-114.7 79.557,-172.057c27.735,-55.494 55.469,-109.14 83.203,-164.636c0,-5.56 1.822,-11.105 1.822,-16.652c-110.936,-14.805 -225.651,57.342 -327.342,44.401c-29.688,12.941 -57.423,24.049 -86.98,36.991c-40.756,38.855 -81.38,75.846 -120.313,114.7c-12.89,103.595 -14.713,271.941 -122.005,323.738c-81.51,38.854 -209.115,79.557 -303.386,31.458c-14.844,-9.258 -31.509,-20.351 -46.353,-29.61c3.775,-20.338 -35.157,-48.085 -18.49,-88.788c14.844,-31.459 29.688,-62.903 46.224,-92.5c155.468,-118.399 175.781,-11.107 275.65,-209.049c3.777,-25.898 9.246,-49.949 13.021,-75.847l0,-1.849c-9.244,1.849 -16.665,3.697 -25.911,5.548c-22.265,-3.699 -50,-135.041 -46.223,-162.788c27.734,-212.747 -70.313,-381.08 -42.579,-588.293c-44.401,-5.534 -272.005,305.247 -279.297,362.59c-13.021,-14.791 -25.912,-29.583 -38.933,-46.25c-1.823,0 -5.467,0 -7.421,-1.836c-38.802,62.89 -75.782,123.933 -114.584,186.836c-5.598,44.402 7.293,138.75 33.204,173.893c-38.802,292.292 -110.938,371.849 -401.432,332.995c-23.959,-14.805 -48.047,-29.596 -72.136,-44.4c-16.667,-42.553 -33.334,-85.092 -51.822,-127.643c7.421,-59.206 -7.423,-129.506 1.823,-199.806c33.332,-72.134 68.488,-144.283 101.822,-216.432c0,0 -246.094,-382.943 -284.896,-416.25c-35.155,-36.979 -68.49,-72.136 -103.645,-109.14l-5.47,-0c-3.776,16.665 -9.244,33.294 -13.02,48.099c-16.667,125.807 -48.046,273.788 -105.469,390.351c-1.823,3.685 -73.959,135.039 -57.292,136.887c5.6,3.699 9.245,9.246 14.844,12.943c70.183,9.259 81.38,72.149 120.182,123.946c9.244,37.006 18.49,73.997 27.735,111.003c16.667,146.146 38.932,288.593 -64.714,410.69c-14.843,16.653 -46.224,62.891 -72.135,59.192c-31.51,25.898 -131.38,25.898 -172.005,9.258c-236.85,-94.348 -120.313,-255.3 -92.578,-458.788c-11.067,-25.899 -24.088,-51.798 -35.157,-77.696c-101.692,-12.956 -214.583,-153.555 -327.473,-168.346c-36.98,29.596 -29.558,336.679 -36.98,395.884c38.932,31.446 75.912,62.892 114.714,96.199c-12.89,99.896 209.114,297.839 31.509,436.589c-101.822,-12.956 -90.624,-83.243 -79.557,-168.347c-103.645,-61.054 -209.113,-122.096 -312.63,-183.15c-3.775,-0 -7.421,-1.85 -11.198,-1.85c27.865,64.753 57.423,129.505 85.157,194.246c14.844,44.4 27.734,86.952 42.578,131.352c-11.067,85.092 175.651,434.741 192.318,564.232c1.952,1.85 3.775,3.699 5.598,3.699c1.824,-0 3.647,-1.849 3.647,-1.849c-0,-5.547 14.844,-14.791 37.109,-25.898c-1.954,11.107 -1.954,20.351 -5.598,31.444c-9.246,33.309 -18.491,64.753 -25.913,98.06c-11.068,49.949 -9.245,105.443 -0,149.844c1.823,40.691 5.599,81.393 7.422,122.096c24.089,92.5 44.402,196.095 64.714,294.142c11.067,55.494 11.067,133.19 3.776,188.697c-3.776,29.596 -14.844,64.74 -7.423,103.595c5.47,22.2 9.246,44.399 14.714,68.45c7.423,33.294 -23.958,133.19 -35.156,159.088c-1.823,20.352 -3.646,40.703 -5.469,61.055c-14.844,81.392 -29.686,257.148 12.891,327.448c14.844,25.897 111.068,110.989 138.802,120.233c44.402,14.806 62.89,-29.595 90.625,-36.991c51.824,-14.804 146.095,31.446 162.76,55.494c18.49,25.899 46.355,61.056 55.599,101.746c9.246,46.25 -16.665,83.254 -1.953,133.203c20.443,64.753 48.178,96.197 27.734,194.244c-11.067,59.193 38.934,131.342 83.334,114.7c-0,-51.795 -24.088,-129.504 -16.667,-168.345c11.069,-62.905 66.538,-99.896 38.803,-181.302c5.598,1.849 13.021,1.849 18.489,3.697c9.246,14.804 29.688,61.054 22.267,85.105c-11.069,27.747 -22.267,55.494 -33.335,83.241c-7.421,33.309 3.647,75.86 7.423,103.607c7.421,48.099 5.468,99.896 0,136.889c-7.423,48.099 49.869,105.456 81.38,94.349c1.822,-3.699 5.598,-7.396 7.422,-12.943c-3.647,-35.156 -7.422,-70.3 -13.021,-107.305c9.374,-51.797 16.667,-122.097 -0,-177.591c11.197,-27.747 22.265,-55.495 33.332,-81.393c-5.467,-7.409 -12.89,-14.804 -18.488,-22.2c-7.423,7.396 -0,5.545 -11.068,3.697l0,-7.409c110.936,14.805 31.379,88.802 36.979,142.448c1.823,33.307 1.823,68.451 3.646,101.758c7.421,18.489 13.021,35.143 20.442,53.646c11.068,40.69 -14.844,109.14 -5.598,155.39c11.068,62.905 68.488,136.902 138.801,138.75c0,-59.193 -11.198,-107.291 -20.442,-159.101c1.954,-48.099 5.598,-96.197 7.421,-142.435c-5.467,-38.854 -29.557,-105.455 -11.067,-149.857c1.823,-3.697 68.49,-73.997 75.782,-79.544c5.598,1.848 11.198,3.698 14.842,5.547c14.844,12.956 -55.468,81.406 -61.067,98.047c-11.067,29.609 13.021,68.45 18.491,98.046c3.775,18.503 -11.069,37.006 -14.714,51.81c-9.246,33.294 -1.953,96.186 11.067,112.839c18.489,12.955 36.979,27.747 55.469,40.702c20.312,-5.545 31.51,-25.897 46.223,-37.004c0,-20.351 -1.823,-42.538 -1.823,-62.891c3.777,-22.2 20.444,-48.099 14.844,-79.558c-5.598,-29.595 -14.844,-110.988 -5.598,-127.642c9.244,-9.245 18.489,-18.503 27.734,-25.899c7.422,-12.943 -3.646,-24.049 13.021,-31.444c7.421,7.395 16.666,16.64 24.089,24.048c-11.198,18.503 -20.444,38.842 -31.511,57.345c-9.245,29.595 11.067,53.645 3.646,88.801c-3.646,12.943 -7.291,27.747 -11.068,40.703c3.777,22.189 18.489,44.389 13.021,77.696c-1.953,14.791 -5.599,29.595 -7.423,44.401c3.647,18.489 35.158,59.193 51.825,68.437c38.802,12.956 96.094,-31.445 114.582,-55.494c-9.244,-27.749 -29.557,-85.092 -25.781,-116.55c3.646,-40.69 31.381,-98.047 20.313,-136.887c-3.776,-14.806 -16.667,-22.202 -18.49,-42.553c1.823,-1.849 3.646,-1.849 5.47,-3.697c1.951,-1.85 1.951,-1.85 3.774,-3.699c16.668,11.094 1.824,7.396 7.423,24.05c9.245,7.396 18.489,14.792 27.735,22.187c5.467,9.257 11.067,33.307 12.89,40.703c-3.646,16.654 -7.423,33.307 -11.069,51.797c-3.775,20.352 11.069,168.346 18.49,177.605c81.381,38.84 62.89,59.191 123.959,-27.762c-5.6,-35.143 -25.911,-64.738 -18.49,-107.291c7.423,-53.646 27.734,-131.34 12.89,-196.093c-11.067,-31.446 -20.311,-61.056 -31.379,-92.5c-7.423,-11.095 -14.844,-22.202 -22.266,-33.295c-5.468,-18.502 -0,-35.157 -5.468,-46.25c1.823,0 5.468,-1.848 7.291,-1.848c25.911,40.69 64.843,110.988 79.557,164.647c7.422,24.05 -5.468,48.1 -0,72.149c5.599,18.49 13.021,36.993 18.62,55.495c20.312,101.745 -35.155,172.043 42.448,218.293c20.442,-9.257 29.688,-31.444 50,-40.702c9.244,-85.09 11.067,-216.445 -25.912,-290.442c-25.911,-49.949 -83.203,-88.803 -99.87,-142.449c31.381,5.547 36.98,22.2 53.646,42.552c18.49,16.654 36.98,33.294 55.469,49.948c18.49,27.747 38.803,68.45 44.401,103.595c0,16.653 1.823,33.307 1.823,51.795c13.021,24.063 25.912,46.25 38.933,70.301c-1.954,25.898 -1.954,49.947 -3.777,75.86c-1.823,16.64 1.823,184.985 1.823,186.835c5.6,5.56 9.246,9.257 14.844,14.805c9.244,-3.699 18.49,-5.548 22.136,-12.956c7.422,-18.49 13.021,-36.993 20.442,-55.496c35.156,-53.646 77.734,-107.291 96.225,-177.59c-0,-20.351 -1.954,-42.553 -1.954,-62.904c1.954,-53.646 -7.291,-120.247 -31.381,-166.498c-24.088,-35.142 -49.999,-70.298 -74.087,-107.291c-7.293,-24.05 -12.891,-46.25 -20.314,-70.3c-11.067,-14.804 -20.311,-29.596 -31.379,-44.4c-5.599,-16.654 -9.246,-33.294 -14.844,-51.797c-9.245,-11.107 -18.49,-20.352 -27.734,-31.446l1.823,-1.849c42.577,22.188 79.557,92.488 109.115,131.342c13.021,11.093 24.088,22.2 36.978,33.294c14.844,18.502 14.844,53.659 35.286,64.752c27.735,12.957 60.939,-7.396 90.626,-3.697c14.712,7.395 27.733,14.791 42.447,22.2c-5.468,38.841 -12.891,98.047 16.667,116.55c27.734,16.64 74.089,33.294 109.245,14.791c5.469,-20.351 12.89,-40.69 18.49,-61.041c-11.198,-42.553 -22.267,-83.256 -33.334,-123.946Zm505.079,181.288c23.958,-48.098 48.046,-96.197 72.136,-144.295c-62.892,-40.703 -340.365,-216.446 -403.387,-257.149c-127.603,-22.187 -64.713,85.104 -90.625,129.506c57.423,38.84 364.453,233.086 421.876,271.938Zm-31.511,72.149c-68.49,-38.854 -275.65,-159.101 -345.963,-197.941c-36.979,53.645 29.688,129.491 -98.047,196.093c74.089,38.854 288.672,151.693 362.629,190.547c25.912,-62.904 53.646,-125.795 81.381,-188.699Zm1189.58,438.438c-16.666,-61.042 -103.646,-112.838 -179.556,-122.096c-36.981,70.3 -173.83,345.937 -144.272,408.842c20.313,55.494 101.824,101.744 166.537,114.7c27.734,-24.05 173.828,-353.346 157.291,-401.446Zm-1139.58,-2340.2c260.806,-212.734 390.364,-425.482 638.149,-643.776c-122.005,196.093 -305.207,392.187 -473.567,547.59c-79.557,73.999 -98.046,99.883 -177.603,173.895c13.021,55.494 -33.204,234.934 -33.204,234.934c0,0 -29.688,111.003 25.781,242.343c464.324,-305.233 1023.05,-934.218 1228.38,-1463.31c59.246,-151.693 197.918,-564.231 33.334,-752.929c-31.511,94.349 -105.468,168.346 -157.291,247.891c-203.516,307.095 -464.323,603.086 -736.198,850.976c-75.913,68.45 -255.339,188.699 -334.896,260.846c-46.224,42.553 -24.09,110.99 -12.89,301.537Zm1681.51,2610.29c-57.291,-40.69 -146.094,-85.091 -236.718,-92.5c-72.136,68.45 -173.958,271.953 -185.026,392.2c36.979,57.345 111.067,110.991 179.426,142.449c142.449,-44.401 283.073,-255.3 242.318,-442.149Zm-308.854,-129.491c-20.312,-59.193 -107.292,-111.003 -179.427,-122.098c-57.421,120.248 -170.182,308.946 -140.624,436.589c51.822,31.446 103.515,61.055 155.337,92.5c7.423,-1.848 13.021,-3.698 20.313,-5.547c42.579,-122.096 172.135,-266.393 144.401,-401.444Zm-466.275,-279.351c-16.667,-62.89 -103.517,-110.988 -173.83,-127.642c-38.801,53.645 -181.379,355.196 -151.691,414.389c18.489,51.795 120.182,116.548 181.249,107.304c31.511,-92.5 172.137,-310.795 144.272,-394.051Zm-464.324,-284.881c-22.134,-66.602 -103.515,-98.047 -166.406,-127.657c-36.979,35.157 -38.932,99.895 -64.844,149.857c-75.78,147.994 -203.385,327.434 74.088,377.383c5.469,-1.85 9.246,-3.699 14.714,-5.547c36.98,-123.946 168.36,-258.997 142.448,-394.036Zm225.781,133.19c-20.442,-53.646 -105.468,-105.443 -173.958,-114.702c-51.823,99.911 -170.181,314.494 -140.626,436.602c51.825,31.446 103.647,61.042 155.47,92.487c7.421,-3.697 14.714,-7.395 20.312,-11.094c33.334,-98.046 177.604,-323.749 138.802,-403.293Zm-769.661,456.939c162.891,-344.087 325.651,-688.176 488.412,-1032.28c75.91,-159.089 -12.891,-303.386 -186.849,-310.782c-94.401,36.993 -183.074,83.243 -151.693,218.295c9.244,18.49 20.313,36.993 29.557,55.494c51.823,16.654 96.225,14.793 155.468,11.094l0,7.409c-144.27,297.839 -286.719,595.678 -431.119,895.378c-48.046,98.047 -127.603,249.74 -53.646,360.743c120.312,183.137 403.385,27.747 310.807,-186.85c-51.692,-24.049 -98.047,-25.899 -160.937,-18.503Zm-2702.73,-727.031c-50.001,31.446 -99.87,61.055 -148.046,92.5c-44.402,70.301 90.624,344.089 131.379,416.238c1.823,7.396 5.598,12.956 7.421,20.351c77.736,-12.955 127.605,-59.205 175.782,-99.895c18.49,-111.003 -83.332,-307.098 -136.98,-403.295c-11.067,-9.244 -20.311,-16.654 -29.556,-25.899Zm50,-334.843l-0,-7.397c59.115,3.699 103.515,5.547 155.338,-11.106c88.802,-142.436 -11.068,-290.443 -188.672,-270.091c-77.734,48.098 -136.978,77.696 -149.87,179.453c-14.842,122.097 98.047,257.136 138.802,342.24c125.782,266.393 249.61,532.786 375.521,797.331c-0,7.395 1.823,12.943 1.823,20.351c-70.311,-7.408 -114.713,-1.849 -166.536,25.899c-68.359,283.033 258.985,342.238 340.365,136.887c53.646,-131.34 -66.538,-279.336 -107.293,-364.44c-133.203,-281.185 -266.406,-566.081 -399.478,-849.127Zm-296.094,480.989c-59.115,51.797 -120.182,57.345 -153.516,133.203c18.49,166.485 123.959,212.735 142.449,375.535c9.244,5.545 18.488,12.955 27.734,18.501c46.223,-24.048 90.625,-46.25 136.849,-70.298c64.844,-112.852 -53.647,-331.146 -112.76,-438.438c-14.844,-20.351 -7.423,-16.654 -40.756,-18.503Zm545.704,-105.443c55.597,-33.307 334.895,-190.547 390.364,-223.854c11.198,-79.545 22.265,-164.635 -5.469,-192.382c-50,27.747 -390.365,234.935 -451.433,258.983c-3.645,20.352 31.511,125.795 66.538,157.253Zm412.629,-142.447c-64.843,38.84 -316.407,175.742 -381.12,214.596c24.088,62.89 50,127.643 73.959,190.547c75.911,-38.854 242.318,-136.901 318.229,-175.756c42.578,-131.341 42.578,-205.338 -11.068,-229.387Zm1367.06,42.551c-25.911,0 -53.645,-9.257 -53.645,-9.257l62.89,81.406c-0,0 9.246,116.536 14.844,183.137c1.823,25.899 3.646,25.899 3.646,25.899c-0,-0 -1.823,16.654 5.6,5.547c1.823,-3.697 5.598,-9.244 9.244,-12.943c7.421,-11.105 31.511,-83.254 31.511,-83.254c-0,-0 1.821,-114.687 -9.246,-162.787c-9.244,-37.005 -37.109,-29.596 -64.844,-27.748Zm-1820.31,-1215.4c-25.913,-307.109 -42.579,-286.745 -33.334,-497.656c-35.156,-31.459 -31.381,-29.596 -66.536,-61.055c-179.428,-164.648 -386.72,-375.534 -510.677,-586.433c247.915,220.145 294.14,351.499 556.9,562.383c9.245,-66.601 -40.754,-218.294 -20.312,-249.738c-81.38,-59.206 -120.313,-116.55 -246.094,-229.402c-255.339,-231.237 -519.791,-517.982 -710.416,-802.878c-62.892,-99.895 -125.782,-197.943 -186.85,-297.839c-120.182,257.149 -36.979,590.131 50.001,780.678c244.14,534.635 678.906,1063.72 1167.32,1381.94Zm-1470.7,2003.48c-59.244,24.048 -118.359,49.947 -177.605,73.997c-86.978,168.346 94.401,416.238 229.427,456.94c64.715,-31.445 94.271,-75.847 155.34,-105.443c59.244,-103.607 -92.448,-327.447 -144.272,-421.797c-22.265,-1.849 -42.577,-1.849 -62.89,-3.697Zm492.058,-297.839c-46.225,40.703 -101.694,59.193 -140.626,105.443c-18.489,172.045 111.068,242.343 136.979,403.295c5.47,3.697 9.245,9.244 14.714,12.941c77.734,-12.941 129.557,-59.191 175.781,-99.896c18.49,-110.988 -83.203,-305.233 -136.849,-403.28c-18.49,-22.202 -14.844,-20.351 -49.999,-18.503Zm246.094,-146.146c-51.825,36.992 -144.272,59.193 -159.116,125.795c-9.244,40.702 157.162,401.444 157.162,401.444c46.354,20.339 153.645,-81.406 175.781,-99.908c27.735,-173.893 -110.937,-242.343 -131.379,-410.691c-14.714,-5.545 -27.735,-11.093 -42.448,-16.64Zm-473.568,283.048c-44.401,27.747 -90.756,55.494 -135.156,83.241c-48.048,70.3 90.755,360.742 131.379,423.633c5.599,5.56 9.245,12.956 14.844,18.503c48.047,-24.05 96.225,-48.1 144.271,-70.3c85.026,-151.693 -77.734,-290.443 -112.892,-451.38c-14.712,-0 -27.732,-1.849 -42.446,-3.697Z"/></svg>