<?xml version="1.0" encoding="UTF-8" standalone="no"?><!DOCTYPE svg PUBLIC "-//W3C//DTD SVG 1.1//EN" "http://www.w3.org/Graphics/SVG/1.1/DTD/svg11.dtd"><svg width="100%" height="100%" viewBox="0 0 1303 1303" version="1.1" xmlns="http://www.w3.org/2000/svg" xmlns:xlink="http://www.w3.org/1999/xlink" xml:space="preserve" xmlns:serif="http://www.serif.com/" style="fill-rule:evenodd;clip-rule:evenodd;stroke-linejoin:round;stroke-miterlimit:2;"><path d="M415.271,915.206c-33.901,-0 -67.798,-0.025 -101.677,-0.025l0,28.839l-313.594,0l0,358.063l1302.08,0l0,-358.063l-313.598,0l-0,-28.839c-33.871,-0 -67.772,0.025 -101.673,0.025l0,-174.899c0,-15.142 10.183,-4.819 10.183,-19.068l0,-8.316c0,-5.87 -0.985,-8.45 -4.377,-10.761c-2.167,-1.468 -5.806,-4.713 -5.806,-9.603l0,-9.561c0,-7.112 -3.786,-12.15 -9.689,-13.955c-8.169,-2.504 -16.479,-4.495 -24.696,-6.41l0,-76.911c0,-2.803 -0.294,-8.716 0.885,-11.161c1.035,-2.222 6.247,0.577 7.525,-1.376c1.379,-1.961 1.379,-10.272 1.379,-15.209l0,-10.668c0,-9.162 -4.166,-9.662 -12.246,-15.116c-8.988,-6.065 1.128,-20.407 -13.038,-25.878c-18.356,-6.952 -25.51,-11.387 -31.654,-37.269c-16.479,-69.432 -47.282,-145.264 -104.129,-173l-0,-25.217l-14.684,-0l0,-19.68l-10.674,0l0,-68.43l8.37,0c0,-7.82 0.004,-11.856 0.004,-19.68l7.071,0l-0,-44.271l-14.076,-0c-9.942,-0 -15.795,-4.212 -17.835,-17.755c-0.811,-5.375 2.828,-7.845 2.067,-16.11c-1.416,-15.281 2.751,-27.125 2.751,-42.876c-0,-5.095 -1.947,-28.478 -1.947,-28.478c3.142,-19.318 -9.836,-16.46 -12.156,-0.975c-0.821,5.499 -1.065,12.777 -2.344,17.93c-2.063,8.341 -4.888,18.755 -7.011,22.767c-3.776,7.128 -0.754,22.729 -0.754,36.99c-0,14.314 3.111,28.507 -15.412,28.507l-13.662,-0l0,44.271l7.075,0l0,19.68l8.37,0l0,68.43l-10.674,0l0,19.68l-14.683,-0l-0,25.217c-56.844,27.736 -87.65,103.568 -104.13,173c-6.14,25.869 -13.325,30.321 -31.664,37.269c-14.166,5.471 -4.05,19.813 -13.038,25.878c-8.079,5.454 -12.246,5.954 -12.246,15.116l0,10.668c0,4.937 0,13.248 1.379,15.209c1.275,1.953 6.49,-0.846 7.525,1.376c1.179,2.445 0.885,8.358 0.885,11.161l0,76.911c-8.216,1.915 -16.526,3.906 -24.696,6.41c-5.903,1.805 -9.689,6.843 -9.689,13.955l0,9.561c0,4.89 -3.642,8.135 -5.803,9.603c-3.395,2.311 -4.38,4.891 -4.38,10.761l0,8.316c0,14.249 10.183,3.926 10.183,19.068l0,174.899Z" style="fill:#231f20;"/><path d="M836.098,918.993l-369.952,0c121.394,-20.587 248.558,-20.646 369.952,0Zm-41.417,-417.594c-3.589,-0.374 -7.254,-0.736 -11,-1.077c-5.593,-28.2 -10.193,-57.389 -18.18,-83.336c-5.435,-17.681 -11.879,-34.086 -19.184,-48.967c10.871,16.997 20.426,36.769 28.332,58.707c8.374,23.239 13.833,49.335 20.032,74.673Zm-18.209,-1.721c-8.033,-0.686 -16.366,-1.309 -24.976,-1.86c-5.152,-29.143 -9.479,-59.287 -15.378,-86.085c-8.39,-38.157 -21.555,-70.592 -38.508,-94.909c0.197,0.133 0.396,0.258 0.594,0.388c25.511,23.479 46.498,59.78 60.684,104.477c7.705,24.295 12.249,51.527 17.584,77.989Zm-32.261,-2.31c-9.265,-0.548 -18.804,-1.019 -28.549,-1.402c-0.658,-6.338 -1.262,-12.73 -1.877,-19.106c-5.896,-61.032 -16.269,-114.803 -36.224,-163.764l3.589,-0c21.508,24.332 38.027,60.097 47.977,103.507c5.762,25.155 10.069,53.356 15.084,80.765Zm-35.654,-1.663c-9.899,-0.345 -19.992,-0.61 -30.212,-0.778c-0.106,-5.997 -0.163,-12.04 -0.233,-18.067c-0.531,-47.748 -5.75,-111.032 -15.859,-163.764l7.335,-0c19.474,47.404 30.849,103.81 36.799,161.614c0.721,7.002 1.419,14.022 2.17,20.995Zm-37.3,-0.879c-13.338,-0.164 -26.866,-0.177 -40.438,-0.026c0.144,-6.674 0.254,-13.391 0.374,-20.09c0.788,-45.122 6.504,-109.094 16.62,-161.614l6.471,-0c10.116,52.52 15.828,116.492 16.619,161.614c0.121,6.708 0.211,13.433 0.354,20.116Zm-47.526,0.067c-10.076,0.164 -20.162,0.408 -30.198,0.753c0.751,-6.948 1.456,-13.955 2.173,-20.936c5.95,-57.804 17.325,-114.21 36.799,-161.614l7.335,-0c-10.109,52.732 -15.327,116.016 -15.862,163.764c-0.063,6.018 -0.14,12.044 -0.247,18.033Zm-37.313,1.023c-9.588,0.378 -19.12,0.841 -28.542,1.405c5.011,-27.396 9.332,-55.571 15.094,-80.718c9.949,-43.41 26.469,-79.175 47.977,-103.507l3.586,-0c-19.952,48.961 -30.326,102.732 -36.222,163.764c-0.614,6.355 -1.235,12.73 -1.893,19.056Zm-35.827,1.86c-8.44,0.551 -16.777,1.182 -24.98,1.889c5.332,-26.458 9.889,-53.686 17.598,-77.976c14.186,-44.697 35.17,-80.998 60.681,-104.477c0.2,-0.13 0.397,-0.255 0.597,-0.388c-16.957,24.317 -30.121,56.752 -38.515,94.909c-5.889,26.785 -10.229,56.917 -15.381,86.043Zm-32.185,2.537c-3.702,0.345 -7.368,0.703 -11.007,1.086c6.203,-25.338 11.672,-51.434 20.045,-74.673c7.906,-21.938 17.465,-41.71 28.332,-58.707c-7.302,14.881 -13.745,31.286 -19.184,48.967c-7.983,25.942 -12.597,55.127 -18.186,83.327Zm-85.72,413.656l-0,-17.027c145.372,-27.893 291.342,-27.893 436.712,-0l-0,17.027c-145.226,-28.049 -291.487,-28.049 -436.712,-0Zm206.156,-57.217l0,-132.226l24.399,-0l0,132.226c-8.13,-0.046 -16.269,-0.046 -24.399,-0Zm-206.156,-131.25l-0,-7.024c144.978,-26.664 291.733,-26.664 436.712,0l-0,7.024c-144.895,-26.74 -291.817,-26.74 -436.712,-0Zm-7.088,-12.76l-0,-6.001c149.095,-29.383 301.792,-29.383 450.884,0l0,6.001c-149.235,-29.412 -301.646,-29.412 -450.884,0Zm7.088,-15.739l-0,-7.024c144.998,-26.491 291.713,-26.491 436.712,0l-0,7.024c-144.912,-26.567 -291.801,-26.567 -436.712,0Zm203.549,-46.191l-0,-96.926c9.875,0.092 19.738,0.092 29.61,-0l0,96.926c-9.869,0.042 -19.738,0.042 -29.61,0Zm-172.266,-103.597l0,-4.662c125.467,-16.11 248.678,-16.11 374.145,-0l0,4.662c-125.267,-16.168 -248.878,-16.168 -374.145,0Zm13.428,-14.754l0,-7.962c115.986,-13.101 231.304,-13.101 347.289,-0l0,7.962c-115.975,-13.105 -231.313,-13.105 -347.289,-0Zm227.755,313.837l-0,-86.561c-0,-15.293 -12.791,-15.605 -12.791,-0.312l0,86.52c4.28,0.046 8.557,0.219 12.791,0.353Zm47.616,2.357l-0,-86.608c-0,-15.247 -12.791,-16.139 -12.791,-0.841l0,86.561c4.28,0.269 8.511,0.577 12.791,0.888Zm47.616,4.36l-0,-86.608c-0,-15.297 -12.791,-16.673 -12.791,-1.38l0,86.654c4.281,0.4 8.511,0.841 12.791,1.334Zm47.619,7.958l0,-86.789c0,-15.335 -12.79,-17.869 -12.79,-2.575l-0,86.696c4.227,0.841 8.507,1.78 12.79,2.668Zm-122.636,-212.299l0,-68.777c0,-15.293 -12.79,-15.697 -12.79,-0.446l-0,68.824c4.28,0.134 8.513,0.311 12.79,0.399Zm-33.941,-1.022l0,-68.731c0,-15.293 -12.84,-15.386 -12.84,-0.135l-0,68.777c4.28,0 8.56,0.089 12.84,0.089Zm101.873,6.093l0,-68.869c0,-15.293 -12.79,-16.539 -12.79,-1.246l-0,68.823c4.28,0.447 8.51,0.846 12.79,1.292Zm-33.941,-3.114l0,-68.819c0,-15.297 -12.837,-16.097 -12.837,-0.804l0,68.824c4.28,0.269 8.557,0.534 12.837,0.799Zm67.936,7.651l-0,-68.916c-0,-15.297 -12.841,-17.073 -12.841,-1.776l0,68.866c4.28,0.58 8.561,1.153 12.841,1.826Zm34.037,216.915c2.708,0.8 5.409,1.692 8.067,2.492l-0,-132.892c-2.658,-0.757 -5.359,-1.557 -8.067,-2.31l0,132.71Zm-31.827,-6.712c8.069,1.468 16.136,3.203 24.152,4.932l-0,-132.752c-8.016,-1.604 -16.083,-3.249 -24.152,-4.714l-0,132.534Zm-15.789,-2.403c2.705,0.4 5.459,0.804 8.163,1.2l0,-132.53c-2.704,-0.4 -5.458,-0.758 -8.163,-1.157l0,132.487Zm-31.827,-3.863c8.066,0.883 16.136,1.729 24.202,2.71l-0,-132.445c-8.066,-1.023 -16.136,-1.823 -24.202,-2.668l-0,132.403Zm-15.789,-1.515c2.704,0.18 5.462,0.446 8.163,0.711l0,-132.353c-2.701,-0.273 -5.459,-0.534 -8.163,-0.757l0,132.399Zm-31.827,-2.134c8.066,0.488 16.132,1.069 24.202,1.603l-0,-132.403c-8.07,-0.488 -16.136,-1.022 -24.202,-1.557l-0,132.357Zm-15.792,-0.619c2.704,0.131 5.462,0.219 8.166,0.307l-0,-132.356c-2.704,-0.093 -5.462,-0.177 -8.166,-0.312l-0,132.361Zm-31.778,-0.892c8.02,0.046 16.086,0.307 24.155,0.627l0,-132.314c-8.069,-0.316 -16.135,-0.535 -24.155,-0.581l0,132.268Zm-15.839,-0.219c2.755,0.038 5.459,0.038 8.167,0.084l-0,-132.222c-2.708,-0.046 -5.412,-0.092 -8.167,-0.092l0,132.23Zm135.177,-198.204l-0,-97.053c9.642,1.33 19.334,2.617 28.973,4.309l-0,97.099c-9.639,-1.645 -19.331,-2.975 -28.973,-4.355Zm-38.268,-101.013l-0,97.01c-9.889,-0.711 -19.779,-1.334 -29.664,-1.914l-0,-96.961c9.885,0.526 19.775,1.107 29.664,1.865Zm4.327,97.368l-0,-97.015c9.885,0.981 19.725,1.915 29.614,3.068l-0,97.057c-9.889,-1.153 -19.729,-2.087 -29.614,-3.11Zm-72.263,-100.752l0,96.973c-9.889,-0.181 -19.771,-0.265 -29.66,-0.358l-0,-96.922c9.889,0.088 19.771,0.135 29.66,0.307Zm4.331,97.108l-0,-96.969c9.885,0.353 19.775,0.665 29.614,1.069l-0,96.964c-9.839,-0.399 -19.729,-0.711 -29.614,-1.064Zm-46.685,107.767l-0,86.477l-12.881,0l0,-86.477c0,-13.946 12.881,-13.942 12.881,0Zm-0.047,-111.639l0,-68.735c0,-13.858 -12.784,-13.866 -12.784,0l0,68.735l12.784,0Zm-60.503,198.823l-0,-86.561c-0,-15.293 12.79,-15.605 12.79,-0.312l0,86.52c-4.28,0.046 -8.557,0.219 -12.79,0.353Zm-47.616,2.357l-0,-86.608c-0,-15.247 12.79,-16.139 12.79,-0.841l0,86.561c-4.28,0.269 -8.51,0.577 -12.79,0.888Zm-47.617,4.36l0,-86.608c0,-15.297 12.788,-16.673 12.788,-1.38l-0,86.654c-4.281,0.4 -8.507,0.841 -12.788,1.334Zm-47.616,7.958l0,-86.789c0,-15.335 12.791,-17.869 12.791,-2.575l-0,86.696c-4.23,0.841 -8.514,1.78 -12.791,2.668Zm122.633,-212.299l0,-68.777c0,-15.293 12.791,-15.697 12.791,-0.446l-0,68.824c-4.281,0.134 -8.511,0.311 -12.791,0.399Zm33.941,-1.022l0,-68.731c0,-15.293 12.841,-15.386 12.841,-0.135l-0,68.777c-4.281,0 -8.561,0.089 -12.841,0.089Zm-101.873,6.093l0,-68.869c0,-15.293 12.791,-16.539 12.791,-1.246l-0,68.823c-4.281,0.447 -8.511,0.846 -12.791,1.292Zm33.938,-3.114l-0,-68.819c-0,-15.297 12.84,-16.097 12.84,-0.804l0,68.824c-4.28,0.269 -8.56,0.534 -12.84,0.799Zm-67.932,7.651l-0,-68.916c-0,-15.297 12.84,-17.073 12.84,-1.776l0,68.866c-4.28,0.58 -8.56,1.153 -12.84,1.826Zm-34.038,216.915c-2.708,0.8 -5.409,1.692 -8.066,2.492l-0,-132.892c2.657,-0.757 5.358,-1.557 8.066,-2.31l-0,132.71Zm31.824,-6.712c-8.066,1.468 -16.132,3.203 -24.152,4.932l0,-132.752c8.02,-1.604 16.086,-3.249 24.152,-4.714l0,132.534Zm15.792,-2.403c-2.704,0.4 -5.459,0.804 -8.163,1.2l0,-132.53c2.704,-0.4 5.459,-0.758 8.163,-1.157l0,132.487Zm31.828,-3.863c-8.07,0.883 -16.136,1.729 -24.202,2.71l-0,-132.445c8.066,-1.023 16.132,-1.823 24.202,-2.668l-0,132.403Zm15.788,-1.515c-2.704,0.18 -5.462,0.446 -8.163,0.711l0,-132.353c2.701,-0.273 5.459,-0.534 8.163,-0.757l0,132.399Zm31.828,-2.134c-8.066,0.488 -16.133,1.069 -24.202,1.603l-0,-132.403c8.069,-0.488 16.136,-1.022 24.202,-1.557l-0,132.357Zm15.792,-0.619c-2.705,0.131 -5.462,0.219 -8.167,0.307l0,-132.356c2.705,-0.093 5.462,-0.177 8.167,-0.312l-0,132.361Zm31.777,-0.892c-8.019,0.046 -16.085,0.307 -24.155,0.627l-0,-132.314c8.07,-0.316 16.136,-0.535 24.155,-0.581l0,132.268Zm15.839,-0.219c-2.754,0.038 -5.459,0.038 -8.166,0.084l-0,-132.222c2.707,-0.046 5.412,-0.092 8.166,-0.092l-0,132.23Zm-135.176,-198.204l-0,-97.053c-9.642,1.33 -19.331,2.617 -28.973,4.309l-0,97.099c9.642,-1.645 19.331,-2.975 28.973,-4.355Zm38.268,-101.013l-0,97.01c9.889,-0.711 19.778,-1.334 29.664,-1.914l-0,-96.961c-9.886,0.526 -19.775,1.107 -29.664,1.865Zm-4.327,97.368l-0,-97.015c-9.89,0.981 -19.725,1.915 -29.614,3.068l-0,97.057c9.889,-1.153 19.724,-2.087 29.614,-3.11Zm72.262,-100.752l-0,96.973c9.889,-0.181 19.775,-0.265 29.661,-0.358l-0,-96.922c-9.886,0.088 -19.772,0.135 -29.661,0.307Zm-4.33,97.108l-0,-96.969c-9.886,0.353 -19.775,0.665 -29.614,1.069l-0,96.964c9.839,-0.399 19.728,-0.711 29.614,-1.064Zm45.876,-400.199l-4.71,0l-0,-68.43l4.71,0l0,68.43Zm-100.948,194.007c2.394,-13.572 14.403,-13.572 12.006,-0c-2.481,14.114 -2.213,12.57 -4.701,26.693c-2.39,13.568 -14.403,13.568 -12.012,0c2.494,-14.123 2.22,-12.579 4.707,-26.693Zm63.736,-0c1.295,-13.572 13.307,-13.572 12.015,-0c-1.348,14.114 -1.202,12.57 -2.547,26.693c-1.285,13.568 -13.301,13.568 -12.009,0c1.345,-14.123 1.202,-12.579 2.541,-26.693Zm-32.776,-0c1.726,-13.572 13.735,-13.572 12.006,-0c-1.8,14.114 -1.6,12.57 -3.396,26.693c-1.726,13.568 -13.735,13.568 -12.009,0c1.796,-14.123 1.599,-12.579 3.399,-26.693Zm84.498,-194.007l4.711,0l0,-68.43l-4.711,0l0,68.43Zm100.949,194.007c-2.398,-13.572 -14.404,-13.572 -12.01,-0c2.484,14.114 2.217,12.57 4.701,26.693c2.394,13.568 14.407,13.568 12.013,0c-2.491,-14.123 -2.217,-12.579 -4.704,-26.693Zm-63.739,-0c-1.296,-13.572 -13.305,-13.572 -12.013,-0c1.346,14.114 1.202,12.57 2.544,26.693c1.289,13.568 13.301,13.568 12.013,0c-1.346,-14.123 -1.202,-12.579 -2.544,-26.693Zm-38.458,-0c-0,-12.891 -12.013,-12.899 -12.013,-0l0,26.693c0,12.903 12.013,12.899 12.013,0l-0,-26.693Zm71.234,-0c-1.723,-13.572 -13.732,-13.572 -12.003,-0c1.796,14.114 1.596,12.57 3.392,26.693c1.723,13.568 13.739,13.568 12.009,0c-1.793,-14.123 -1.599,-12.579 -3.398,-26.693Zm-100.615,-298.276l0,-7.466l46.748,0l0,7.466l-46.748,-0Zm7.078,17.201l0,-4.824l32.589,-0l0,4.824l-32.589,-0Zm13.963,87.068l-0,-68.43l4.664,0l-0,68.43l-4.664,0Zm-16.266,23.467l-0,-4.829l37.199,0l0,4.829l-37.199,-0Zm-11.682,19.842l-0,-7.465l60.563,-0l0,7.465l-60.563,0Zm-162.364,701.435l-8.71,0l-0,170.27l8.71,0l0,-170.27Zm92.231,0l-8.714,0l0,170.27l8.714,0l0,-170.27Zm-76.966,170.27l-0,-170.27l-5.656,0l0,170.27l5.656,0Zm43.393,-170.27l-0,170.27l-33.791,0l-0,-170.27l33.791,0Zm9.598,170.27l0,-170.27l5.656,0l0,170.27l-5.656,0Zm48.838,-170.27l0,170.27l33.788,0l-0,-170.27l-33.788,0Zm-9.602,170.27l0,-170.27l-5.655,0l-0,170.27l5.655,0Zm58.648,-170.27l-5.656,0l-0,170.27l5.656,0l-0,-170.27Zm-531.09,15.218l-0,188.332l8.434,-0l0,-188.332l-8.434,-0Zm53.498,-0l0,188.332l8.435,-0l-0,-188.332l-8.435,-0Zm-4.332,188.332l-0,-188.332l-36.402,-0l0,188.332l36.402,-0Zm61.945,-188.332l0,188.332l8.435,-0l0,-188.332l-8.435,-0Zm-4.332,188.332l-0,-188.332l-40.513,-0l-0,188.332l40.513,-0Zm55.775,-188.332l0,188.332l8.435,-0l0,-188.332l-8.435,-0Zm-4.332,188.332l0,-188.332l-34.343,-0l-0,188.332l34.343,-0Zm-198.954,-188.332l0,188.332l36.399,-0l0,-188.332l-36.399,-0Zm-12.763,-0l-0,188.332l8.431,-0l0,-188.332l-8.431,-0Zm-4.336,188.332l-0,-188.332l-18.214,-0l-0,188.332l18.214,-0Zm304.926,-25.722l8.43,0l0,-191.416l-8.43,-0l0,191.416Zm53.499,-191.416l0,191.416l8.434,0l-0,-191.416l-8.434,-0Zm-4.333,191.416l-0,-191.416l-36.402,-0l-0,191.416l36.402,0Zm42.972,-177.828l-0,170.27l7.401,0l0,-170.27l-7.401,0Zm-14.407,177.828l0,-191.416l-11.465,-0l0,191.416l11.465,0Zm-87.277,-191.416l-0,191.416l5.209,0l0,-191.416l-5.209,-0Zm-0,-21.543l-0,15.702l87.277,-0l0,-15.702l-87.277,0Zm-0,-22.342l-0,12.082l87.277,0l0,-12.082l-87.277,0Zm-14.407,40.888l0,-12.078l-299.187,0l-0,12.078l299.187,0Zm0,25.966l0,-15.706l-299.187,0l-0,15.706l299.187,-0Zm0,194.169l0,-188.332l-47.823,-0l0,188.332l47.823,-0Zm-47.823,79.432l47.823,0l0,-69.176l-47.823,-0l0,69.176Zm-12.765,0l8.435,0l0,-69.176l-8.435,-0l0,69.176Zm-38.675,0l34.343,0l0,-69.176l-34.343,-0l-0,69.176Zm-12.768,0l8.435,0l0,-69.176l-8.435,-0l0,69.176Zm-44.845,0l40.513,0l-0,-69.176l-40.513,-0l-0,69.176Zm-12.768,0l8.435,0l-0,-69.176l-8.435,-0l0,69.176Zm-40.734,0l36.402,0l-0,-69.176l-36.402,-0l0,69.176Zm-12.764,0l8.434,0l0,-69.176l-8.434,-0l-0,69.176Zm-40.732,0l36.399,0l0,-69.176l-36.399,-0l0,69.176Zm-12.763,0l8.431,0l0,-69.176l-8.431,-0l-0,69.176Zm543.399,-61.282l18.062,0l-0,45.913l-18.062,0l-0,-45.913Zm18.726,-63.062l-19.391,0l0,-59.257c0,-17.966 19.391,-17.966 19.391,-0l0,59.257Zm-18.726,-146.059l18.062,0l-0,24.354l-18.062,-0l-0,-24.354Zm-6.003,270.374l-0,-73.482l30.071,-0l0,73.482l-30.071,-0Zm-515.015,-257.833l15.712,0l0,24.358l-15.712,-0l0,-24.358Zm54.949,0l15.712,0l0,24.358l-15.712,-0l0,-24.358Zm109.9,0l15.712,0l-0,24.358l-15.712,-0l-0,-24.358Zm54.949,0l15.712,0l0,24.358l-15.712,-0l0,-24.358Zm-219.798,56.695l15.712,-0l0,72.733l-15.712,-0l0,-72.733Zm54.949,-0l15.712,-0l0,72.733l-15.712,-0l0,-72.733Zm71.241,72.733l-16.869,-0l-0,-59.258c-0,-17.961 16.869,-17.961 16.869,0l-0,59.258Zm38.659,-72.733l15.712,-0l-0,72.733l-15.712,-0l-0,-72.733Zm54.949,-0l15.712,-0l0,72.733l-15.712,-0l0,-72.733Zm-219.798,150.747l15.712,0l0,36.861l-15.712,0l0,-36.861Zm54.949,0l15.712,0l0,36.861l-15.712,0l0,-36.861Zm54.95,0l15.712,0l0,36.861l-15.712,0l0,-36.861Zm54.95,0l15.712,0l-0,36.861l-15.712,0l-0,-36.861Zm54.949,0l15.712,0l0,36.861l-15.712,0l0,-36.861Zm-102.046,-208.178c4.6,-0 8.335,5.786 8.335,12.911c0,7.137 -3.735,12.915 -8.335,12.915c-4.601,0 -8.325,-5.778 -8.325,-12.915c-0,-7.125 3.724,-12.911 8.325,-12.911Zm183.01,-21.522l18.062,0l0,24.358l-18.062,0l-0,-24.358Zm-0,51.843l18.062,-0l0,72.737l-18.062,-0l-0,-72.737Zm-0,166.995l18.062,0l0,45.913l-18.062,0l-0,-45.913Zm128.031,0l18.063,0l-0,45.913l-18.063,0l0,-45.913Zm18.727,-63.062l-19.391,0l0,-59.257c0,-17.966 19.391,-17.966 19.391,-0l0,59.257Zm-18.727,-146.059l18.063,0l-0,24.354l-18.063,-0l0,-24.354Zm-134.034,270.374l0,-73.482l30.075,-0l-0,73.482l-30.075,-0Zm34.405,-0l0,-79.319l-38.739,-0l0,79.319l-21.762,-0l-0,-94.869l87.277,0l0,94.869l-26.776,-0Zm93.627,-0l-0,-73.482l30.068,-0l-0,73.482l-30.068,-0Zm-467.722,0.029l18.214,0l-0,-69.176l-18.214,-0l-0,69.176Zm826.272,-282.982l8.711,0l-0,170.27l-8.711,0l-0,-170.27Zm-92.231,0l8.714,0l-0,170.27l-8.714,0l-0,-170.27Zm76.966,170.27l0,-170.27l5.656,0l0,170.27l-5.656,0Zm-43.389,-170.27l0,170.27l33.784,0l0,-170.27l-33.784,0Zm-9.602,170.27l0,-170.27l-5.656,0l0,170.27l5.656,0Zm-48.838,-170.27l-0,170.27l-33.787,0l-0,-170.27l33.787,0Zm9.602,170.27l-0,-170.27l5.656,0l-0,170.27l-5.656,0Zm-58.651,-170.27l5.659,0l0,170.27l-5.659,0l0,-170.27Zm531.09,15.218l0,188.332l-8.43,-0l0,-188.332l8.43,-0Zm-53.495,-0l-0,188.332l-8.434,-0l0,-188.332l8.434,-0Zm4.333,188.332l0,-188.332l36.398,-0l0,188.332l-36.398,-0Zm-61.946,-188.332l0,188.332l-8.433,-0l-0,-188.332l8.433,-0Zm4.331,188.332l-0,-188.332l40.514,-0l0,188.332l-40.514,-0Zm-55.773,-188.332l0,188.332l-8.437,-0l0,-188.332l8.437,-0Zm4.33,188.332l0,-188.332l34.345,-0l0,188.332l-34.345,-0Zm198.955,-188.332l0,188.332l-36.398,-0l0,-188.332l36.398,-0Zm12.764,-0l0,188.332l-8.43,-0l-0,-188.332l8.43,-0Zm4.337,188.332l0,-188.332l18.213,-0l-0,188.332l-18.213,-0Zm-304.928,-21.172l-8.43,-0l-0,-191.417l8.43,-0l0,191.417Zm-53.495,-191.417l-0,191.417l-8.437,-0l-0,-191.417l8.437,-0Zm4.33,191.417l-0,-191.417l36.401,-0l0,191.417l-36.401,-0Zm-42.972,-182.378l-0,170.27l-7.402,0l-0,-170.27l7.402,0Zm14.406,182.378l0,-191.417l11.465,-0l0,191.417l-11.465,-0Zm87.276,-191.417l0,191.417l-5.208,-0l0,-191.417l5.208,-0Zm0,-21.543l0,15.702l-87.276,-0l0,-15.702l87.276,0Zm0,-22.342l0,12.082l-87.276,0l0,-12.082l87.276,0Zm14.407,36.339l-0,-12.078l299.189,0l-0,12.078l-299.189,0Zm-0,25.966l-0,-15.706l299.189,0l-0,15.706l-299.189,-0Zm-0,194.169l-0,-188.332l47.826,-0l0,188.332l-47.826,-0Zm47.826,79.432l-47.826,0l-0,-69.176l47.826,-0l0,69.176Zm12.764,0l-8.437,0l0,-69.176l8.437,-0l0,69.176Zm38.675,0l-34.345,0l0,-69.176l34.345,-0l0,69.176Zm12.767,0l-8.433,0l-0,-69.176l8.433,-0l0,69.176Zm44.845,0l-40.514,0l-0,-69.176l40.514,-0l0,69.176Zm12.768,0l-8.434,0l0,-69.176l8.434,-0l-0,69.176Zm40.731,0l-36.398,0l0,-69.176l36.398,-0l0,69.176Zm12.764,0l-8.43,0l0,-69.176l8.43,-0l0,69.176Zm40.735,0l-36.398,0l0,-69.176l36.398,-0l0,69.176Zm12.764,0l-8.43,0l-0,-69.176l8.43,-0l0,69.176Zm-543.399,-61.282l-18.063,0l0,45.913l18.063,0l-0,-45.913Zm-18.727,-63.062l19.391,0l0,-59.257c0,-17.966 -19.391,-17.966 -19.391,-0l-0,59.257Zm18.727,-146.059l-18.063,0l0,24.354l18.063,-0l-0,-24.354Zm-57.983,146.059l-0,-59.257c-0,-17.478 -19.405,-17.482 -19.405,-0l0,59.257l19.405,0Zm-0.665,-146.059l-18.075,0l-0,24.354l18.075,-0l0,-24.354Zm64.651,270.374l-0,-73.482l-30.072,-0l-0,73.482l30.072,-0Zm-64.651,-61.253l0,45.913l-18.075,0l-0,-45.913l18.075,0Zm579.665,-196.58l-15.712,0l-0,24.358l15.712,-0l-0,-24.358Zm-54.948,0l-15.712,0l-0,24.358l15.712,-0l-0,-24.358Zm-109.899,0l-15.712,0l-0,24.358l15.712,-0l-0,-24.358Zm-54.952,0l-15.712,0l0,24.358l15.712,-0l0,-24.358Zm219.799,56.695l-15.712,-0l-0,72.733l15.712,-0l-0,-72.733Zm-54.948,-0l-15.712,-0l-0,72.733l15.712,-0l-0,-72.733Zm-71.241,72.733l16.867,-0l0,-59.258c0,-17.961 -16.867,-17.961 -16.867,0l0,59.258Zm-38.658,-72.733l-15.712,-0l-0,72.733l15.712,-0l-0,-72.733Zm-54.952,-0l-15.712,-0l0,72.733l15.712,-0l0,-72.733Zm219.799,150.747l-15.712,0l-0,36.861l15.712,0l-0,-36.861Zm-54.948,0l-15.712,0l-0,36.861l15.712,0l-0,-36.861Zm-54.952,0l-15.711,0l-0,36.861l15.711,0l0,-36.861Zm-54.947,0l-15.712,0l-0,36.861l15.712,0l-0,-36.861Zm-54.952,0l-15.712,0l0,36.861l15.712,0l0,-36.861Zm102.047,-208.178c-4.601,-0 -8.334,5.786 -8.334,12.911c0,7.137 3.733,12.915 8.334,12.915c4.597,0 8.327,-5.778 8.327,-12.915c-0,-7.125 -3.73,-12.911 -8.327,-12.911Zm-183.01,-16.968l-18.065,-0l-0,24.357l18.065,0l0,-24.357Zm0,51.838l-18.065,-0l-0,72.737l18.065,0l0,-72.737Zm0,162.467l-18.065,0l-0,45.913l18.065,0l0,-45.913Zm-128.031,-0.021l-18.059,0l-0,45.913l18.059,0l-0,-45.913Zm-18.727,-63.062l19.391,0l0,-59.257c0,-17.966 -19.391,-17.966 -19.391,-0l0,59.257Zm18.727,-146.059l-18.059,0l-0,24.354l18.059,-0l-0,-24.354Zm134.034,270.395l0,-73.482l-30.071,-0l-0,73.482l30.071,-0Zm-34.405,-0l0,-79.323l38.739,-0l-0,79.323l21.761,-0l0,-90.341l-87.276,0l0,90.341l26.776,-0Zm-93.626,-0.021l-0,-73.482l-30.068,-0l-0,73.482l30.068,-0Zm467.722,0.029l-18.213,0l0,-69.176l18.213,-0l-0,69.176Zm-851.99,-328.373l-0,-12.082l436.712,0l-0,12.082l-436.712,0Zm-0,25.962l-0,-15.702l436.712,0l-0,15.702l-436.712,-0Zm201.462,189.699l-0,-170.27l33.791,0l-0,170.27l-33.791,0Zm-2.484,33.364l-0,79.319l-19.905,-0l-0,-79.319l-38.736,-0l0,79.319l-53.488,-0l-0,-79.319l-38.742,-0l-0,79.319l-48.107,-0l-0,-93.257l436.712,-0l-0,93.257l-48.107,-0l-0,-79.319l-38.742,-0l-0,79.319l-53.489,-0l-0,-79.319l-38.739,-0l-0,79.319l-19.902,-0l0,-79.319l-38.755,-0Zm4.334,79.319l-0,-73.482l30.084,-0l0,73.482l-30.084,-0Z" style="fill:#fff;"/></svg>