<?xml version="1.0" encoding="UTF-8" standalone="no"?><!DOCTYPE svg PUBLIC "-//W3C//DTD SVG 1.1//EN" "http://www.w3.org/Graphics/SVG/1.1/DTD/svg11.dtd"><svg width="100%" height="100%" viewBox="0 0 313 223" version="1.1" xmlns="http://www.w3.org/2000/svg" xmlns:xlink="http://www.w3.org/1999/xlink" xml:space="preserve" xmlns:serif="http://www.serif.com/" style="fill-rule:evenodd;clip-rule:evenodd;stroke-linejoin:round;stroke-miterlimit:2;"><path d="M201.884,152.512l-91.228,0c29.935,-4.027 61.293,-4.039 91.228,0Zm-10.213,-81.695c-0.885,-0.074 -1.789,-0.144 -2.713,-0.211c-1.379,-5.517 -2.514,-11.227 -4.483,-16.303c-1.34,-3.459 -2.929,-6.669 -4.731,-9.58c2.681,3.325 5.037,7.193 6.987,11.485c2.065,4.546 3.411,9.652 4.94,14.609Zm-4.491,-0.337c-1.98,-0.134 -4.035,-0.256 -6.159,-0.364c-1.27,-5.701 -2.337,-11.598 -3.792,-16.841c-2.069,-7.465 -5.315,-13.81 -9.496,-18.567c0.049,0.026 0.098,0.05 0.147,0.075c6.291,4.594 11.466,11.696 14.964,20.44c1.9,4.753 3.021,10.08 4.336,15.257Zm-7.955,-0.452c-2.285,-0.107 -4.637,-0.199 -7.04,-0.274c-0.162,-1.24 -0.311,-2.491 -0.463,-3.738c-1.454,-11.94 -4.012,-22.459 -8.933,-32.038l0.886,0c5.303,4.761 9.377,11.757 11.83,20.25c1.421,4.921 2.483,10.438 3.72,15.8Zm-8.792,-0.325c-2.441,-0.068 -4.93,-0.12 -7.45,-0.152c-0.026,-1.174 -0.04,-2.356 -0.058,-3.535c-0.131,-9.341 -1.417,-21.721 -3.91,-32.038l1.808,0c4.803,9.274 7.608,20.309 9.075,31.617c0.178,1.37 0.35,2.744 0.535,4.108Zm-9.198,-0.172c-3.289,-0.032 -6.625,-0.035 -9.972,-0.005c0.036,-1.306 0.063,-2.62 0.093,-3.931c0.194,-8.827 1.603,-21.342 4.098,-31.617l1.595,0c2.495,10.275 3.904,22.79 4.099,31.617c0.029,1.313 0.052,2.628 0.087,3.936Zm-11.72,0.013c-2.484,0.032 -4.971,0.08 -7.446,0.147c0.185,-1.359 0.359,-2.73 0.536,-4.096c1.467,-11.308 4.272,-22.343 9.074,-31.617l1.809,0c-2.493,10.317 -3.78,22.697 -3.912,32.038c-0.015,1.177 -0.034,2.356 -0.061,3.528Zm-9.201,0.2c-2.364,0.074 -4.715,0.165 -7.038,0.275c1.236,-5.36 2.301,-10.872 3.722,-15.791c2.454,-8.493 6.527,-15.489 11.831,-20.25l0.884,0c-4.92,9.579 -7.478,20.098 -8.932,32.038c-0.151,1.243 -0.304,2.491 -0.467,3.728Zm-8.834,0.364c-2.082,0.108 -4.138,0.231 -6.16,0.37c1.314,-5.177 2.438,-10.503 4.339,-15.255c3.498,-8.744 8.673,-15.846 14.964,-20.44c0.049,-0.025 0.098,-0.049 0.147,-0.075c-4.182,4.757 -7.428,11.102 -9.498,18.567c-1.452,5.24 -2.522,11.135 -3.792,16.833Zm-7.937,0.496c-0.913,0.068 -1.817,0.138 -2.714,0.213c1.529,-4.957 2.878,-10.063 4.943,-14.609c1.949,-4.292 4.306,-8.16 6.986,-11.485c-1.8,2.911 -3.389,6.121 -4.731,9.58c-1.968,5.075 -3.106,10.784 -4.484,16.301Zm-21.138,80.925l-0,-3.331c35.848,-5.457 71.843,-5.457 107.69,0l0,3.331c-35.811,-5.487 -71.878,-5.487 -107.69,0Zm50.837,-11.193l-0,-25.868l6.016,-0l0,25.868c-2.004,-0.009 -4.012,-0.009 -6.016,-0Zm-50.837,-25.677l-0,-1.374c35.751,-5.217 71.939,-5.217 107.69,-0l0,1.374c-35.73,-5.231 -71.96,-5.231 -107.69,-0Zm-1.748,-2.496l0,-1.174c36.766,-5.749 74.42,-5.749 111.185,-0l0,1.174c-36.8,-5.754 -74.384,-5.754 -111.185,-0Zm1.748,-3.079l-0,-1.375c35.756,-5.182 71.934,-5.182 107.69,0l0,1.375c-35.734,-5.198 -71.956,-5.198 -107.69,-0Zm50.194,-9.037l-0,-18.962c2.435,0.018 4.867,0.018 7.302,-0l-0,18.962c-2.434,0.008 -4.868,0.008 -7.302,0Zm-42.48,-20.267l0,-0.912c30.94,-3.152 61.322,-3.152 92.262,-0l-0,0.912c-30.89,-3.163 -61.372,-3.163 -92.262,-0Zm3.311,-2.887l0,-1.557c28.602,-2.563 57.038,-2.563 85.64,-0l-0,1.557c-28.599,-2.563 -57.041,-2.563 -85.64,0Zm56.163,61.398l0,-16.935c0,-2.991 -3.154,-3.052 -3.154,-0.061l0,16.927c1.056,0.009 2.11,0.042 3.154,0.069Zm11.742,0.461l0,-16.944c0,-2.982 -3.154,-3.157 -3.154,-0.164l-0,16.934c1.055,0.053 2.099,0.113 3.154,0.174Zm11.742,0.853l-0,-16.944c-0,-2.992 -3.154,-3.262 -3.154,-0.27l-0,16.953c1.055,0.078 2.098,0.164 3.154,0.261Zm11.743,1.557l-0,-16.979c-0,-3 -3.155,-3.496 -3.155,-0.504l0,16.961c1.043,0.164 2.098,0.348 3.155,0.522Zm-30.242,-41.533l0,-13.455c0,-2.992 -3.154,-3.071 -3.154,-0.088l0,13.465c1.056,0.026 2.1,0.061 3.154,0.078Zm-8.369,-0.2l-0,-13.446c-0,-2.992 -3.167,-3.01 -3.167,-0.027l0,13.455c1.056,0 2.111,0.018 3.167,0.018Zm25.121,1.192l-0,-13.473c-0,-2.992 -3.154,-3.236 -3.154,-0.244l-0,13.464c1.055,0.087 2.098,0.166 3.154,0.253Zm-8.37,-0.609l0,-13.464c0,-2.992 -3.165,-3.149 -3.165,-0.157l-0,13.464c1.055,0.053 2.11,0.105 3.165,0.157Zm16.753,1.496l-0,-13.482c-0,-2.993 -3.167,-3.34 -3.167,-0.347l0,13.472c1.056,0.114 2.111,0.226 3.167,0.357Zm8.393,42.436c0.668,0.157 1.334,0.331 1.989,0.488l0,-25.998c-0.655,-0.149 -1.321,-0.305 -1.989,-0.452l0,25.962Zm-7.848,-1.313c1.99,0.287 3.979,0.627 5.955,0.965l0,-25.971c-1.976,-0.313 -3.965,-0.635 -5.955,-0.922l-0,25.928Zm-3.894,-0.47c0.667,0.078 1.346,0.157 2.013,0.235l0,-25.928c-0.667,-0.078 -1.346,-0.148 -2.013,-0.226l0,25.919Zm-7.848,-0.756c1.989,0.173 3.979,0.339 5.968,0.53l-0,-25.91c-1.989,-0.2 -3.979,-0.357 -5.968,-0.522l-0,25.902Zm-3.894,-0.296c0.667,0.035 1.347,0.087 2.013,0.139l0,-25.893c-0.666,-0.053 -1.346,-0.104 -2.013,-0.148l0,25.902Zm-7.848,-0.418c1.989,0.096 3.978,0.21 5.968,0.314l0,-25.902c-1.99,-0.096 -3.979,-0.2 -5.968,-0.305l-0,25.893Zm-3.894,-0.121c0.667,0.026 1.347,0.043 2.014,0.061l-0,-25.894c-0.667,-0.018 -1.347,-0.034 -2.014,-0.061l-0,25.894Zm-7.836,-0.174c1.977,0.009 3.966,0.06 5.956,0.123l0,-25.886c-1.99,-0.061 -3.979,-0.104 -5.956,-0.113l-0,25.876Zm-3.906,-0.043c0.679,0.008 1.346,0.008 2.014,0.017l-0,-25.868c-0.668,-0.009 -1.335,-0.018 -2.014,-0.018l-0,25.869Zm33.334,-38.775l-0,-18.987c2.377,0.26 4.767,0.512 7.144,0.843l0,18.996c-2.377,-0.322 -4.767,-0.582 -7.144,-0.852Zm-9.437,-19.762l-0,18.979c-2.439,-0.14 -4.877,-0.261 -7.315,-0.375l-0,-18.969c2.438,0.103 4.876,0.217 7.315,0.365Zm1.067,19.049l-0,-18.98c2.438,0.192 4.864,0.375 7.303,0.6l-0,18.988c-2.439,-0.226 -4.865,-0.408 -7.303,-0.608Zm-17.82,-19.711l0,18.971c-2.438,-0.035 -4.875,-0.052 -7.314,-0.07l0,-18.961c2.439,0.017 4.876,0.026 7.314,0.06Zm1.068,18.998l0,-18.971c2.438,0.069 4.877,0.13 7.303,0.209l-0,18.97c-2.426,-0.078 -4.865,-0.139 -7.303,-0.208Zm-11.512,21.083l0,16.917l-3.176,0l-0,-16.917c-0,-2.729 3.176,-2.728 3.176,-0Zm-0.011,-21.841l-0,-13.447c-0,-2.711 -3.153,-2.712 -3.153,0l0,13.447l3.153,0Zm-14.92,38.897l-0,-16.935c-0,-2.991 3.154,-3.052 3.154,-0.061l-0,16.927c-1.056,0.009 -2.11,0.042 -3.154,0.069Zm-11.742,0.461l0,-16.944c0,-2.982 3.154,-3.157 3.154,-0.164l0,16.934c-1.055,0.053 -2.098,0.113 -3.154,0.174Zm-11.742,0.853l0,-16.944c0,-2.992 3.153,-3.262 3.153,-0.27l0,16.953c-1.055,0.078 -2.097,0.164 -3.153,0.261Zm-11.742,1.557l0,-16.979c0,-3 3.154,-3.496 3.154,-0.504l0,16.961c-1.043,0.164 -2.099,0.348 -3.154,0.522Zm30.241,-41.533l-0,-13.455c-0,-2.992 3.154,-3.071 3.154,-0.088l-0,13.465c-1.056,0.026 -2.099,0.061 -3.154,0.078Zm8.369,-0.2l0,-13.446c0,-2.992 3.167,-3.01 3.167,-0.027l-0,13.455c-1.056,0 -2.111,0.018 -3.167,0.018Zm-25.121,1.192l0,-13.473c0,-2.992 3.154,-3.236 3.154,-0.244l0,13.464c-1.055,0.087 -2.098,0.166 -3.154,0.253Zm8.369,-0.609l0,-13.464c0,-2.992 3.166,-3.149 3.166,-0.157l0,13.464c-1.055,0.053 -2.11,0.105 -3.166,0.157Zm-16.752,1.496l0,-13.482c0,-2.993 3.167,-3.34 3.167,-0.347l-0,13.472c-1.056,0.114 -2.111,0.226 -3.167,0.357Zm-8.393,42.436c-0.668,0.157 -1.334,0.331 -1.989,0.488l-0,-25.998c0.655,-0.149 1.321,-0.305 1.989,-0.452l-0,25.962Zm7.848,-1.313c-1.989,0.287 -3.979,0.627 -5.956,0.965l-0,-25.971c1.977,-0.313 3.967,-0.635 5.956,-0.922l-0,25.928Zm3.894,-0.47c-0.667,0.078 -1.346,0.157 -2.013,0.235l-0,-25.928c0.667,-0.078 1.346,-0.148 2.013,-0.226l-0,25.919Zm7.848,-0.756c-1.99,0.173 -3.979,0.339 -5.968,0.53l0,-25.91c1.989,-0.2 3.978,-0.357 5.968,-0.522l0,25.902Zm3.894,-0.296c-0.667,0.035 -1.347,0.087 -2.013,0.139l-0,-25.893c0.666,-0.053 1.346,-0.104 2.013,-0.148l-0,25.902Zm7.848,-0.418c-1.989,0.096 -3.978,0.21 -5.968,0.314l0,-25.902c1.99,-0.096 3.979,-0.2 5.968,-0.305l0,25.893Zm3.894,-0.121c-0.667,0.026 -1.347,0.043 -2.013,0.061l-0,-25.894c0.666,-0.018 1.346,-0.034 2.013,-0.061l0,25.894Zm7.836,-0.174c-1.977,0.009 -3.966,0.06 -5.956,0.123l-0,-25.886c1.99,-0.061 3.979,-0.104 5.956,-0.113l0,25.876Zm3.906,-0.043c-0.679,0.008 -1.346,0.008 -2.014,0.017l0,-25.868c0.668,-0.009 1.335,-0.018 2.014,-0.018l0,25.869Zm-33.333,-38.775l-0,-18.987c-2.378,0.26 -4.767,0.512 -7.145,0.843l-0,18.996c2.378,-0.322 4.767,-0.582 7.145,-0.852Zm9.436,-19.762l0,18.979c2.439,-0.14 4.877,-0.261 7.315,-0.375l0,-18.969c-2.438,0.103 -4.876,0.217 -7.315,0.365Zm-1.067,19.049l0,-18.98c-2.438,0.192 -4.864,0.375 -7.302,0.6l-0,18.988c2.438,-0.226 4.864,-0.408 7.302,-0.608Zm17.82,-19.711l-0,18.971c2.438,-0.035 4.876,-0.052 7.314,-0.07l-0,-18.961c-2.438,0.017 -4.876,0.026 -7.314,0.06Zm-1.068,18.998l-0,-18.971c-2.438,0.069 -4.877,0.13 -7.303,0.209l0,18.97c2.426,-0.078 4.865,-0.139 7.303,-0.208Zm11.313,-78.293l-1.162,0l-0,-13.387l1.162,-0l-0,13.387Zm-24.893,37.954c0.59,-2.655 3.551,-2.655 2.96,0c-0.612,2.762 -0.546,2.46 -1.159,5.223c-0.59,2.654 -3.552,2.654 -2.962,-0c0.615,-2.763 0.547,-2.461 1.161,-5.223Zm15.716,0c0.32,-2.655 3.282,-2.655 2.963,0c-0.332,2.762 -0.296,2.46 -0.628,5.223c-0.317,2.654 -3.28,2.654 -2.961,-0c0.331,-2.763 0.296,-2.461 0.626,-5.223Zm-8.082,0c0.426,-2.655 3.387,-2.655 2.96,0c-0.443,2.762 -0.394,2.46 -0.837,5.223c-0.425,2.654 -3.387,2.654 -2.961,-0c0.443,-2.763 0.394,-2.461 0.838,-5.223Zm20.837,-37.954l1.161,0l0,-13.387l-1.161,-0l-0,13.387Zm24.893,37.954c-0.591,-2.655 -3.552,-2.655 -2.962,0c0.613,2.762 0.547,2.46 1.16,5.223c0.59,2.654 3.552,2.654 2.962,-0c-0.614,-2.763 -0.547,-2.461 -1.16,-5.223Zm-15.718,0c-0.319,-2.655 -3.281,-2.655 -2.962,0c0.332,2.762 0.297,2.46 0.627,5.223c0.318,2.654 3.28,2.654 2.963,-0c-0.332,-2.763 -0.297,-2.461 -0.628,-5.223Zm-9.483,0c-0,-2.521 -2.962,-2.523 -2.962,0l-0,5.223c-0,2.524 2.962,2.523 2.962,-0l-0,-5.223Zm17.566,0c-0.425,-2.655 -3.387,-2.655 -2.96,0c0.443,2.762 0.393,2.46 0.836,5.223c0.425,2.654 3.388,2.654 2.962,-0c-0.442,-2.763 -0.395,-2.461 -0.838,-5.223Zm-24.811,-58.352l-0,-1.461l11.528,-0l-0,1.461l-11.528,-0Zm1.745,3.365l0,-0.944l8.036,-0l0,0.944l-8.036,-0Zm3.443,17.033l0,-13.387l1.15,-0l0,13.387l-1.15,0Zm-4.011,4.591l0,-0.945l9.173,0l0,0.945l-9.173,0Zm-2.881,3.882l0,-1.461l14.935,0l-0,1.461l-14.935,-0Zm-40.037,137.224l-2.148,0l-0,33.311l2.148,-0l-0,-33.311Zm22.743,0l-2.149,0l0,33.311l2.149,-0l0,-33.311Zm-18.979,33.311l-0,-33.311l-1.395,0l0,33.311l1.395,-0Zm10.7,-33.311l0,33.311l-8.332,-0l-0,-33.311l8.332,0Zm2.367,33.311l0,-33.311l1.395,0l-0,33.311l-1.395,-0Zm12.043,-33.311l0,33.311l8.332,-0l0,-33.311l-8.332,0Zm-2.367,33.311l-0,-33.311l-1.395,0l-0,33.311l1.395,-0Zm14.462,-33.311l-1.395,0l-0,33.311l1.395,-0l-0,-33.311Zm-130.964,2.977l0,36.845l2.08,-0l0,-36.845l-2.08,0Zm13.193,0l-0,36.845l2.08,-0l-0,-36.845l-2.08,0Zm-1.069,36.845l0,-36.845l-8.976,0l-0,36.845l8.976,-0Zm15.276,-36.845l-0,36.845l2.08,-0l-0,-36.845l-2.08,0Zm-1.069,36.845l0,-36.845l-9.99,0l0,36.845l9.99,-0Zm13.754,-36.845l0,36.845l2.08,-0l0,-36.845l-2.08,0Zm-1.068,36.845l-0,-36.845l-8.469,0l0,36.845l8.469,-0Zm-49.061,-36.845l0,36.845l8.976,-0l-0,-36.845l-8.976,0Zm-3.147,0l-0,36.845l2.079,-0l-0,-36.845l-2.079,0Zm-1.07,36.845l0,-36.845l-4.491,0l0,36.845l4.491,-0Zm75.193,-5.032l2.079,-0l0,-37.448l-2.079,0l0,37.448Zm13.193,-37.448l-0,37.448l2.08,-0l-0,-37.448l-2.08,0Zm-1.069,37.448l0,-37.448l-8.976,0l-0,37.448l8.976,-0Zm10.597,-34.79l-0,33.311l1.825,-0l0,-33.311l-1.825,0Zm-3.553,34.79l0,-37.448l-2.827,0l0,37.448l2.827,-0Zm-21.522,-37.448l0,37.448l1.285,-0l-0,-37.448l-1.285,0Zm0,-4.214l0,3.071l21.522,0l0,-3.071l-21.522,-0Zm0,-4.371l0,2.363l21.522,0l0,-2.363l-21.522,-0Zm-3.552,7.999l-0,-2.363l-73.778,-0l0,2.363l73.778,-0Zm-0,5.08l-0,-3.073l-73.778,0l0,3.073l73.778,-0Zm-0,37.986l-0,-36.845l-11.793,0l-0,36.845l11.793,-0Zm-11.793,15.539l11.793,0l-0,-13.533l-11.793,-0l-0,13.533Zm-3.148,0l2.08,0l0,-13.533l-2.08,-0l0,13.533Zm-9.537,0l8.469,0l-0,-13.533l-8.469,-0l0,13.533Zm-3.148,0l2.08,0l-0,-13.533l-2.08,-0l-0,13.533Zm-11.059,0l9.99,0l0,-13.533l-9.99,-0l0,13.533Zm-3.148,0l2.08,0l-0,-13.533l-2.08,-0l-0,13.533Zm-10.045,0l8.976,0l0,-13.533l-8.976,-0l-0,13.533Zm-3.148,0l2.08,0l0,-13.533l-2.08,-0l0,13.533Zm-10.044,0l8.976,0l-0,-13.533l-8.976,-0l0,13.533Zm-3.147,0l2.079,0l-0,-13.533l-2.079,-0l-0,13.533Zm133.998,-11.989l4.454,0l0,8.983l-4.454,-0l0,-8.983Zm4.618,-12.337l-4.781,0l-0,-11.592c-0,-3.515 4.781,-3.515 4.781,-0l0,11.592Zm-4.618,-28.574l4.454,0l0,4.765l-4.454,-0l0,-4.765Zm-1.48,52.895l0,-14.376l7.416,-0l-0,14.376l-7.416,-0Zm-126.999,-50.441l3.874,-0l0,4.765l-3.874,-0l-0,-4.765Zm13.55,-0l3.874,-0l0,4.765l-3.874,-0l-0,-4.765Zm27.1,-0l3.875,-0l-0,4.765l-3.875,-0l0,-4.765Zm13.551,-0l3.874,-0l0,4.765l-3.874,-0l-0,-4.765Zm-54.201,11.091l3.874,0l0,14.229l-3.874,0l-0,-14.229Zm13.55,0l3.874,0l0,14.229l-3.874,0l-0,-14.229Zm17.567,14.229l-4.159,0l-0,-11.593c-0,-3.514 4.159,-3.514 4.159,0l0,11.593Zm9.533,-14.229l3.875,0l-0,14.229l-3.875,0l0,-14.229Zm13.551,0l3.874,0l0,14.229l-3.874,0l-0,-14.229Zm-54.201,29.491l3.874,0l0,7.212l-3.874,-0l-0,-7.212Zm13.55,0l3.874,0l0,7.212l-3.874,-0l-0,-7.212Zm13.55,0l3.875,0l-0,7.212l-3.875,-0l0,-7.212Zm13.55,0l3.875,0l-0,7.212l-3.875,-0l0,-7.212Zm13.551,0l3.874,0l0,7.212l-3.874,-0l-0,-7.212Zm-25.164,-40.726c1.134,-0 2.055,1.132 2.055,2.525c0,1.397 -0.921,2.527 -2.055,2.527c-1.135,0 -2.053,-1.13 -2.053,-2.527c-0,-1.393 0.918,-2.525 2.053,-2.525Zm45.129,-4.211l4.454,0l-0,4.766l-4.454,-0l-0,-4.766Zm-0,10.142l4.454,0l-0,14.23l-4.454,0l-0,-14.23Zm-0,32.67l4.454,0l-0,8.983l-4.454,-0l-0,-8.983Zm31.571,0l4.455,0l-0,8.983l-4.455,-0l0,-8.983Zm4.618,-12.337l-4.781,0l-0,-11.592c-0,-3.515 4.781,-3.515 4.781,-0l0,11.592Zm-4.618,-28.574l4.455,0l-0,4.765l-4.455,-0l0,-4.765Zm-33.052,52.895l0,-14.376l7.417,-0l-0,14.376l-7.417,-0Zm8.485,-0l-0,-15.518l-9.553,0l-0,15.518l-5.367,-0l0,-18.56l21.522,-0l0,18.56l-6.602,-0Zm23.087,-0l0,-14.376l7.415,-0l-0,14.376l-7.415,-0Zm-115.337,0.005l4.491,0l0,-13.533l-4.491,-0l0,13.533Zm203.753,-55.361l2.148,0l0,33.311l-2.148,-0l0,-33.311Zm-22.743,0l2.149,0l-0,33.311l-2.149,-0l-0,-33.311Zm18.979,33.311l0,-33.311l1.395,0l-0,33.311l-1.395,-0Zm-10.699,-33.311l-0,33.311l8.331,-0l-0,-33.311l-8.331,0Zm-2.368,33.311l-0,-33.311l-1.395,0l0,33.311l1.395,-0Zm-12.043,-33.311l-0,33.311l-8.332,-0l-0,-33.311l8.332,0Zm2.368,33.311l-0,-33.311l1.394,0l0,33.311l-1.394,-0Zm-14.463,-33.311l1.395,0l0,33.311l-1.395,-0l-0,-33.311Zm130.963,2.977l-0,36.845l-2.079,-0l0,-36.845l2.079,0Zm-13.192,0l0,36.845l-2.079,-0l-0,-36.845l2.079,0Zm1.069,36.845l-0,-36.845l8.976,0l-0,36.845l-8.976,-0Zm-15.275,-36.845l-0,36.845l-2.08,-0l-0,-36.845l2.08,0Zm1.067,36.845l0,-36.845l9.991,0l0,36.845l-9.991,-0Zm-13.753,-36.845l0,36.845l-2.08,-0l-0,-36.845l2.08,0Zm1.068,36.845l-0,-36.845l8.469,0l0,36.845l-8.469,-0Zm49.061,-36.845l0,36.845l-8.976,-0l0,-36.845l8.976,0Zm3.147,0l0,36.845l-2.078,-0l-0,-36.845l2.078,0Zm1.07,36.845l-0,-36.845l4.491,0l-0,36.845l-4.491,-0Zm-75.193,-4.142l-2.079,-0l-0,-37.448l2.079,-0l-0,37.448Zm-13.192,-37.448l0,37.448l-2.08,-0l-0,-37.448l2.08,-0Zm1.068,37.448l-0,-37.448l8.976,-0l0,37.448l-8.976,-0Zm-10.597,-35.68l0,33.311l-1.825,-0l-0,-33.311l1.825,0Zm3.553,35.68l-0,-37.448l2.827,-0l-0,37.448l-2.827,-0Zm21.522,-37.448l-0,37.448l-1.285,-0l0,-37.448l1.285,-0Zm-0,-4.214l-0,3.071l-21.522,0l-0,-3.071l21.522,-0Zm-0,-4.371l-0,2.363l-21.522,0l-0,-2.363l21.522,-0Zm3.552,7.109l0,-2.363l73.778,-0l-0,2.363l-73.778,-0Zm0,5.08l0,-3.073l73.778,0l-0,3.073l-73.778,-0Zm0,37.986l0,-36.845l11.794,0l-0,36.845l-11.794,-0Zm11.794,15.539l-11.794,0l0,-13.533l11.794,-0l-0,13.533Zm3.147,0l-2.08,0l-0,-13.533l2.08,-0l0,13.533Zm9.537,0l-8.469,0l-0,-13.533l8.469,-0l0,13.533Zm3.149,0l-2.08,0l-0,-13.533l2.08,-0l-0,13.533Zm11.058,0l-9.991,0l0,-13.533l9.991,-0l0,13.533Zm3.148,0l-2.079,0l-0,-13.533l2.079,-0l0,13.533Zm10.045,0l-8.976,0l-0,-13.533l8.976,-0l-0,13.533Zm3.147,0l-2.079,0l0,-13.533l2.079,-0l-0,13.533Zm10.045,0l-8.976,0l0,-13.533l8.976,-0l0,13.533Zm3.147,0l-2.078,0l-0,-13.533l2.078,-0l0,13.533Zm-133.998,-11.989l-4.454,0l-0,8.983l4.454,-0l-0,-8.983Zm-4.618,-12.337l4.782,0l-0,-11.592c-0,-3.515 -4.782,-3.515 -4.782,-0l-0,11.592Zm4.618,-28.574l-4.454,0l-0,4.765l4.454,-0l-0,-4.765Zm-14.298,28.574l-0,-11.592c-0,-3.42 -4.785,-3.42 -4.785,-0l-0,11.592l4.785,0Zm-0.164,-28.574l-4.458,0l0,4.765l4.458,-0l-0,-4.765Zm15.942,52.895l-0,-14.376l-7.416,-0l0,14.376l7.416,-0Zm-15.942,-11.984l-0,8.983l-4.458,-0l0,-8.983l4.458,0Zm142.941,-38.457l-3.874,-0l-0,4.765l3.874,-0l0,-4.765Zm-13.55,-0l-3.874,-0l-0,4.765l3.874,-0l0,-4.765Zm-27.1,-0l-3.875,-0l0,4.765l3.875,-0l-0,-4.765Zm-13.551,-0l-3.874,-0l-0,4.765l3.874,-0l0,-4.765Zm54.201,11.091l-3.874,0l-0,14.229l3.874,0l0,-14.229Zm-13.55,0l-3.874,0l-0,14.229l3.874,0l0,-14.229Zm-17.567,14.229l4.159,0l0,-11.593c0,-3.514 -4.159,-3.514 -4.159,0l-0,11.593Zm-9.533,-14.229l-3.875,0l0,14.229l3.875,0l-0,-14.229Zm-13.551,0l-3.874,0l-0,14.229l3.874,0l0,-14.229Zm54.201,29.491l-3.874,0l-0,7.212l3.874,-0l0,-7.212Zm-13.55,0l-3.874,0l-0,7.212l3.874,-0l0,-7.212Zm-13.55,0l-3.875,0l0,7.212l3.875,-0l-0,-7.212Zm-13.55,0l-3.875,0l0,7.212l3.875,-0l-0,-7.212Zm-13.551,0l-3.874,0l-0,7.212l3.874,-0l0,-7.212Zm25.164,-40.726c-1.134,-0 -2.055,1.132 -2.055,2.525c0,1.397 0.921,2.527 2.055,2.527c1.134,0 2.054,-1.13 2.054,-2.527c-0,-1.393 -0.92,-2.525 -2.054,-2.525Zm-45.129,-3.32l-4.455,0l0,4.765l4.455,0l0,-4.765Zm0,10.141l-4.455,0l0,14.23l4.455,0l0,-14.23Zm0,31.785l-4.455,-0l0,8.982l4.455,-0l0,-8.982Zm-31.571,-0.005l-4.454,0l0,8.983l4.454,-0l-0,-8.983Zm-4.618,-12.337l4.781,0l0,-11.592c0,-3.515 -4.781,-3.515 -4.781,-0l-0,11.592Zm4.618,-28.574l-4.454,0l0,4.765l4.454,-0l-0,-4.765Zm33.052,52.899l-0,-14.376l-7.416,0l0,14.376l7.416,-0Zm-8.484,-0l-0,-15.519l9.552,0l0,15.519l5.367,-0l-0,-17.674l-21.522,-0l-0,17.674l6.603,-0Zm-23.088,-0.004l-0,-14.376l-7.415,-0l0,14.376l7.415,-0Zm115.337,0.005l-4.491,0l-0,-13.533l4.491,-0l-0,13.533Zm-210.095,-64.241l-0,-2.363l107.69,-0l0,2.363l-107.69,0Zm-0,5.079l-0,-3.071l107.69,-0l0,3.071l-107.69,0Zm49.679,37.112l0,-33.311l8.333,0l-0,33.311l-8.333,-0Zm-0.612,6.527l-0,15.518l-4.909,-0l0,-15.518l-9.552,0l0,15.518l-13.19,-0l0,-15.518l-9.553,0l-0,15.518l-11.863,-0l-0,-18.245l107.69,0l0,18.245l-11.863,-0l0,-15.518l-9.553,0l-0,15.518l-13.19,-0l-0,-15.518l-9.553,0l0,15.518l-4.908,-0l0,-15.518l-9.556,0Zm1.068,15.518l0,-14.376l7.419,-0l-0,14.376l-7.419,-0Z"/></svg>