<?xml version="1.0" encoding="UTF-8" standalone="no"?><!DOCTYPE svg PUBLIC "-//W3C//DTD SVG 1.1//EN" "http://www.w3.org/Graphics/SVG/1.1/DTD/svg11.dtd"><svg width="100%" height="100%" viewBox="0 0 313 1250" version="1.1" xmlns="http://www.w3.org/2000/svg" xmlns:xlink="http://www.w3.org/1999/xlink" xml:space="preserve" xmlns:serif="http://www.serif.com/" style="fill-rule:evenodd;clip-rule:evenodd;stroke-linejoin:round;stroke-miterlimit:2;"><g><rect x="0" y="0" width="312.5" height="1249.77" style="fill:#221c1c;"/><rect x="289.64" y="0" width="13.198" height="1249.77" style="fill:#fff;"/><rect x="9.663" y="0" width="13.198" height="1249.77" style="fill:#fff;"/><g><g><g><rect x="147.53" y="0" width="17.44" height="35.531" style="fill:#fabc00;"/></g></g><g><g><path d="M164.97,1145.01l-17.44,-0l0,-69.457l17.44,-0l-0,69.457Zm-0,-138.685l-17.44,-0l0,-69.457l17.44,-0l-0,69.457Zm-0,-138.685l-17.44,-0l0,-69.458l17.44,0l-0,69.458Zm-0,-138.685l-17.44,-0l0,-69.458l17.44,0l-0,69.458Zm-0,-138.686l-17.44,0l0,-69.457l17.44,0l-0,69.457Zm-0,-138.685l-17.44,0l0,-69.457l17.44,0l-0,69.457Zm-0,-138.685l-17.44,0l0,-69.457l17.44,-0l-0,69.457Zm-0,-138.685l-17.44,0l0,-69.228l17.44,0l-0,69.228Z" style="fill:#fabc00;fill-rule:nonzero;"/></g></g><g><g><rect x="147.53" y="1214.47" width="17.44" height="35.531" style="fill:#fabc00;"/></g></g></g></g></svg>