<?xml version="1.0" encoding="UTF-8" standalone="no"?><!DOCTYPE svg PUBLIC "-//W3C//DTD SVG 1.1//EN" "http://www.w3.org/Graphics/SVG/1.1/DTD/svg11.dtd"><svg width="100%" height="100%" viewBox="0 0 313 519" version="1.1" xmlns="http://www.w3.org/2000/svg" xmlns:xlink="http://www.w3.org/1999/xlink" xml:space="preserve" xmlns:serif="http://www.serif.com/" style="fill-rule:evenodd;clip-rule:evenodd;stroke-linejoin:round;stroke-miterlimit:2;"><path d="M304.189,291.145l-0,0.002c-6.655,52.416 -43.664,89.629 -77.999,103.787l-2.453,-4.884c-1.929,-13.19 -13.236,-23.094 -26.441,-23.094c-14.735,-0 -26.726,12.101 -26.726,26.973l-0,3.058c-15.334,-6.672 -26.785,-20.474 -33.231,-40.112l-0,-15.476l18.503,0c20.36,16.916 43.247,21.86 64.501,13.918c24.786,-9.256 43.317,-35.087 48.361,-67.402c5.725,-36.457 -2.126,-69.632 -21.54,-91.02c-16.933,-18.655 -42.092,-27.573 -72.707,-25.751c-0.939,0.055 -1.714,0.752 -1.866,1.682c-1.509,9.189 -3.028,18.394 -4.551,27.607c-1.815,10.99 -3.631,21.995 -5.431,32.997l-17.081,0l-0,-21.033c10.543,-1.024 18.814,-10.014 18.814,-20.915c-0,-10.904 -8.271,-19.893 -18.814,-20.917l-0,-62.828c54.516,0.408 98.097,17.411 126.11,49.232c28.394,32.254 39.647,78.653 32.551,134.176Zm-48.704,171.039l-80.889,0l-0,-68.255c-0,-12.654 10.184,-22.948 22.7,-22.948c11.308,-0 20.979,8.57 22.498,19.937c0.032,0.217 0.094,0.427 0.191,0.625l3.395,6.854c0.064,0.134 0.143,0.254 0.229,0.365l31.876,63.422Zm7.913,4.022c0.449,0 0.716,0.379 0.716,0.745l0,30.774l-257.868,-0l-0,-30.774c-0,-0.376 0.352,-0.745 0.716,-0.745l256.435,0l0.001,0Zm0.716,45.752l-45.593,0c-0.177,-0.317 -0.37,-0.643 -0.579,-0.91l-6.964,-9.299l53.136,0l0,10.209Zm-211.739,-0.848c-0.173,0.251 -0.323,0.519 -0.467,0.781c-0.013,0.022 -0.024,0.044 -0.036,0.067l-45.626,0l0,-10.209l53.189,0l-7.06,9.361Zm91.14,-302.641c-9.261,-0 -16.797,-7.619 -16.797,-16.987c-0,-9.369 7.536,-16.99 16.797,-16.99c9.263,-0 16.801,7.621 16.801,16.99c-0,9.368 -7.538,16.987 -16.801,16.987l-0,-0Zm-2.013,45.08l-64.212,0l0,-168.099l64.212,-0l-0,85.115c-10.539,1.024 -18.81,10.013 -18.81,20.917c0,10.901 8.271,19.891 18.81,20.915l-0,41.152Zm-27.441,22.357c-1.576,0.143 -3.154,0.219 -4.673,0.22l-0.087,-0c-1.604,-0.001 -3.218,-0.082 -4.882,-0.245c-4.732,-0.469 -9.127,-1.606 -12.942,-3.256c-4.727,-2.095 -8.509,-4.897 -10.985,-8.148c-0.061,-0.079 -0.124,-0.15 -0.193,-0.218c-1.509,-2.067 -2.498,-4.318 -2.859,-6.685l63.91,0c-1.433,9.402 -12.804,16.969 -27.289,18.332Zm1.253,19.668c0,0.675 -0.574,1.267 -1.233,1.267l-9.37,0c-0.721,0 -1.306,-0.568 -1.306,-1.267l-0,-15.751c1.067,0.115 2.115,0.2 3.152,0.252c0.883,0.047 1.776,0.072 2.675,0.076l0.003,-0c0.013,-0 0.026,-0.004 0.031,-0l0.063,-0c1.354,-0.044 2.511,-0.044 3.744,-0.13c0.747,-0.051 1.497,-0.115 2.241,-0.196l0,15.749Zm-34.044,-5.906c-0.34,0.597 -1.121,0.779 -1.728,0.445l-8.131,-4.778c-0.579,-0.333 -0.777,-1.129 -0.439,-1.728l8.257,-14.45c2.587,2.657 5.932,4.967 9.861,6.804l-7.82,13.707Zm-3.98,-210.029c0,-3.165 2.503,-5.738 5.584,-5.738l52.971,0c3.067,0 5.657,2.629 5.657,5.738l-0,1.788l-64.212,-0l0,-1.788Zm49.09,-62.591l-0,52.831l-33.967,-0l-0,-52.831l33.967,-0Zm-43.841,-3.966c-0.25,-0.163 -0.971,-1.319 -0.971,-3.41c-0,-1.954 0.62,-3.117 0.916,-3.428l53.719,-0.055c0.242,0.163 0.949,1.336 0.949,3.483c-0,2.108 -0.692,3.247 -0.717,3.353l-7.856,0.008c-0.061,-0.005 -0.122,-0.008 -0.186,-0.008l-37.994,-0c-0.152,-0 -0.302,0.017 -0.447,0.049l-7.413,0.008Zm50.775,342.102l-80.169,0c-0.061,-0.002 -0.201,-0.133 -0.201,-0.224l0,-13.338c0,-0.092 0.14,-0.221 0.201,-0.223l80.169,-0l-0,13.785Zm141.343,-200.874c-28.797,-32.712 -73.415,-50.187 -129.129,-50.597l-0,-24.074c-0,-5.382 -4.344,-9.761 -9.683,-9.761l-5.439,0l-0,-52.83l6.029,-0c2.747,-0 4.742,-3.102 4.742,-7.376c-0,-4.318 -1.995,-7.452 -4.742,-7.452l-54.151,0c-2.704,0 -4.742,3.204 -4.742,7.452c-0,4.205 2.038,7.376 4.742,7.376l6.102,-0l0,52.83l-5.512,0c-5.299,0 -9.61,4.379 -9.61,9.761l0,175.922c0,3.642 1.17,7.1 3.263,10.213l-9.052,15.844c-1.431,2.534 -0.567,5.766 1.913,7.196l8.164,4.795c2.605,1.442 5.782,0.582 7.218,-1.956l8.113,-14.218c2.058,0.724 4.232,1.315 6.496,1.758l0,16.38c0,2.919 2.392,5.29 5.332,5.29l9.37,-0c2.9,-0 5.259,-2.371 5.259,-5.29l0,-16.376c15.105,-2.95 26.188,-12.429 26.188,-23.636l-0,-18.106l18.793,-0c0.985,-0 1.828,-0.715 1.984,-1.689c1.889,-11.563 3.799,-23.128 5.707,-34.68c1.433,-8.68 2.866,-17.353 4.287,-26.01c28.66,-1.371 52.091,7.123 67.887,24.522c18.59,20.481 26.076,52.445 20.544,87.693c-4.822,30.885 -22.368,55.508 -45.793,64.259c-20.038,7.484 -41.726,2.619 -61.066,-13.702c-0.361,-0.305 -0.822,-0.473 -1.297,-0.473l-103.429,-0c-2.29,-0 -4.227,1.944 -4.227,4.247l0,13.338c0,2.302 1.937,4.246 4.227,4.246l80.731,0c7.11,20.866 19.76,35.389 36.694,42.142l0,60.836l-163.607,-0c-2.57,-0 -4.743,2.181 -4.743,4.767l0,45.304c0,2.054 1.632,3.725 3.635,3.725l46.551,-0c1.85,-0 2.648,-1.458 3.031,-2.156c0.077,-0.142 0.153,-0.29 0.2,-0.358l8.836,-11.717l141.481,-0l8.799,11.752c0.11,0.141 0.189,0.302 0.274,0.448c0.365,0.66 1.131,2.031 2.924,2.031l46.553,-0c2.004,-0 3.637,-1.671 3.637,-3.725l-0,-45.304c-0,-2.629 -2.129,-4.767 -4.743,-4.767l-3.409,-0l-31.987,-63.646c35.342,-14.698 73.336,-53.008 80.178,-106.881c7.249,-56.707 -4.345,-104.2 -33.523,-137.347l-0,0Z" style="fill-rule:nonzero;"/><path d="M57.489,514.697l8.091,-10.728c-0,0 139.263,0 139.263,0l8.133,10.863l0.121,0.215c0.598,1.078 1.943,3.153 4.854,3.153c-0,-0 46.553,-0 46.553,-0c3.213,-0 5.857,-2.653 5.857,-5.945l0,-45.304c0,-3.857 -3.128,-6.988 -6.963,-6.988l-2.04,0c-3.908,-7.776 -25.284,-50.309 -30.312,-60.314c35.295,-15.591 72.522,-54.053 79.336,-107.712c7.343,-57.438 -4.503,-105.52 -34.055,-139.09l-0.004,-0.004c-28.792,-32.707 -73.161,-50.468 -128.575,-51.325c0,0 0,-21.879 0,-21.879c0,-6.611 -5.344,-11.981 -11.903,-11.981c0,-0 -3.219,-0 -3.219,-0c0,-0 0,-48.39 0,-48.39c0,0 3.809,0 3.809,0c3.715,0 6.962,-3.817 6.962,-9.596c-0,-3.232 -0.988,-5.902 -2.445,-7.545c-1.225,-1.382 -2.787,-2.127 -4.517,-2.127l-54.151,-0c-1.706,-0 -3.272,0.753 -4.504,2.153c-1.46,1.659 -2.459,4.341 -2.459,7.519c0,3.156 1.002,5.819 2.467,7.466c1.23,1.384 2.792,2.13 4.496,2.13c0,0 3.882,0 3.882,0c0,8.615 0,39.775 0,48.39c0,-0 -3.292,-0 -3.292,-0c-6.513,-0 -11.83,5.365 -11.83,11.981l-0,175.922c-0,3.627 1.021,7.094 2.894,10.269c0,-0 -8.391,14.687 -8.391,14.687c-0.002,0.003 -0.003,0.006 -0.005,0.009c-2.031,3.594 -0.786,8.173 2.728,10.206c-0,-0 8.157,4.791 8.157,4.791c0.016,0.01 0.033,0.019 0.049,0.028c3.693,2.044 8.186,0.795 10.223,-2.799c-0,-0 7.213,-12.641 7.213,-12.641c1.057,0.325 2.14,0.618 3.247,0.876c-0,0 -0,14.586 -0,14.586c-0,4.139 3.382,7.51 7.552,7.51l9.37,0c4.121,0 7.48,-3.362 7.48,-7.51l-0,-14.581c15.357,-3.584 26.187,-13.785 26.187,-25.431c0,-0 0,-15.886 0,-15.886c0,0 16.573,0 16.573,0c2.074,0 3.848,-1.507 4.176,-3.558c1.888,-11.555 3.798,-23.119 5.706,-34.669c0,-0 0,-0 0,-0c1.334,-8.084 2.669,-16.162 3.994,-24.227c27.095,-0.906 49.293,7.291 64.345,23.87c18.195,20.046 25.409,51.356 19.994,85.855c0,0.001 0,0.001 -0,0.002c-4.685,30.01 -21.615,54.02 -44.376,62.522c-19.321,7.216 -40.209,2.418 -58.857,-13.319c-0.759,-0.641 -1.729,-0.997 -2.729,-0.997c-0,0 -103.429,0 -103.429,0c-3.489,0 -6.447,2.958 -6.447,6.468c-0,0 -0,13.338 -0,13.338c-0,3.508 2.957,6.466 6.447,6.466l79.155,0c7.234,20.182 19.656,34.374 36.05,41.406c-0,-0 -0,57.132 -0,57.132c-0,-0 -161.387,-0 -161.387,-0c-3.77,-0 -6.963,3.194 -6.963,6.987l-0,45.304c-0,3.293 2.643,5.945 5.855,5.945c-0,-0 46.551,-0 46.551,-0c2.973,-0 4.362,-2.185 4.978,-3.308l0.105,-0.195Zm-6.86,-4.959l-42.162,-0c-0,-0 -0,-5.768 -0,-5.768c-0,-0 34.094,-0 46.513,-0l-4.351,5.768Zm211.265,-0l-42.159,-0c-0.012,-0.016 -0.024,-0.031 -0.036,-0.047c0.008,0.01 -4.284,-5.721 -4.284,-5.721c0,-0 46.479,-0 46.479,-0l0,5.768Zm-198.715,-9.793l-2.449,0c0.288,0.207 0.528,0.484 0.693,0.814c0.163,0.328 0.24,0.685 0.232,1.039l1.045,-1.386c0.137,-0.181 0.299,-0.338 0.479,-0.467Zm146.505,0l-2.436,0c0.182,0.13 0.346,0.289 0.483,0.473l1.028,1.372c-0.007,-0.352 0.07,-0.707 0.234,-1.035c0.164,-0.328 0.403,-0.604 0.691,-0.81Zm56.236,-0.929c-0.221,0.309 -0.519,0.559 -0.867,0.721c0.348,0.162 0.646,0.412 0.867,0.721l0,-1.442Zm-261.479,0.002l-0,1.439c0.221,-0.308 0.519,-0.558 0.866,-0.72c-0.347,-0.162 -0.645,-0.411 -0.866,-0.719Zm257.453,-30.592l0,27.078c0,0 -253.428,0 -253.428,0l-0,-27.077l253.428,-0.001Zm2.645,-3.745c-0.03,1.108 -1.141,3.746 -1.141,3.746c1.226,-0 2.22,-0.994 2.22,-2.221c0,-0.211 -0.029,-0.415 -0.085,-0.608c-0.242,-0.389 -0.586,-0.708 -0.994,-0.917Zm-1.142,3.745l-0.009,0l0.01,0.001l-0.001,-0.001Zm-1.296,-4.022c-0.56,0.403 -0.924,1.06 -0.924,1.802c-0,0.646 0.276,1.228 0.717,1.634l0,-0.889c0,0.53 0.296,1.051 0.795,1.308l0.708,0.167c-0,-0.001 -0.812,-2.966 -0.239,-4.022l-1.057,0Zm0.588,3.855l0.708,0.167l-0.089,-0.002c-0.23,-0.012 -0.438,-0.071 -0.619,-0.165Zm0.824,-4.27c-0.038,-0.002 -0.077,-0.003 -0.115,-0.003l0.115,0.003Zm-90.93,-0.867c-0.161,0.346 -0.409,0.643 -0.716,0.864l1.431,-0c-0.306,-0.221 -0.554,-0.518 -0.715,-0.864Zm85.095,-0.593c-0.045,0.287 -0.146,0.566 -0.303,0.821c-0.156,0.253 -0.359,0.468 -0.593,0.636l1.91,-0c-0.285,-0.206 -0.523,-0.479 -0.687,-0.805l-0.327,-0.652Zm-5.794,-2.565l-75.068,-0c0,-11.739 0,-66.035 0,-66.035c0,-11.423 9.181,-20.728 20.48,-20.728c10.207,0 18.926,7.75 20.297,18.011c0.002,0.009 0.003,0.017 0.004,0.025c0.065,0.447 0.195,0.879 0.396,1.287l3.391,6.846c0.094,0.194 0.203,0.378 0.323,0.551l30.177,60.043Zm-79.509,-61.685c-0.157,0.22 -0.355,0.412 -0.588,0.565c-0.224,0.147 -0.47,0.25 -0.724,0.307l0.329,0.134c0.405,0.161 0.742,0.433 0.983,0.772l0,-1.778Zm52.726,-1.411l0.269,0.544c0.006,0.011 0.011,0.023 0.017,0.034c-0.007,-0.013 -0.01,-0.028 -0.019,-0.039c0.086,0.112 0.162,0.232 0.225,0.358l0.216,0.429c0.022,-0.145 0.06,-0.289 0.112,-0.429c0.083,-0.223 0.201,-0.43 0.347,-0.613c-0.41,0.015 -0.814,-0.085 -1.167,-0.284Zm79.072,-103.518l-2.187,-2.482c-6.418,50.55 -41.548,86.724 -74.746,101.208c-0,0 -1.361,-2.709 -1.361,-2.709c-2.24,-14.099 -14.406,-24.632 -28.583,-24.632c-15.802,0 -28.699,12.845 -28.943,28.734c-13.153,-6.846 -23,-19.519 -28.794,-36.951c-0,-0 -0,-12.898 -0,-12.898c-0,-0 15.486,-0 15.486,-0c20.89,17.071 44.32,21.906 66.075,13.777c25.454,-9.506 44.597,-35.952 49.778,-69.138c5.841,-37.203 -2.279,-71.03 -22.09,-92.857c-17.354,-19.118 -43.107,-28.341 -74.483,-26.474c-1.973,0.115 -3.604,1.582 -3.925,3.537c-0.001,0.001 -0.001,0.001 -0.001,0.001c-1.508,9.189 -3.026,18.392 -4.549,27.604c-0.001,0.001 -0.001,0.001 -0.001,0.001c-1.712,10.372 -3.426,20.756 -5.126,31.139c-0,-0 -12.975,-0 -12.975,-0c0,-0 0,-16.888 0,-16.888c10.689,-2.009 18.814,-11.483 18.814,-22.84c-0,-11.36 -8.125,-20.833 -18.814,-22.841c0,-0 0,-58.658 0,-58.658c52.744,0.843 94.969,17.494 122.223,48.453c28.019,31.828 39.018,77.638 32.015,132.428l2.203,2.502l-0.016,-0.016Zm-169.055,63.127c-0.17,0.237 -0.385,0.44 -0.633,0.594c0.253,0.072 0.49,0.188 0.7,0.342c-0.044,-0.176 -0.067,-0.356 -0.067,-0.538l0,-0.398Zm-79.953,-3.513l-0,-9.345l75.929,0l-0,9.345l-75.929,-0Zm80.88,-13.369l-1.437,0c0.308,0.221 0.557,0.519 0.718,0.865c0.162,-0.346 0.411,-0.644 0.719,-0.865Zm-26.813,-57.224l-0,0l0.003,0l0.01,-0l0.021,0l0.047,-0l0.016,0l0,-0l0.071,-0.001c1.336,-0.043 2.484,-0.046 3.694,-0.126l0,12.377l-7.469,-0l0,-12.376c0.273,0.018 0.546,0.034 0.817,0.047c0.918,0.049 1.846,0.075 2.781,0.079l0.009,0l-0,0Zm-35.873,1.533l6.41,-11.216c1.83,1.548 3.919,2.96 6.233,4.206l-6.17,10.814l-6.473,-3.804Zm44.371,-6.234c-0.449,0.074 -0.902,0.142 -1.357,0.204c0.151,0.082 0.294,0.182 0.424,0.299c0.154,0.138 0.286,0.295 0.394,0.467c0.095,-0.368 0.282,-0.701 0.539,-0.97Zm-16.738,-0.002c0.255,0.27 0.442,0.602 0.537,0.969c0.107,-0.171 0.239,-0.327 0.392,-0.465c0.131,-0.118 0.274,-0.218 0.426,-0.3l-0.452,-0.064c-0.152,-0.022 -0.303,-0.045 -0.454,-0.068l-0.449,-0.072Zm-9.988,-2.831c0.084,0.141 0.152,0.293 0.203,0.452c0.06,0.19 0.094,0.384 0.101,0.579c0.255,-0.255 0.565,-0.442 0.901,-0.549c-0.407,-0.155 -0.809,-0.316 -1.205,-0.482Zm18.374,-0.931l-0.009,-0.001l-0.027,0.002l-0.04,0.001l0,-0.003c-1.533,-0 -3.075,-0.078 -4.666,-0.234c-4.483,-0.444 -8.649,-1.517 -12.265,-3.078c-4.345,-1.927 -7.838,-4.475 -10.112,-7.461c-0.004,-0.005 -0.008,-0.01 -0.012,-0.015c-0.077,-0.1 -0.156,-0.194 -0.239,-0.284c-0.695,-0.97 -1.261,-1.986 -1.677,-3.039c0,0.001 46.019,0.001 58.128,0.001c-0.901,2.28 -2.504,4.38 -4.622,6.228c-4.677,4.08 -11.81,6.902 -19.98,7.672l0,0c-1.508,0.137 -3.017,0.21 -4.471,0.21l-0.008,0.001Zm-30.632,-8.057c-0.011,0.354 -0.108,0.707 -0.291,1.026l-0.151,0.265c0.202,-0.094 0.42,-0.157 0.646,-0.185c0.244,-0.031 0.489,-0.021 0.725,0.028c-0.326,-0.372 -0.636,-0.75 -0.929,-1.134Zm64.562,-11.008c-0.238,0.332 -0.566,0.596 -0.948,0.756c0.255,0.13 0.484,0.309 0.674,0.53c0.094,0.109 0.176,0.226 0.246,0.35c0.018,-0.305 0.028,-0.61 0.028,-0.916l-0,-0.72Zm-67.823,-0l-0,0.72c-0,0.305 0.009,0.609 0.028,0.912c0.069,-0.122 0.15,-0.238 0.243,-0.346c0.19,-0.221 0.42,-0.401 0.675,-0.53c-0.382,-0.16 -0.709,-0.424 -0.946,-0.756Zm63.796,-3.512l-59.77,-0c-0,-0 -0,-143.971 -0,-163.659c-0,0 59.77,0 59.77,0c0,0 0,80.971 0,80.971c-10.685,2.009 -18.809,11.481 -18.809,22.841c-0,11.356 8.124,20.831 18.809,22.84c0,7.847 0,37.007 0,37.007l0,-0Zm4.441,-16.607l0,1.442c0.221,-0.31 0.52,-0.559 0.867,-0.721c-0.347,-0.163 -0.646,-0.412 -0.867,-0.721Zm20.458,0.277c-0.086,0.086 -0.178,0.165 -0.277,0.236l0.239,-0l0.038,-0.236Zm-20.665,-24.31l-0.49,-0.006l-0.118,-0.005c0.258,0.211 0.466,0.478 0.608,0.782c0.141,-0.304 0.35,-0.571 0.608,-0.782l-0.119,0.005l-0.489,0.006l-0,0l-0,0l-0,0Zm-0,-4.44c-8.044,-0 -14.577,-6.631 -14.577,-14.767c0,-8.138 6.533,-14.77 14.577,-14.77c8.046,0 14.58,6.632 14.58,14.77c0,8.137 -6.534,14.767 -14.58,14.767Zm31.398,-32.907c-0.065,0.052 -0.126,0.107 -0.184,0.165l0.025,-0.156l0.159,-0.009Zm-31.398,-1.84c-0.141,0.303 -0.349,0.57 -0.606,0.78c0.202,-0.007 0.403,-0.011 0.606,-0.011c0.202,0 0.403,0.004 0.605,0.011c-0.257,-0.21 -0.464,-0.477 -0.605,-0.78Zm130.633,-15.031c0.165,0.04 0.336,0.06 0.509,0.06l-0,-0c-0.173,-0 -0.344,-0.02 -0.509,-0.06l-0,-0Zm-130.426,-51.466l0,1.44c0.072,-0.101 0.153,-0.196 0.242,-0.284c0.183,-0.182 0.394,-0.329 0.624,-0.436c-0.347,-0.162 -0.645,-0.412 -0.866,-0.72Zm-68.237,-22.287l-0,1.441c0.22,-0.309 0.518,-0.559 0.865,-0.721c-0.347,-0.162 -0.645,-0.411 -0.865,-0.72Zm67.823,0c-0.221,0.309 -0.519,0.558 -0.866,0.72c0.347,0.163 0.645,0.412 0.866,0.721l-0,-1.441Zm-4.055,-3.511l-59.716,-0c0.203,-1.725 1.607,-3.085 3.337,-3.085c-0,-0 52.971,-0 52.971,-0c1.728,-0 3.194,1.38 3.408,3.085Zm-48.854,-8.392c-0.161,0.347 -0.409,0.645 -0.717,0.866l1.435,0c-0.308,-0.221 -0.556,-0.519 -0.718,-0.866Zm37.994,0.001c-0.161,0.346 -0.41,0.644 -0.717,0.865l1.434,0c-0.307,-0.221 -0.556,-0.519 -0.717,-0.865Zm-4.233,-51.548l-0,48.39c-0,0 -29.527,0 -29.527,0c-0,0 -0,-48.39 -0,-48.39l29.527,0Zm-33.746,-4.023c-0.151,0.033 -0.305,0.049 -0.46,0.05l-0.205,-0c0.277,0.215 0.501,0.494 0.651,0.816c0.161,-0.347 0.409,-0.645 0.717,-0.866l-0.703,0Zm37.262,0c0.307,0.221 0.556,0.519 0.717,0.866c0.159,-0.343 0.404,-0.638 0.706,-0.858l-0.518,0c-0.061,0 -0.121,-0.002 -0.182,-0.007c-0.002,-0 -0.004,-0.001 -0.006,-0.001l-0.717,0Zm7.102,-6.834c0.081,0.355 0.153,0.8 0.153,1.261c0,0.425 -0.035,0.803 -0.09,1.134c0,0 -6.187,0.006 -6.187,0.006c-0.083,-0.005 -0.171,-0.007 -0.261,-0.007l-37.994,-0c-0.22,-0 -0.437,0.016 -0.65,0.049l-5.811,0.006c-0.079,-0.336 -0.15,-0.755 -0.15,-1.188c0,-0.427 0.073,-0.858 0.157,-1.209l50.833,-0.052Z"/><path d="M197.738,407.865c-5.439,-0 -9.863,-4.479 -9.863,-9.983c-0,-5.508 4.424,-9.988 9.863,-9.988c5.44,0 9.865,4.48 9.865,9.988c-0,5.504 -4.425,9.983 -9.865,9.983Zm-0,-23.993c-7.657,0 -13.889,6.285 -13.889,14.01c-0,7.723 6.232,14.008 13.889,14.008c7.659,-0 13.891,-6.285 13.891,-14.008c-0,-7.725 -6.232,-14.01 -13.891,-14.01Z" style="fill-rule:nonzero;"/><path d="M197.738,381.652c-8.876,0 -16.11,7.275 -16.11,16.23c0,8.953 7.234,16.228 16.11,16.228c8.878,0 16.111,-7.275 16.111,-16.228c-0,-8.954 -7.233,-16.23 -16.111,-16.23Zm-0,23.992c-4.222,0 -7.643,-3.49 -7.643,-7.762c0,-4.276 3.421,-7.767 7.643,-7.767c4.223,-0 7.644,3.491 7.644,7.767c0,4.273 -3.421,7.762 -7.644,7.762Z"/><path d="M85.824,92.828c-1.111,-0 -2.013,0.901 -2.013,2.012l-0,149.322c-0,1.11 0.902,2.012 2.013,2.012c1.111,-0 2.013,-0.902 2.013,-2.012l-0,-149.322c-0,-1.111 -0.902,-2.012 -2.013,-2.012Z" style="fill-rule:nonzero;"/><path d="M85.824,90.607c-2.337,0 -4.234,1.896 -4.234,4.233c0,-0 0,149.322 0,149.322c0,2.336 1.897,4.232 4.234,4.232c2.337,-0 4.233,-1.896 4.233,-4.232l0,-149.322c0,-2.337 -1.896,-4.233 -4.233,-4.233Z"/><path d="M143.514,197.295c-3.202,-0 -5.804,-2.608 -5.804,-5.812c-0,-3.205 2.602,-5.814 5.804,-5.814c3.163,0 5.735,2.609 5.735,5.814c-0,3.204 -2.572,5.812 -5.735,5.812Zm0,-15.649c-5.421,-0 -9.83,4.413 -9.83,9.837c-0,5.423 4.409,9.834 9.83,9.834c5.381,0 9.761,-4.411 9.761,-9.834c-0,-5.424 -4.38,-9.837 -9.761,-9.837l0,-0Z" style="fill-rule:nonzero;"/><path d="M143.514,179.425l0,0l0,0c-6.645,0 -12.051,5.409 -12.051,12.058c0,6.647 5.406,12.054 12.051,12.054c6.6,0 11.981,-5.402 11.981,-12.054c-0,-6.653 -5.381,-12.058 -11.981,-12.058l0,0l0,0Zm0,15.65c-1.978,-0 -3.584,-1.613 -3.584,-3.592c0,-1.98 1.606,-3.593 3.584,-3.593c1.947,-0 3.514,1.62 3.514,3.593c0,1.971 -1.568,3.592 -3.514,3.592Z"/></svg>