<?xml version="1.0" encoding="UTF-8" standalone="no"?><!DOCTYPE svg PUBLIC "-//W3C//DTD SVG 1.1//EN" "http://www.w3.org/Graphics/SVG/1.1/DTD/svg11.dtd"><svg width="100%" height="100%" viewBox="0 0 5103 6684" version="1.1" xmlns="http://www.w3.org/2000/svg" xmlns:xlink="http://www.w3.org/1999/xlink" xml:space="preserve" xmlns:serif="http://www.serif.com/" style="fill-rule:evenodd;clip-rule:evenodd;stroke-linejoin:round;stroke-miterlimit:2;"><rect x="2521.93" y="4627.99" width="61.719" height="53.646" style="fill:#1d1f22;fill-rule:nonzero;"/><rect x="2318.03" y="4043.1" width="203.893" height="584.896" style="fill:#1d1f22;fill-rule:nonzero;"/><rect x="2318.03" y="4681.64" width="203.893" height="584.896" style="fill:#1d1f22;fill-rule:nonzero;"/><rect x="2521.93" y="5266.54" width="61.719" height="53.646" style="fill:#1d1f22;fill-rule:nonzero;"/><rect x="2849.24" y="4681.64" width="142.201" height="584.896" style="fill:#1d1f22;fill-rule:nonzero;"/><rect x="2521.93" y="3989.45" width="61.719" height="53.646" style="fill:#1d1f22;fill-rule:nonzero;"/><rect x="2849.24" y="5320.18" width="142.201" height="584.895" style="fill:#1d1f22;fill-rule:nonzero;"/><rect x="2849.24" y="4043.1" width="142.201" height="584.896" style="fill:#1d1f22;fill-rule:nonzero;"/><path d="M1413.89,1161.59c0,16.146 13.412,29.558 29.519,29.558c16.093,-0 26.822,-13.412 26.822,-29.558l0,-160.939l260.235,0l-0,160.939c-0,16.146 13.424,29.558 29.518,29.558c16.107,-0 29.518,-13.412 29.518,-29.558l0,-160.939l99.271,0l0,-24.087l662.67,-869.27l665.364,869.27l-0,24.087l99.271,0l-0,160.939c-0,16.146 13.411,29.558 29.505,29.558c16.093,-0 29.518,-13.412 29.518,-29.558l-0,-160.939l257.552,0l0,160.939c0,16.146 13.425,29.558 29.518,29.558c16.094,-0 29.506,-13.412 29.506,-29.558l0,-160.939l131.458,0l-0,-24.087l-1271.69,-976.562l-1269.01,976.562l-0,24.087l131.458,0l0,160.939Z" style="fill:#1d1f22;fill-rule:nonzero;"/><path d="M185.117,6683.07l431.953,0l0,-3562.89l61.706,-0l0,3562.89l431.953,0l0,-3562.89l61.706,-0l-0,3562.89l431.94,0l0,-3973.44l-1419.26,-0l0,3973.44Z" style="fill:#1d1f22;fill-rule:nonzero;"/><path d="M1789.51,1934.37l-144.883,-0l0,123.31c0,45.7 -37.565,83.201 -83.163,83.201c-45.613,0 -83.165,-37.501 -83.165,-83.201l0,-123.31l-169.036,-0l-0,123.31c-0,45.7 -34.87,83.201 -80.482,83.201c-45.612,0 -83.177,-37.501 -83.177,-83.201l-0,-123.31l-169.01,-0l-0,123.31c-0,45.7 -34.883,83.201 -80.495,83.201c-45.612,0 -83.177,-37.501 -83.177,-83.201l-0,-123.31l-169.011,-0l0,123.31c0,45.7 -37.578,83.201 -80.495,83.201c-45.612,0 -83.177,-37.501 -83.177,-83.201l0,-123.31l-169.01,-0l0,123.31c0,45.7 -37.565,83.201 -83.177,83.201c-42.93,0 -80.482,-37.501 -80.482,-83.201l0,-123.31l-147.565,-0l-0,721.615l1789.51,-0l0,-721.615Z" style="fill:#1d1f22;fill-rule:nonzero;"/><rect x="2114.14" y="5320.18" width="142.187" height="584.895" style="fill:#1d1f22;fill-rule:nonzero;"/><path d="M2583.65,3348.18l-32.2,-0c11.015,-0 21.379,2.474 32.2,3.255l-0,-3.255Z" style="fill:#1d1f22;fill-rule:nonzero;"/><path d="M2787.55,3417.97l0,0.652c1.016,0.65 2.201,1.041 3.217,1.693c-1.12,-0.652 -2.097,-1.693 -3.217,-2.345Z" style="fill:#1d1f22;fill-rule:nonzero;"/><rect x="2114.14" y="4681.64" width="142.187" height="584.896" style="fill:#1d1f22;fill-rule:nonzero;"/><path d="M2316.8,3418.88c0.404,-0.261 0.847,-0.391 1.237,-0.652l-0,-0.261c-0.43,0.261 -0.808,0.652 -1.237,0.913Z" style="fill:#1d1f22;fill-rule:nonzero;"/><rect x="2114.14" y="4043.1" width="142.187" height="584.896" style="fill:#1d1f22;fill-rule:nonzero;"/><path d="M2256.33,3463.54l-0,2.995c10.521,-9.766 21.693,-18.75 33.112,-27.474c-11.211,8.333 -23.033,15.886 -33.112,24.479Z" style="fill:#1d1f22;fill-rule:nonzero;"/><path d="M2114.14,3785.55l-0,203.907l142.187,-0l-0,-522.917c-86.588,80.208 -142.187,193.619 -142.187,319.01Z" style="fill:#1d1f22;fill-rule:nonzero;"/><path d="M2521.93,3348.18l-0,3.125c9.935,-0.781 19.44,-3.125 29.519,-3.125l-29.519,-0Z" style="fill:#1d1f22;fill-rule:nonzero;"/><rect x="2787.55" y="5266.54" width="61.692" height="53.646" style="fill:#1d1f22;fill-rule:nonzero;"/><rect x="2787.55" y="3989.45" width="61.692" height="53.646" style="fill:#1d1f22;fill-rule:nonzero;"/><rect x="2787.55" y="5905.08" width="61.692" height="53.646" style="fill:#1d1f22;fill-rule:nonzero;"/><rect x="2787.55" y="4627.99" width="61.692" height="53.646" style="fill:#1d1f22;fill-rule:nonzero;"/><path d="M2787.55,5958.72l-203.906,0l-0,421.238c-10.742,10.664 -21.458,21.34 -32.2,32.149l268.294,-0l-32.188,-32.149l0,-421.238Z" style="fill:#1d1f22;fill-rule:nonzero;"/><path d="M2819.74,6412.11l171.705,-0l0,-453.387l-142.2,0l-0,421.238l-29.505,32.149Z" style="fill:#1d1f22;fill-rule:nonzero;"/><path d="M4958.02,1934.37l0,123.31c0,45.7 -37.565,83.201 -83.177,83.201c-45.612,0 -80.482,-37.501 -80.482,-83.201l-0,-123.31l-169.024,-0l0,123.31c0,45.7 -37.565,83.201 -83.177,83.201c-45.598,0 -80.481,-37.501 -80.481,-83.201l-0,-123.31l-169.024,-0l0,123.31c0,45.7 -37.565,83.201 -83.177,83.201c-45.599,0 -83.163,-37.501 -83.163,-83.201l-0,-123.31l-166.329,-0l-0,123.31c-0,45.7 -37.578,83.201 -83.19,83.201c-45.599,0 -83.151,-37.501 -83.151,-83.201l0,-123.31l-166.354,-0l-0,123.31c-0,45.7 -37.565,83.201 -83.164,83.201c-45.612,0 -83.178,-37.501 -83.178,-83.201l0,-123.31l-144.869,-0l-0,721.615l1786.81,-0l-0,-721.615l-144.87,-0Z" style="fill:#1d1f22;fill-rule:nonzero;"/><path d="M2849.24,3989.45l142.2,-0l0,-203.907c0,-125.26 -55.442,-238.411 -142.2,-318.75l-0,522.657Z" style="fill:#1d1f22;fill-rule:nonzero;"/><path d="M3498.52,6683.07l434.635,0l0,-3562.89l61.693,-0l-0,3562.89l431.953,0l-0,-3562.89l61.718,-0l0,3562.89l431.941,0l0,-3973.44l-1421.94,-0l-0,3973.44Z" style="fill:#1d1f22;fill-rule:nonzero;"/><path d="M2521.93,5958.72l-203.893,0l-0,421.238l-32.188,32.149l265.6,-0c-8.048,-10.809 -18.777,-21.485 -29.519,-32.149l-0,-421.238Z" style="fill:#1d1f22;fill-rule:nonzero;"/><path d="M2810.65,3435.03c13.464,9.896 26.354,20.442 38.594,31.77l-0,-3.255c-11.745,-10.026 -25.391,-19.14 -38.594,-28.515Z" style="fill:#1d1f22;fill-rule:nonzero;"/><path d="M3369.74,3785.55l0,2733.86l-1636.58,0l-0,-2733.86c-0,-448.046 370.222,-818.359 818.282,-818.359c450.728,-0 818.293,370.313 818.293,818.359Zm-2004.14,-2065.89l-0,-61.718l2374.39,-0l-0,61.718l-2374.39,0Zm1896.82,160.939l252.188,0l-0,177.085c-0,16.145 13.411,29.554 29.518,29.554c16.094,0 29.505,-13.409 29.505,-29.554l-0,-177.085l273.659,0l-0,177.085c-0,16.145 13.411,29.554 29.505,29.554c10.742,0 18.789,-5.337 24.153,-13.409l0,-1019.53l-155.611,0l-0,107.292c-0,45.703 -37.552,83.202 -83.165,83.202c-45.612,-0 -83.177,-37.499 -83.177,-83.202l0,-107.292l-150.234,0l0,107.292c0,45.703 -37.565,83.202 -83.177,83.202c-45.599,-0 -83.164,-37.499 -83.164,-83.202l-0,-107.292l-152.93,0l0,107.292c0,45.703 -34.883,83.202 -80.481,83.202c-45.612,-0 -83.177,-37.499 -83.177,-83.202l-0,-107.292l-152.93,0l-0,107.292c-0,45.703 -37.553,83.202 -83.164,83.202c-42.93,-0 -80.483,-37.499 -80.483,-83.202l0,-107.292l-152.929,0l-0,107.292c-0,45.703 -37.565,83.202 -83.164,83.202c-45.612,-0 -80.495,-37.499 -80.495,-83.202l0,-107.292l-152.917,0l0,107.292c0,45.703 -37.577,83.202 -83.177,83.202c-45.611,-0 -83.164,-37.499 -83.164,-83.202l0,-107.292l-150.247,0l-0,107.292c-0,45.703 -37.565,83.202 -83.177,83.202c-45.612,-0 -83.164,-37.499 -83.164,-83.202l-0,-107.292l-152.93,0l0,107.292c0,45.703 -34.883,83.202 -80.481,83.202c-45.612,-0 -83.178,-37.499 -83.178,-83.202l0,-107.292l-155.599,0l0,1019.53c5.352,8.072 13.412,13.409 24.141,13.409c16.094,0 26.823,-13.409 26.823,-29.554l-0,-177.085l276.341,0l0,177.085c0,16.145 13.424,29.554 29.519,29.554c16.093,0 29.518,-13.409 29.518,-29.554l-0,-177.085l252.187,0l-0,829.036l-185.13,-0l-0,3973.44l1786.84,0l-0,-3973.44l-182.448,-0l-0,-829.036Z" style="fill:#1d1f22;fill-rule:nonzero;"/><path d="M2521.93,3351.3c-74.31,5.208 -143.945,28.386 -203.893,66.927l-0,571.224l203.893,-0l-0,-638.151Z" style="fill:#1d1f22;fill-rule:nonzero;"/><rect x="2583.65" y="4681.64" width="203.907" height="584.896" style="fill:#1d1f22;fill-rule:nonzero;"/><rect x="2583.65" y="4043.1" width="203.907" height="584.896" style="fill:#1d1f22;fill-rule:nonzero;"/><path d="M2787.55,3989.45l0,-570.833c-59.805,-38.413 -129.427,-61.588 -203.906,-67.188l-0,638.021l203.906,-0Z" style="fill:#1d1f22;fill-rule:nonzero;"/><rect x="2583.65" y="5320.18" width="203.907" height="584.895" style="fill:#1d1f22;fill-rule:nonzero;"/><path d="M2256.33,5958.72l-142.187,0l-0,453.387l171.705,-0l-29.518,-32.149l-0,-421.238Z" style="fill:#1d1f22;fill-rule:nonzero;"/><rect x="2521.93" y="5905.08" width="61.719" height="53.646" style="fill:#1d1f22;fill-rule:nonzero;"/><rect x="2318.03" y="5320.18" width="203.893" height="584.895" style="fill:#1d1f22;fill-rule:nonzero;"/><rect x="2256.33" y="5266.54" width="61.706" height="53.646" style="fill:#1d1f22;fill-rule:nonzero;"/><rect x="2256.33" y="5905.08" width="61.706" height="53.646" style="fill:#1d1f22;fill-rule:nonzero;"/><rect x="2256.33" y="3989.45" width="61.706" height="53.646" style="fill:#1d1f22;fill-rule:nonzero;"/><rect x="2256.33" y="4627.99" width="61.706" height="53.646" style="fill:#1d1f22;fill-rule:nonzero;"/></svg>