<?xml version="1.0" encoding="UTF-8" standalone="no"?><!DOCTYPE svg PUBLIC "-//W3C//DTD SVG 1.1//EN" "http://www.w3.org/Graphics/SVG/1.1/DTD/svg11.dtd"><svg width="100%" height="100%" viewBox="0 0 2322 2500" version="1.1" xmlns="http://www.w3.org/2000/svg" xmlns:xlink="http://www.w3.org/1999/xlink" xml:space="preserve" xmlns:serif="http://www.serif.com/" style="fill-rule:evenodd;clip-rule:evenodd;stroke-linejoin:round;stroke-miterlimit:2;"><path d="M1160.6,0c-165.091,0 -330.182,28.503 -487.786,85.482c-156.407,56.55 -321.472,85.482 -487.787,85.482l-185.026,-0l0,1025.3c0,1003.82 1160.6,1303.74 1160.6,1303.74c-0,0 1160.6,-299.922 1160.6,-1303.74l-0,-1025.3l-185.026,-0c-166.315,-0 -331.38,-28.932 -487.786,-85.482c-157.605,-56.979 -322.696,-85.482 -487.787,-85.482Z" style="fill:#030404;fill-rule:nonzero;"/><path d="M1160.6,260.417c136.523,-0 270.846,23.541 399.232,69.96c161.653,58.451 329.831,91.771 500.95,99.337l0,766.549c0,321.536 -153.593,592.747 -456.523,806.107c-173.19,121.979 -350.807,192.825 -443.724,224.87c-90.573,-31.224 -262.474,-99.675 -432.201,-216.928c-310.481,-214.505 -467.916,-488.398 -467.916,-814.049l-0,-766.549c171.12,-7.566 339.297,-40.886 500.95,-99.337c128.386,-46.419 262.709,-69.96 399.232,-69.96Z" style="fill:#e6e4de;fill-rule:nonzero;"/><rect x="607.799" y="1506.24" width="1105.6" height="138.242" style="fill:#030404;fill-rule:nonzero;"/><path d="M1022.19,1298.93l138.165,-138.164l138.164,138.164l-276.329,0Zm553.308,0l137.903,-137.917l0,-276.653l-276.393,276.406l-276.406,-276.406l-276.406,276.406l-276.394,-276.406l0,277.995l1.576,-1.589l138.164,138.164l-139.74,0l0,138.242l1105.6,0l0,-138.242l-137.903,0Z" style="fill:#030404;fill-rule:nonzero;"/><path d="M1269.35,775.625c0,-60.065 -48.698,-108.75 -108.75,-108.75c-60.052,0 -108.75,48.685 -108.75,108.75c-0,60.052 48.698,108.737 108.75,108.737c60.052,0 108.75,-48.685 108.75,-108.737Z" style="fill:#030404;fill-rule:nonzero;"/><path d="M716.537,775.625c-0,-60.065 -48.685,-108.75 -108.738,-108.75c-60.065,0 -108.749,48.685 -108.749,108.75c-0,60.052 48.684,108.737 108.749,108.737c60.053,0 108.738,-48.685 108.738,-108.737Z" style="fill:#030404;fill-rule:nonzero;"/><path d="M1822.15,775.625c-0,-60.065 -48.686,-108.75 -108.751,-108.75c-60.052,0 -108.736,48.685 -108.736,108.75c-0,60.052 48.684,108.737 108.736,108.737c60.065,0 108.751,-48.685 108.751,-108.737Z" style="fill:#030404;fill-rule:nonzero;"/></svg>