<?xml version="1.0" encoding="UTF-8" standalone="no"?><!DOCTYPE svg PUBLIC "-//W3C//DTD SVG 1.1//EN" "http://www.w3.org/Graphics/SVG/1.1/DTD/svg11.dtd"><svg width="100%" height="100%" viewBox="0 0 5020 5020" version="1.1" xmlns="http://www.w3.org/2000/svg" xmlns:xlink="http://www.w3.org/1999/xlink" xml:space="preserve" xmlns:serif="http://www.serif.com/" style="fill-rule:evenodd;clip-rule:evenodd;stroke-linejoin:round;stroke-miterlimit:1.41421;"><g><path d="M4425.56,2510.5c0,1056.51 -859.54,1916.05 -1916.06,1916.05c-1056.51,0 -1916.05,-859.54 -1916.05,-1916.05c0,-1056.52 859.541,-1916.06 1916.05,-1916.06c1056.52,0 1916.06,859.542 1916.06,1916.06Zm142.54,-423.45c-27.61,-134.92 -68.81,-267.65 -122.46,-394.48c-52.67,-124.52 -117.85,-244.62 -193.74,-356.95c-75.17,-111.26 -161.49,-215.89 -256.56,-310.96c-95.08,-95.079 -199.71,-181.399 -310.96,-256.56c-112.33,-75.891 -232.43,-141.077 -356.95,-193.745c-126.83,-53.644 -259.55,-94.844 -394.48,-122.455c-138.44,-28.328 -280.9,-42.691 -423.45,-42.691c-142.54,0 -285,14.363 -423.43,42.691c-134.94,27.61 -267.66,68.81 -394.49,122.455c-124.52,52.667 -244.62,117.853 -356.95,193.745c-111.26,75.162 -215.88,161.482 -310.96,256.56c-95.074,95.08 -181.394,199.7 -256.56,310.96c-75.892,112.33 -141.077,232.43 -193.744,356.95c-53.645,126.83 -94.845,259.55 -122.455,394.48c-28.328,138.44 -42.691,280.9 -42.691,423.45c0,142.54 14.363,285 42.691,423.43c27.61,134.94 68.81,267.66 122.455,394.49c52.668,124.52 117.853,244.62 193.744,356.95c75.162,111.26 161.482,215.88 256.56,310.96c95.08,95.07 199.7,181.39 310.96,256.56c112.33,75.89 232.43,141.08 356.95,193.74c126.83,53.65 259.56,94.85 394.48,122.46c138.43,28.33 280.9,42.69 423.44,42.69c142.55,0 285.02,-14.36 423.44,-42.69c134.93,-27.61 267.66,-68.81 394.49,-122.46c124.53,-52.67 244.62,-117.85 356.95,-193.74c111.26,-75.17 215.88,-161.49 310.96,-256.56c95.08,-95.08 181.4,-199.7 256.56,-310.96c75.89,-112.33 141.07,-232.43 193.74,-356.95c53.65,-126.83 94.85,-259.56 122.46,-394.48c28.33,-138.44 42.69,-280.9 42.69,-423.44c0,-142.55 -14.36,-285.01 -42.69,-423.45Z" style="fill:#fff;fill-rule:nonzero;stroke:#f00;stroke-width:0.24px;"/><path d="M3694.64,2245.77c-43.83,34.84 -96.69,41.28 -118.07,14.38c-21.37,-26.89 -3.17,-76.94 40.66,-111.77c43.83,-34.84 96.69,-41.28 118.07,-14.39c21.37,26.89 3.17,76.94 -40.66,111.78Zm-224.73,419.99c-42.63,33.89 -94.29,39.84 -115.39,13.3c-21.09,-26.54 -3.63,-75.52 38.99,-109.41c42.63,-33.88 94.29,-39.84 115.39,-13.3c21.09,26.54 3.64,75.53 -38.99,109.41Zm-212.12,-180.91c-22.77,-28.03 -4.5,-80.58 40.8,-117.38c45.3,-36.8 100.48,-43.91 123.25,-15.88c22.77,28.02 4.5,80.58 -40.8,117.38c-45.31,36.8 -100.49,43.91 -123.25,15.88Zm-104.05,-207.22c-22.44,-27.62 -4.38,-79.47 40.34,-115.79c44.72,-36.33 99.16,-43.38 121.61,-15.76c22.44,27.63 4.37,79.47 -40.35,115.8c-44.72,36.33 -99.16,43.38 -121.6,15.75Zm-96.04,422.52c-42.21,34.29 -93.62,40.91 -114.83,14.8c-21.21,-26.12 -4.19,-75.08 38.02,-109.37c42.21,-34.28 93.62,-40.91 114.83,-14.8c21.22,26.12 4.19,75.08 -38.02,109.37Zm828.34,-672.06l-659.62,-3.14c-85.34,-7.05 -101.63,53.02 -101.63,53.02l-349.55,769.16c2.14,12.58 45.18,9.13 45.18,9.13l592.1,-76.52c95.15,-11.34 117.76,-68.58 117.76,-68.58l348.76,-635.5c13.72,-27.14 7,-47.57 7,-47.57Z" style="fill:#fff;fill-rule:nonzero;stroke:#f00;stroke-width:0.24px;"/><path d="M2921.56,2038.77c3.71,56.08 -18.22,103.19 -48.98,105.22c-30.76,2.04 -58.71,-41.77 -62.42,-97.85c-3.71,-56.08 18.22,-103.19 48.98,-105.23c30.76,-2.03 58.71,41.78 62.42,97.86Zm-221.78,59.97c3.18,55.41 -20.63,101.84 -53.17,103.71c-32.54,1.87 -61.5,-41.54 -64.68,-96.95c-3.18,-55.4 20.63,-101.84 53.17,-103.7c32.54,-1.87 61.5,41.53 64.68,96.94Zm-218.56,64.67c2.21,55.21 -20.97,100.96 -51.78,102.19c-30.8,1.23 -57.56,-42.53 -59.77,-97.73c-2.21,-55.21 20.98,-100.96 51.78,-102.2c30.81,-1.23 57.57,42.53 59.77,97.74Zm573.92,-209.49l-490.32,-520.39c-2.03,-2.15 -9.16,-3.12 -9.16,-3.12c-21.36,17.12 -39.26,73.56 -39.26,73.56l-225.89,605.99c-26.25,76.45 -2.53,135.56 15.73,165.98l212.27,41.38c177.44,34.59 186.45,194.09 186.45,194.09l0.12,1.17l19.28,279.22l345.92,-748.91c19.7,-45.42 -15.14,-88.97 -15.14,-88.97Z" style="fill:#fff;fill-rule:nonzero;stroke:#f00;stroke-width:0.24px;"/><path d="M3362.78,1704.64c-8.72,23.36 -58.78,26.25 -111.82,6.46c-53.05,-19.79 -88.98,-54.77 -80.27,-78.12c8.71,-23.36 58.78,-26.25 111.82,-6.46c53.04,19.79 88.98,54.77 80.27,78.12Zm478.74,188.63l-423.95,-405.7c0,0 -40.02,-44.97 -161.05,-58.88l-553.34,-56.83c0,0 -63.88,-3.51 -88.89,10.1c0,0 0.97,9.9 15.36,26.87l468.85,495.64c0,0 57.37,61.43 130.51,53.83l645.83,2.66c0,0 3.69,-34.07 -33.32,-67.69Z" style="fill:#fff;fill-rule:nonzero;stroke:#f00;stroke-width:0.24px;"/><path d="M2572.96,2761.29c-18.05,53 -59.05,86.98 -91.57,75.9c-32.52,-11.08 -44.25,-63.02 -26.2,-116.02c18.06,-53 59.06,-86.98 91.58,-75.9c32.52,11.08 44.24,63.02 26.19,116.02Zm-99.75,202.12c18.06,-53 59.06,-86.99 91.58,-75.91c32.52,11.08 44.25,63.02 26.19,116.02c-18.05,53 -59.05,86.98 -91.57,75.91c-32.52,-11.08 -44.25,-63.03 -26.2,-116.02Zm137.6,272.71c-17.56,51.55 -57.81,84.48 -89.9,73.54c-32.1,-10.93 -43.88,-61.58 -26.32,-113.12c17.56,-51.55 57.81,-84.48 89.91,-73.55c32.09,10.94 43.87,61.59 26.31,113.13Zm-328.26,251.68c-16.99,51.66 -56.68,85.01 -88.64,74.5c-31.96,-10.51 -44.09,-60.91 -27.1,-112.57c16.99,-51.66 56.67,-85.01 88.63,-74.5c31.96,10.51 44.09,60.91 27.11,112.57Zm-149.8,-280.07c18.24,-55.44 60.83,-91.24 95.13,-79.96c34.3,11.28 47.33,65.37 29.09,120.81c-18.23,55.45 -60.82,91.25 -95.12,79.97c-34.31,-11.28 -47.33,-65.37 -29.1,-120.82Zm-26.33,-246.58c18,-54.73 60,-90.09 93.81,-78.97c33.81,11.12 46.62,64.5 28.62,119.24c-18,54.73 -60,90.08 -93.81,78.96c-33.81,-11.11 -46.631,-64.5 -28.62,-119.23Zm529.78,-442.63c-3.12,-30.26 -19.81,-43.82 -19.81,-43.82l-556.731,353.79c-75.619,40.18 -56.859,99.53 -56.859,99.53l121.49,836.09c8.6,9.42 42.95,-16.74 42.95,-16.74l456.87,-384.33c73.93,-60.96 62.03,-121.34 62.03,-121.34l-49.94,-723.18Z" style="fill:#fff;fill-rule:nonzero;stroke:#f00;stroke-width:0.24px;"/><path d="M1914.75,3619.88c-24.92,17.45 -70.43,-4.56 -101.65,-49.15c-31.22,-44.59 -36.33,-94.88 -11.41,-112.33c24.92,-17.45 70.44,4.55 101.66,49.14c31.22,44.6 36.32,94.89 11.4,112.34Zm-193.89,-548.63c-33.43,-45.18 -40.44,-96.67 -15.65,-115.01c24.78,-18.33 71.97,3.43 105.4,48.61c33.42,45.18 40.43,96.67 15.64,115.01c-24.78,18.33 -71.97,-3.43 -105.39,-48.61Zm-54.16,227.35c-26.38,19.16 -74.2,-1.72 -106.81,-46.62c-32.62,-44.91 -37.68,-96.84 -11.3,-116c26.37,-19.15 74.19,1.72 106.81,46.63c32.61,44.91 37.67,96.84 11.3,115.99Zm-147.61,163.03c-25.25,17.69 -71.41,-4.67 -103.1,-49.93c-31.69,-45.27 -36.91,-96.29 -11.65,-113.97c25.25,-17.68 71.41,4.67 103.1,49.94c31.69,45.26 36.91,96.28 11.65,113.96Zm-201.65,-531.02c-32.36,-45.02 -38.29,-96.1 -13.26,-114.09c25.04,-17.99 71.56,3.92 103.91,48.93c32.35,45.02 38.29,96.1 13.25,114.09c-25.03,17.99 -71.55,-3.92 -103.9,-48.93Zm738.34,844.65l-117.8,-847.3c-7.98,-48.86 -60.82,-66.68 -60.82,-66.68l-693.78,-172.93c-2.86,-0.72 -9.39,2.32 -9.39,2.32c-8.72,25.95 6.72,83.11 6.72,83.11l137.37,631.97c28.52,116.48 128.99,141.42 128.99,141.42l498.38,215.49c31.02,12.97 95.14,26.45 95.14,26.45c17.41,3.31 15.19,-13.85 15.19,-13.85Z" style="fill:#fff;fill-rule:nonzero;stroke:#f00;stroke-width:0.24px;"/><path d="M1934.96,2706.06c-55.32,12.01 -104.46,1.99 -109.75,-22.37c-5.28,-24.35 35.28,-53.84 90.61,-65.85c55.32,-12.01 104.46,-2 109.75,22.36c5.28,24.36 -35.28,53.85 -90.61,65.86Zm-166.73,-299.07c-5.29,-24.36 35.61,-53.92 91.35,-66.01c55.74,-12.1 105.21,-2.17 110.5,22.19c5.29,24.36 -35.61,53.92 -91.35,66.02c-55.74,12.1 -105.21,2.16 -110.5,-22.2Zm737.85,-21.67l-575.96,-112.29c0,0 -57.97,-16.21 -167.32,37.48l-496.31,251.18c0,0 -55.65,31.57 -69.34,56.53c0,0 6.16,7.81 27.44,14.31l662.33,163.71c0,0 81.47,20.68 138.9,-25.23l544.86,-346.74c0,0 -15.3,-30.66 -64.6,-38.95Z" style="fill:#fff;fill-rule:nonzero;stroke:#de2828;stroke-width:0.24px;"/><path d="M1536.26,740.613l-168.627,112.922l2260.24,3375.2l168.626,-112.923l-2260.24,-3375.2Z" style="fill:#fff;"/></g></svg>