<?xml version="1.0" encoding="UTF-8" standalone="no"?><!DOCTYPE svg PUBLIC "-//W3C//DTD SVG 1.1//EN" "http://www.w3.org/Graphics/SVG/1.1/DTD/svg11.dtd"><svg width="100%" height="100%" viewBox="0 0 20917 20917" version="1.1" xmlns="http://www.w3.org/2000/svg" xmlns:xlink="http://www.w3.org/1999/xlink" xml:space="preserve" xmlns:serif="http://www.serif.com/" style="fill-rule:evenodd;clip-rule:evenodd;stroke-linejoin:round;stroke-miterlimit:1.41421;"><g><path d="M19419.4,7578.71c-337.017,301.121 -743.469,356.781 -907.864,124.284c-164.319,-232.408 -24.376,-664.988 312.643,-966.022c337.019,-301.119 743.469,-356.779 907.866,-124.371c164.317,232.408 24.374,664.988 -312.645,966.109Zm-1728,3629.95c-327.79,292.908 -725.014,344.336 -887.257,114.951c-162.166,-229.384 -27.913,-652.715 299.802,-945.626c327.79,-292.822 725.016,-344.334 887.258,-114.95c162.166,229.382 27.989,652.8 -299.803,945.625Zm-1631.04,-1563.6c-175.083,-242.263 -34.601,-696.45 313.721,-1014.51c348.319,-318.061 772.612,-379.511 947.695,-137.249c175.084,242.176 34.602,696.447 -313.72,1014.51c-348.399,318.061 -772.689,379.512 -947.696,137.252Zm-800.063,-1790.99c-172.545,-238.717 -33.678,-686.855 310.184,-1000.76c343.861,-313.999 762.461,-374.933 935.084,-136.213c172.545,238.803 33.603,686.855 -310.259,1000.85c-343.861,313.999 -762.463,374.933 -935.009,136.127Zm-738.472,3651.82c-324.562,296.367 -719.863,353.584 -882.951,127.916c-163.09,-225.753 -32.22,-648.911 292.342,-945.278c324.563,-296.281 719.865,-353.585 882.953,-127.916c163.165,225.752 32.217,648.913 -292.344,945.278Zm6369.28,-5808.58l-5071.96,-27.14c-656.197,-60.933 -781.454,458.249 -781.454,458.249l-2687.76,6647.81c16.454,108.729 347.398,78.911 347.398,78.911l4552.78,-661.358c731.628,-98.012 905.482,-592.734 905.482,-592.734l2681.69,-5492.59c105.496,-234.569 53.825,-411.144 53.825,-411.144Z" style="fill-rule:nonzero;stroke:#f00;stroke-width:1px;"/><path d="M13475,5789.61c28.527,484.698 -140.097,891.866 -376.618,909.411c-236.52,17.632 -451.433,-361.016 -479.962,-845.713c-28.526,-484.695 140.098,-891.866 376.618,-909.498c236.52,-17.545 451.435,361.103 479.962,845.8Zm-1705.31,518.318c24.451,478.905 -158.63,880.198 -408.835,896.36c-250.207,16.163 -472.887,-359.029 -497.34,-837.934c-24.451,-478.818 158.63,-880.199 408.837,-896.273c250.206,-16.164 472.887,358.942 497.338,837.847Zm-1680.56,558.938c16.993,477.179 -161.243,872.594 -398.148,883.225c-236.828,10.631 -442.591,-367.585 -459.584,-844.675c-16.993,-477.179 161.319,-872.594 398.147,-883.311c236.906,-10.631 442.669,367.585 459.585,844.761Zm4412.99,-1810.61l-3770.17,-4497.7c-15.609,-18.584 -70.435,-26.967 -70.435,-26.967c-164.24,147.968 -301.878,635.776 -301.878,635.776l-1736.92,5237.54c-201.842,660.753 -19.454,1171.64 120.951,1434.56l1632.19,357.646c1364.37,298.958 1433.65,1677.51 1433.65,1677.51l0.924,10.113l148.248,2413.28l2659.85,-6472.79c151.477,-392.562 -116.416,-768.963 -116.416,-768.963Z" style="fill-rule:nonzero;stroke:#f00;stroke-width:1px;"/><path d="M16867.6,2901.75c-67.05,201.9 -451.972,226.877 -859.809,55.835c-407.913,-171.044 -684.186,-473.375 -617.213,-675.188c66.973,-201.898 451.972,-226.878 859.808,-55.833c407.837,171.044 684.186,473.374 617.214,675.186Zm3681.13,1630.32l-3259.84,-3506.44c0,0 -307.722,-388.673 -1238.35,-508.898l-4254.75,-491.177c0,0 -491.186,-30.337 -683.493,87.293c0,0 7.458,85.566 118.105,232.237l3605.09,4283.79c0,0 441.131,530.936 1003.52,465.25l4965.93,22.99c0,0 28.373,-294.466 -256.205,-585.041Z" style="fill-rule:nonzero;stroke:#f00;stroke-width:1px;"/><path d="M10794.5,12034.3c-138.79,458.076 -454.048,751.763 -704.102,655.999c-250.051,-95.763 -340.247,-544.679 -201.457,-1002.75c138.868,-458.077 454.126,-751.764 704.179,-655.999c250.054,95.764 340.171,544.679 201.38,1002.75Zm-766.999,1746.91c138.868,-458.077 454.126,-751.85 704.179,-656.086c250.053,95.765 340.248,544.679 201.38,1002.75c-138.791,458.076 -454.048,751.764 -704.102,656.087c-250.053,-95.765 -340.248,-544.766 -201.457,-1002.76Zm1058.04,2357.02c-135.023,445.544 -444.514,730.156 -691.262,635.603c-246.822,-94.468 -337.402,-532.234 -202.378,-977.691c135.021,-445.544 444.512,-730.156 691.336,-635.689c246.748,94.554 337.327,532.319 202.304,977.777Zm-2524.06,2175.26c-130.639,446.494 -435.824,734.737 -681.573,643.899c-245.747,-90.837 -339.016,-526.442 -208.376,-972.937c130.639,-446.495 435.747,-734.737 681.494,-643.9c245.747,90.838 339.018,526.443 208.455,972.938Zm-1151.84,-2420.63c140.251,-479.164 467.735,-788.582 731.474,-691.089c263.74,97.492 363.931,564.989 223.68,1044.15c-140.175,479.252 -467.659,788.669 -731.397,691.177c-263.818,-97.493 -363.932,-564.989 -223.757,-1044.24Zm-202.458,-2131.18c138.406,-473.028 461.353,-778.642 721.326,-682.533c259.972,96.111 358.472,557.47 220.066,1030.59c-138.406,473.029 -461.353,778.557 -721.326,682.447c-259.972,-96.023 -358.556,-557.47 -220.066,-1030.5Zm4073.59,-3825.63c-23.989,-261.536 -152.324,-378.735 -152.324,-378.735l-4280.82,3057.79c-581.45,347.273 -437.2,860.233 -437.2,860.233l934.162,7226.28c66.126,81.417 330.252,-144.683 330.252,-144.683l3512.97,-3321.74c568.463,-526.875 476.96,-1048.74 476.96,-1048.74l-383.999,-6250.41Z" style="fill-rule:nonzero;stroke:#f00;stroke-width:1px;"/><path d="M5733.4,19455.1c-191.615,150.819 -541.552,-39.412 -781.609,-424.801c-240.057,-385.389 -279.349,-820.043 -87.734,-970.862c191.616,-150.82 541.629,39.325 781.686,424.714c240.057,385.476 279.273,820.13 87.657,970.949Zm-1490.86,-4741.78c-257.05,-390.489 -310.951,-835.514 -120.336,-994.026c190.539,-158.426 553.393,29.645 810.443,420.134c256.974,390.489 310.876,835.514 120.26,994.026c-190.539,158.424 -553.393,-29.645 -810.367,-420.134Zm-416.448,1964.97c-202.841,165.599 -570.539,-14.865 -821.284,-402.934c-250.822,-388.155 -289.73,-836.983 -86.889,-1002.58c202.765,-165.513 570.464,14.865 821.286,403.021c250.745,388.155 289.652,836.982 86.887,1002.5Zm-1135.01,1409.06c-194.152,152.894 -549.086,-40.363 -792.757,-431.543c-243.671,-391.265 -283.809,-832.228 -89.58,-985.036c194.153,-152.807 549.087,40.363 792.758,431.629c243.672,391.18 283.809,832.143 89.579,984.95Zm-1550.53,-4589.58c-248.823,-389.106 -294.419,-830.589 -101.958,-986.075c192.537,-155.487 550.24,33.879 798.986,422.899c248.746,389.105 294.42,830.588 101.882,986.074c-192.461,155.487 -550.163,-33.88 -798.91,-422.898Zm5677.26,7300.27l-905.79,-7323.17c-61.359,-422.293 -467.657,-576.311 -467.657,-576.311l-5334.62,-1494.62c-21.991,-6.225 -72.202,20.05 -72.202,20.05c-67.05,224.286 51.671,718.316 51.671,718.316l1056.27,5462.08c219.297,1006.73 991.832,1222.29 991.832,1222.29l3832.15,1862.47c238.519,112.099 731.551,228.606 731.551,228.606c133.87,28.609 116.8,-119.705 116.8,-119.705Z" style="fill-rule:nonzero;stroke:#f00;stroke-width:1px;"/><path d="M5888.8,11557c-425.367,103.802 -803.215,17.199 -843.891,-193.344c-40.599,-210.454 271.275,-465.335 696.719,-569.137c425.368,-103.802 803.216,-17.286 843.891,193.255c40.6,210.544 -271.274,465.424 -696.719,569.226Zm-1282.02,-2584.85c-40.676,-210.544 273.813,-466.027 702.41,-570.522c428.597,-104.58 808.983,-18.754 849.658,191.787c40.676,210.543 -273.813,466.029 -702.41,570.608c-428.596,104.58 -808.981,18.67 -849.658,-191.873Zm5673.49,-187.292l-4428.68,-970.517c0,0 -445.743,-140.102 -1286.56,323.937l-3816.23,2170.93c0,0 -427.905,272.859 -533.17,488.587c0,0 47.366,67.501 210.992,123.681l5092.8,1414.94c0,0 626.44,178.736 1068.03,-218.061l4189.55,-2996.86c0,0 -117.646,-264.992 -496.722,-336.642Z" style="fill-rule:nonzero;stroke:#de2828;stroke-width:1px;"/></g></svg>