<?xml version="1.0" encoding="UTF-8" standalone="no"?>
<!DOCTYPE svg PUBLIC "-//W3C//DTD SVG 1.1//EN" "http://www.w3.org/Graphics/SVG/1.1/DTD/svg11.dtd">
<svg width="100%" height="100%" viewBox="0 0 334 546" version="1.1" xmlns="http://www.w3.org/2000/svg" xmlns:xlink="http://www.w3.org/1999/xlink" xml:space="preserve" xmlns:serif="http://www.serif.com/" style="fill-rule:evenodd;clip-rule:evenodd;stroke-miterlimit:1.41421;">
    <g>
        <path d="M107.396,80.272C199.203,58.173 239.194,117.082 303.8,144.603C368.407,172.124 269.434,227.337 177.627,249.436C85.82,271.535 9.281,250.769 1.46,218.269C-6.36,185.769 15.589,102.371 107.396,80.272Z"/>
        <path d="M271.923,173.678C272.245,175.042 272.42,176.425 272.42,177.826C272.42,201.759 223.918,221.161 164.082,221.161C104.246,221.161 55.742,201.759 55.742,177.826C55.742,176.425 55.918,175.042 56.239,173.678L56.239,43.335L271.923,43.335L271.923,173.678Z"/>
        <path d="M164.082,0C223.918,0 272.42,19.402 272.42,43.335C272.42,67.269 223.918,86.67 164.082,86.67C104.246,86.67 55.742,67.269 55.742,43.335C55.742,19.402 104.246,0 164.082,0Z"/>
        <path d="M232.321,211.487C216.661,217.361 200.404,222.692 184.279,227.197C111.182,247.606 45.107,245.763 8.965,231.498C31.665,255.866 99.055,268.349 177.627,249.436C251.144,231.738 329.255,192.808 324.286,163.869C306.389,178.169 278.276,193.034 246.581,205.916C242.266,207.94 237.49,209.806 232.321,211.487Z"/>
        <path d="M164.082,193.265C112.121,193.265 68.479,179.394 56.239,160.643L56.239,173.678C55.918,175.042 55.742,176.425 55.742,177.826C55.742,201.759 104.246,221.161 164.082,221.161C189.944,221.161 213.692,217.537 232.321,211.487C237.49,209.806 242.266,207.94 246.581,205.916C262.693,198.352 272.42,188.543 272.42,177.826C272.42,176.425 272.245,175.042 271.923,173.678L271.923,160.643C259.679,179.394 216.043,193.265 164.082,193.265Z"/>
        <path d="M324.286,163.869C306.389,178.169 278.276,193.034 246.581,205.916C242.266,207.94 237.49,209.806 232.321,211.487C216.661,217.361 200.404,222.692 184.279,227.197C111.182,247.606 45.107,245.763 8.965,231.498C11.391,234.105 14.333,236.577 17.739,238.886C54.035,250.782 108.954,253.06 169.915,238.384C233.686,223.031 300.561,193.346 324.49,165.735C324.462,165.107 324.394,164.488 324.286,163.869Z"/>
        <path d="M176.683,192.989C172.549,193.17 168.342,193.265 164.082,193.265C157.855,193.265 151.747,193.066 145.8,192.682L145.8,220.546C151.742,220.948 157.851,221.161 164.082,221.161C168.342,221.161 172.549,221.061 176.683,220.872L176.683,192.989Z"/>
        <path d="M176.683,192.989L176.683,220.872C186.253,220.429 195.438,219.484 204.083,218.111L204.083,190.382C195.42,191.679 186.235,192.569 176.683,192.989Z"/>
        <path d="M204.083,190.382L204.083,218.111C214.361,216.475 223.868,214.229 232.321,211.487C233.215,211.198 234.097,210.899 234.964,210.601L234.964,183.333C225.793,186.289 215.382,188.683 204.083,190.382Z"/>
        <path d="M162.482,513.687C174.619,502.873 221.189,472.019 237.109,489.417C241.229,493.921 243.823,504.766 243.717,514.557C243.6,525.54 240.05,538.527 234.951,542.851C220.755,554.889 173.69,526.353 162.482,513.687Z"/>
        <path d="M162.028,513.682C150.127,502.611 104.229,470.767 87.94,487.821C83.725,492.235 80.898,503.022 80.794,512.812C80.676,523.795 83.947,536.856 88.954,541.289C102.887,553.627 150.553,526.105 162.028,513.682Z"/>
        <path d="M162.465,513.733C173.708,503.716 216.847,475.135 231.594,491.252C235.412,495.423 237.814,505.469 237.717,514.538C237.608,524.712 234.32,536.743 229.595,540.749C216.447,551.9 172.847,525.466 162.465,513.733Z"/>
        <path d="M162.045,513.728C151.021,503.474 108.502,473.975 93.414,489.773C89.508,493.861 86.892,503.854 86.794,512.922C86.686,523.096 89.715,535.194 94.353,539.301C107.259,550.731 151.415,525.238 162.045,513.728Z"/>
        <path d="M162.459,513.751C173.347,504.049 215.127,476.369 229.411,491.978C233.107,496.018 235.434,505.748 235.339,514.532C235.234,524.385 232.049,536.037 227.474,539.918C214.74,550.716 172.513,525.116 162.459,513.751Z"/>
        <path d="M162.051,513.747C151.374,503.815 110.195,475.245 95.581,490.545C91.8,494.505 89.264,504.183 89.17,512.966C89.065,522.821 92,534.538 96.491,538.515C108.991,549.585 151.756,524.893 162.051,513.747Z"/>
        <path d="M148.851,492.405L176.114,492.697C181.347,492.752 185.582,497.032 185.526,502.206L185.271,526.021C185.215,531.195 180.89,535.382 175.657,535.326L148.394,535.034C143.161,534.978 138.925,530.699 138.981,525.525L139.236,501.71C139.291,496.536 143.618,492.348 148.851,492.405Z"/>
        <path d="M150.64,495.27L174.264,495.523C178.797,495.572 182.467,499.28 182.42,503.762L182.199,524.398C182.151,528.881 178.402,532.51 173.869,532.461L150.244,532.208C145.71,532.16 142.04,528.452 142.088,523.969L142.309,503.332C142.357,498.85 146.106,495.221 150.64,495.27Z"/>
        <path d="M151.46,496.584L173.416,496.82C177.629,496.865 181.04,500.309 180.995,504.476L180.79,523.654C180.745,527.82 177.261,531.192 173.047,531.146L151.093,530.912C146.88,530.867 143.469,527.421 143.514,523.254L143.719,504.077C143.764,499.911 147.248,496.54 151.46,496.584Z"/>
        <path d="M177.256,505.255L176.338,525.31C176.333,525.457 176.322,525.602 176.309,525.748C176.307,525.76 176.306,525.773 176.305,525.785C176.303,525.815 176.299,525.844 176.296,525.873C176.144,527.313 175.667,528.66 174.959,529.806C176.278,529.251 177.384,528.288 178.11,527.076C178.127,527.047 178.145,527.018 178.162,526.99C178.168,526.977 178.176,526.963 178.183,526.952C178.716,526.017 179.026,524.943 179.038,523.799L179.217,507.092C179.228,506.035 178.984,505.031 178.542,504.138C178.533,504.122 178.525,504.106 178.517,504.089C178.498,504.051 178.478,504.014 178.458,503.976C178.04,503.188 177.464,502.492 176.774,501.928C177.081,502.786 177.254,503.731 177.266,504.731C177.265,504.776 177.266,504.821 177.266,504.866C177.266,504.885 177.266,504.903 177.265,504.922C177.264,505.033 177.261,505.144 177.256,505.255Z"/>
        <path d="M265.202,377.74C254.405,402.13 240.815,412.997 217.781,428.477C206.906,435.786 198.404,438.588 184.145,436.778C174.22,435.518 166.89,430.978 162.255,424.994C157.621,430.978 150.291,435.518 140.367,436.778C126.107,438.588 117.605,435.786 106.731,428.477C83.696,412.997 70.107,402.13 59.31,377.74C64.471,384.625 70.766,390.389 79.171,393.445C102.943,402.088 112.947,383.771 128.999,381.558C145.096,379.338 156.103,383.921 162.255,391.274C168.409,383.921 179.416,379.338 195.513,381.558C211.565,383.771 221.568,402.088 245.34,393.445C253.745,390.389 260.04,384.625 265.202,377.74Z" style="fill-rule:nonzero;"/>
        <path d="M276.613,254.476C278.108,253.698 281.324,256.921 283.796,261.674C286.269,266.427 287.061,270.91 285.567,271.687C284.072,272.465 280.856,269.243 278.383,264.49C275.911,259.737 275.118,255.254 276.613,254.476ZM277.301,255.8C278.566,255.142 281.288,257.869 283.38,261.891C285.472,265.912 286.143,269.706 284.878,270.364C283.613,271.022 280.892,268.295 278.799,264.273C276.708,260.252 276.037,256.457 277.301,255.8Z"/>
        <path d="M281.921,262.897C283.417,262.119 286.632,265.342 289.105,270.095C291.578,274.847 292.371,279.331 290.876,280.109C289.38,280.886 286.165,277.664 283.692,272.911C281.219,268.158 280.427,263.675 281.921,262.897ZM282.61,264.221C283.876,263.562 286.596,266.29 288.689,270.311C290.781,274.332 291.452,278.126 290.187,278.785C288.922,279.443 286.201,276.716 284.108,272.694C282.016,268.672 281.345,264.878 282.61,264.221Z"/>
        <path d="M286.545,271.698C288.041,270.92 291.256,274.143 293.729,278.896C296.202,283.649 296.995,288.132 295.5,288.91C294.005,289.688 290.789,286.465 288.316,281.712C285.843,276.958 285.051,272.475 286.545,271.698ZM287.235,273.022C288.5,272.364 291.221,275.09 293.313,279.113C295.406,283.134 296.076,286.928 294.811,287.586C293.546,288.245 290.825,285.517 288.732,281.496C286.64,277.474 285.969,273.68 287.235,273.022Z"/>
        <path d="M293.014,280.512C294.695,280.626 295.764,285.052 295.402,290.397C295.04,295.743 293.383,299.983 291.702,299.87C290.021,299.755 288.952,295.33 289.314,289.985C289.676,284.639 291.334,280.399 293.014,280.512ZM292.914,282.001C294.335,282.097 295.241,285.842 294.934,290.366C294.627,294.888 293.225,298.477 291.803,298.381C290.38,298.285 289.476,294.54 289.783,290.016C290.089,285.494 291.491,281.905 292.914,282.001Z"/>
        <path d="M293.727,290.7C295.364,291.098 295.663,295.641 294.394,300.846C293.126,306.051 290.769,309.948 289.132,309.549C287.496,309.15 287.197,304.607 288.465,299.402C289.734,294.197 292.089,290.3 293.727,290.7ZM293.374,292.149C294.758,292.487 295.011,296.331 293.938,300.736C292.865,305.14 290.871,308.437 289.486,308.099C288.1,307.762 287.847,303.917 288.921,299.513C289.995,295.108 291.988,291.811 293.374,292.149Z"/>
        <path d="M290.309,300.191C291.98,300.414 292.76,304.9 292.052,310.21C291.344,315.521 289.418,319.645 287.747,319.422C286.077,319.2 285.296,314.714 286.004,309.404C286.711,304.093 288.639,299.968 290.309,300.191ZM290.113,301.67C291.526,301.859 292.186,305.654 291.587,310.148C290.989,314.641 289.357,318.132 287.944,317.944C286.531,317.755 285.871,313.959 286.469,309.465C287.068,304.972 288.699,301.482 290.113,301.67Z"/>
        <path d="M288.936,310.111C290.62,310.183 291.798,314.581 291.569,319.933C291.34,325.286 289.79,329.567 288.106,329.495C286.422,329.422 285.244,325.025 285.473,319.672C285.703,314.319 287.252,310.039 288.936,310.111ZM288.873,311.601C290.297,311.663 291.294,315.383 291.1,319.913C290.907,324.442 289.594,328.065 288.169,328.003C286.746,327.943 285.748,324.221 285.942,319.692C286.136,315.163 287.448,311.54 288.873,311.601Z"/>
        <path d="M286.654,320.363C288.293,319.976 290.619,323.891 291.846,329.106C293.074,334.321 292.739,338.862 291.099,339.248C289.459,339.633 287.134,335.719 285.907,330.504C284.679,325.29 285.013,320.748 286.654,320.363ZM286.996,321.815C288.383,321.488 290.35,324.801 291.389,329.213C292.428,333.626 292.145,337.468 290.757,337.795C289.37,338.122 287.402,334.809 286.364,330.397C285.325,325.984 285.608,322.141 286.996,321.815Z"/>
        <path d="M288.418,330.157C289.912,329.379 293.128,332.601 295.6,337.354C298.073,342.107 298.866,346.59 297.371,347.368C295.877,348.146 292.66,344.923 290.188,340.17C287.715,335.417 286.922,330.934 288.418,330.157ZM289.106,331.48C290.371,330.822 293.092,333.549 295.184,337.571C297.277,341.592 297.948,345.386 296.682,346.044C295.418,346.703 292.696,343.975 290.604,339.954C288.512,335.932 287.84,332.138 289.106,331.48Z"/>
        <path d="M292.985,338.988C294.282,337.912 298.106,340.381 301.528,344.503C304.95,348.626 306.672,352.84 305.376,353.916C304.079,354.993 300.254,352.523 296.833,348.401C293.411,344.278 291.688,340.064 292.985,338.988ZM293.938,340.136C295.035,339.225 298.272,341.315 301.167,344.803C304.062,348.291 305.52,351.858 304.423,352.769C303.326,353.679 300.089,351.589 297.194,348.101C294.298,344.612 292.84,341.046 293.938,340.136Z"/>
        <path d="M299.471,346.561C300.212,345.047 304.714,345.732 309.525,348.089C314.336,350.446 317.635,353.583 316.894,355.097C316.153,356.61 311.652,355.926 306.84,353.569C302.03,351.211 298.73,348.074 299.471,346.561ZM300.811,347.217C301.439,345.937 305.248,346.516 309.319,348.51C313.39,350.505 316.182,353.16 315.554,354.44C314.927,355.72 311.119,355.142 307.047,353.147C302.976,351.153 300.184,348.498 300.811,347.217Z"/>
        <path d="M309.835,348.446C310.966,347.198 315.102,349.101 319.073,352.698C323.043,356.294 325.345,360.223 324.213,361.471C323.083,362.72 318.947,360.817 314.976,357.22C311.005,353.623 308.704,349.695 309.835,348.446ZM310.941,349.448C311.898,348.391 315.398,350.001 318.757,353.045C322.118,356.089 324.065,359.413 323.108,360.47C322.151,361.527 318.651,359.915 315.292,356.873C311.931,353.829 309.983,350.504 310.941,349.448Z"/>
        <path d="M317.84,354.846C319.335,354.069 322.551,357.29 325.024,362.043C327.497,366.796 328.289,371.28 326.794,372.057C325.299,372.835 322.084,369.613 319.611,364.86C317.138,360.107 316.345,355.623 317.84,354.846ZM318.529,356.169C319.793,355.511 322.515,358.239 324.608,362.26C326.7,366.282 327.371,370.077 326.106,370.734C324.84,371.392 322.12,368.665 320.027,364.643C317.935,360.622 317.264,356.828 318.529,356.169Z"/>
        <path d="M323.551,363.062C325.046,362.284 328.262,365.506 330.735,370.259C333.208,375.012 334.001,379.496 332.505,380.273C331.01,381.051 327.794,377.829 325.322,373.076C322.849,368.323 322.057,363.839 323.551,363.062ZM324.24,364.385C325.505,363.727 328.226,366.454 330.319,370.475C332.412,374.498 333.082,378.291 331.817,378.95C330.552,379.608 327.831,376.88 325.738,372.859C323.646,368.836 322.975,365.043 324.24,364.385Z"/>
        <path d="M232.666,241.446C257.071,241.446 276.856,261.23 276.856,285.636C276.856,310.041 257.071,329.826 232.666,329.826C208.26,329.826 188.476,310.041 188.476,285.636C188.476,261.23 208.26,241.446 232.666,241.446ZM232.666,246.913C254.052,246.913 271.389,264.249 271.389,285.636C271.389,307.022 254.052,324.359 232.666,324.359C211.28,324.359 193.943,307.022 193.943,285.636C193.943,264.249 211.28,246.913 232.666,246.913Z"/>
        <path d="M271.749,249.72C275.76,249.72 279.013,252.972 279.013,256.984C279.013,260.997 275.76,264.248 271.749,264.248C267.737,264.248 264.484,260.997 264.484,256.984C264.484,252.972 267.737,249.72 271.749,249.72ZM271.749,250.619C275.264,250.619 278.114,253.468 278.114,256.984C278.114,260.5 275.264,263.35 271.749,263.35C268.233,263.35 265.382,260.5 265.382,256.984C265.382,253.468 268.233,250.619 271.749,250.619Z"/>
        <path d="M227.954,305.207L257.382,278.659L257.391,278.668L227.963,305.217L227.954,305.207Z"/>
        <path d="M227.954,305.207L257.382,278.659L257.391,278.668L227.963,305.217L227.954,305.207Z" style="stroke:rgb(91,91,91);stroke-width:0.57px;"/>
        <path d="M232.923,285.63L249.294,270.86L249.299,270.866L232.928,285.636L232.923,285.63Z"/>
        <path d="M232.923,285.63L249.294,270.86L249.299,270.866L232.928,285.636L232.923,285.63Z" style="stroke:rgb(91,91,91);stroke-width:0.57px;"/>
    </g>
</svg>
